{
  "accessors": [
    {
      "bufferView": 2,
      "componentType": 5126,
      "count": 654,
      "max": [
        9.913748741149902,
        1.1542162895202637,
        21.784603118896484
      ],
      "min": [
        -9.913748741149902,
        -2.147052764892578,
        -0.015157699584960938
      ],
      "type": "VEC3"
    },
    {
      "bufferView": 2,
      "byteOffset": 7848,
      "componentType": 5126,
      "count": 654,
      "max": [
        0.9994840621948242,
        0.9984446167945862,
        0.9914906620979309
      ],
      "min": [
        -0.9994840621948242,
        -0.9999173879623413,
        -0.9997066855430603
      ],
      "type": "VEC3"
    },
    {
      "bufferView": 1,
      "componentType": 5126,
      "count": 654,
      "max": [
        0.6250000596046448,
        0.875
      ],
      "min": [
        0.0,
        0.0
      ],
      "type": "VEC2"
    },
    {
      "bufferView": 0,
      "componentType": 5125,
      "count": 3066,
      "type": "SCALAR"
    }
  ],
  "asset": {
    "extras": {
      "author": "さとむ (https://sketchfab.com/satomu)",
      "license": "SKETCHFAB Standard (https://sketchfab.com/licenses)",
      "source": "https://sketchfab.com/3d-models/anime-girl-body-low-poly-b2b267461d504a5b95976f367423d0b3",
      "title": "Anime girl body low poly"
    },
    "generator": "Sketchfab-15.97.0",
    "version": "2.0"
  },
  "bufferViews": [
    {
      "buffer": 0,
      "byteLength": 12264,
      "name": "floatBufferViews",
      "target": 34963
    },
    {
      "buffer": 0,
      "byteLength": 5232,
      "byteOffset": 12264,
      "byteStride": 8,
      "name": "floatBufferViews",
      "target": 34962
    },
    {
      "buffer": 0,
      "byteLength": 15696,
      "byteOffset": 17496,
      "byteStride": 12,
      "name": "floatBufferViews",
      "target": 34962
    }
  ],
  "buffers": [
    {
      "byteLength": 33192,
      "uri": "scene.bin"
    }
  ],
  "extensionsRequired": [
    "KHR_materials_pbrSpecularGlossiness"
  ],
  "extensionsUsed": [
    "KHR_materials_pbrSpecularGlossiness"
  ],
  "materials": [
    {
      "doubleSided": true,
      "extensions": {
        "KHR_materials_pbrSpecularGlossiness": {
          "diffuseFactor": [
            0.800726,
            0.536545,
            0.219632,
            1.0
          ],
          "glossinessFactor": 0.0,
          "specularFactor": [
            0.0,
            0.0,
            0.0
          ]
        }
      },
      "name": "skin.001"
    }
  ],
  "meshes": [
    {
      "name": "Base_skin.001_0",
      "primitives": [
        {
          "attributes": {
            "NORMAL": 1,
            "POSITION": 0,
            "TEXCOORD_0": 2
          },
          "indices": 3,
          "material": 0,
          "mode": 4
        }
      ]
    }
  ],
  "nodes": [
    {
      "children": [
        1
      ],
      "matrix": [
        1.0177510976791382,
        0.0,
        0.0,
        0.0,
        0.0,
        2.259861403961812e-16,
        -1.0177510976791382,
        0.0,
        0.0,
        1.0177510976791382,
        2.259861403961812e-16,
        0.0,
        0.0,
        0.0,
        0.0,
        1.0
      ],
      "name": "Sketchfab_model"
    },
    {
      "children": [
        2
      ],
      "matrix": [
        0.009999999776482582,
        0.0,
        0.0,
        0.0,
        0.0,
        0.0,
        0.009999999776482582,
        0.0,
        0.0,
        -0.009999999776482582,
        0.0,
        0.0,
        0.0,
        0.0,
        0.0,
        1.0
      ],
      "name": "73a7b21c72ab418698d77a0af94db1c3.fbx"
    },
    {
      "children": [
        3
      ],
      "name": "RootNode"
    },
    {
      "children": [
        4
      ],
      "matrix": [
        7.039262294769287,
        0.0,
        0.0,
        0.0,
        0.0,
        -1.1468413954811144e-06,
        -7.039262294769194,
        0.0,
        0.0,
        7.039262294769194,
        -1.1468413954811144e-06,
        0.0,
        0.0,
        0.0,
        0.0,
        1.0
      ],
      "name": "Base"
    },
    {
      "mesh": 0,
      "name": "Base_skin.001_0"
    }
  ],
  "scene": 0,
  "scenes": [
    {
      "name": "Sketchfab_Scene",
      "nodes": [
        0
      ]
    }
  ]
}
