{
  "accessors": [
    {
      "bufferView": 2,
      "componentType": 5126,
      "count": 287,
      "max": [
        0.7999340295791626,
        1.0469609498977661,
        -36.32659912109375
      ],
      "min": [
        -0.7851830124855042,
        -1.0501359701156616,
        -37.127437591552734
      ],
      "type": "VEC3"
    },
    {
      "bufferView": 2,
      "byteOffset": 3444,
      "componentType": 5126,
      "count": 287,
      "max": [
        1.0,
        1.0,
        1.0
      ],
      "min": [
        -1.0,
        -1.0,
        -1.0
      ],
      "type": "VEC3"
    },
    {
      "bufferView": 3,
      "componentType": 5126,
      "count": 287,
      "max": [
        0.9824818968772888,
        0.6969794034957886,
        0.9993910193443298,
        1.0
      ],
      "min": [
        -0.9824641346931458,
        -0.9825454950332642,
        -0.7129172086715698,
        -1.0
      ],
      "type": "VEC4"
    },
    {
      "bufferView": 1,
      "componentType": 5126,
      "count": 287,
      "max": [
        0.9737110137939453,
        0.3210909962654114
      ],
      "min": [
        0.07536499947309494,
        0.09861200302839279
      ],
      "type": "VEC2"
    },
    {
      "bufferView": 0,
      "componentType": 5125,
      "count": 816,
      "type": "SCALAR"
    },
    {
      "bufferView": 2,
      "byteOffset": 6888,
      "componentType": 5126,
      "count": 3632,
      "max": [
        0.801235020160675,
        1.0442750453948975,
        -23.63983917236328
      ],
      "min": [
        -0.7779459953308105,
        -1.0469789505004883,
        -36.313907623291016
      ],
      "type": "VEC3"
    },
    {
      "bufferView": 2,
      "byteOffset": 50472,
      "componentType": 5126,
      "count": 3632,
      "max": [
        0.9997308850288391,
        1.0,
        1.0
      ],
      "min": [
        -0.9997308850288391,
        -1.0,
        -1.0
      ],
      "type": "VEC3"
    },
    {
      "bufferView": 3,
      "byteOffset": 4592,
      "componentType": 5126,
      "count": 3632,
      "max": [
        0.9998491406440735,
        0.9999762773513794,
        0.9998630285263062,
        1.0
      ],
      "min": [
        -0.9998383522033691,
        -0.9999846816062927,
        -0.9999252557754517,
        1.0
      ],
      "type": "VEC4"
    },
    {
      "bufferView": 1,
      "byteOffset": 2296,
      "componentType": 5126,
      "count": 3632,
      "max": [
        0.9984549880027771,
        0.35238099098205566
      ],
      "min": [
        0.001509999972768128,
        0.0015529999509453773
      ],
      "type": "VEC2"
    },
    {
      "bufferView": 0,
      "byteOffset": 3264,
      "componentType": 5125,
      "count": 10080,
      "type": "SCALAR"
    },
    {
      "bufferView": 2,
      "byteOffset": 94056,
      "componentType": 5126,
      "count": 110,
      "max": [
        0.2504110038280487,
        5.746503829956055,
        32.74302673339844
      ],
      "min": [
        -0.237294003367424,
        -0.9219279885292053,
        -19.115266799926758
      ],
      "type": "VEC3"
    },
    {
      "bufferView": 2,
      "byteOffset": 95376,
      "componentType": 5126,
      "count": 110,
      "max": [
        0.9997662305831909,
        0.8317162990570068,
        0.08719801902770996
      ],
      "min": [
        -0.9997852444648743,
        -0.2529030740261078,
        -0.1480019986629486
      ],
      "type": "VEC3"
    },
    {
      "bufferView": 3,
      "byteOffset": 62704,
      "componentType": 5126,
      "count": 110,
      "max": [
        0.5916771292686462,
        0.6807413101196289,
        -0.5764691233634949,
        1.0
      ],
      "min": [
        -0.19280356168746948,
        -0.8108824491500854,
        -0.8180369734764099,
        1.0
      ],
      "type": "VEC4"
    },
    {
      "bufferView": 1,
      "byteOffset": 31352,
      "componentType": 5126,
      "count": 110,
      "max": [
        0.9969720244407654,
        0.9969689846038818
      ],
      "min": [
        0.0018449999624863267,
        0.0018390000332146883
      ],
      "type": "VEC2"
    },
    {
      "bufferView": 0,
      "byteOffset": 43584,
      "componentType": 5125,
      "count": 360,
      "type": "SCALAR"
    },
    {
      "bufferView": 2,
      "byteOffset": 96696,
      "componentType": 5126,
      "count": 98,
      "max": [
        0.8260980248451233,
        1.0982739925384521,
        -22.59516143798828
      ],
      "min": [
        -0.8012719750404358,
        -1.0894290208816528,
        -22.830671310424805
      ],
      "type": "VEC3"
    },
    {
      "bufferView": 2,
      "byteOffset": 97872,
      "componentType": 5126,
      "count": 98,
      "max": [
        1.0,
        1.0,
        1.0
      ],
      "min": [
        -1.0,
        -1.0,
        -1.0
      ],
      "type": "VEC3"
    },
    {
      "bufferView": 3,
      "byteOffset": 64464,
      "componentType": 5126,
      "count": 98,
      "max": [
        0.9873155951499939,
        0.9875845313072205,
        0.0,
        1.0
      ],
      "min": [
        -0.9873155951499939,
        -0.9875670075416565,
        -0.15877065062522888,
        1.0
      ],
      "type": "VEC4"
    },
    {
      "bufferView": 1,
      "byteOffset": 32232,
      "componentType": 5126,
      "count": 98,
      "max": [
        0.9984840154647827,
        0.19189700484275818
      ],
      "min": [
        0.7026339769363403,
        0.057576000690460205
      ],
      "type": "VEC2"
    },
    {
      "bufferView": 0,
      "byteOffset": 45024,
      "componentType": 5125,
      "count": 276,
      "type": "SCALAR"
    },
    {
      "bufferView": 2,
      "byteOffset": 99048,
      "componentType": 5126,
      "count": 286,
      "max": [
        0.7999340295791626,
        1.0469609498977661,
        -22.831501007080078
      ],
      "min": [
        -0.7851830124855042,
        -1.0501359701156616,
        -23.632339477539063
      ],
      "type": "VEC3"
    },
    {
      "bufferView": 2,
      "byteOffset": 102480,
      "componentType": 5126,
      "count": 286,
      "max": [
        1.0,
        1.0,
        1.0
      ],
      "min": [
        -1.0,
        -1.0,
        -1.0
      ],
      "type": "VEC3"
    },
    {
      "bufferView": 3,
      "byteOffset": 66032,
      "componentType": 5126,
      "count": 286,
      "max": [
        0.987284779548645,
        0.9874566793441772,
        0.9471269845962524,
        1.0
      ],
      "min": [
        -0.9873124361038208,
        -0.999971866607666,
        -0.9471269845962524,
        1.0
      ],
      "type": "VEC4"
    },
    {
      "bufferView": 1,
      "byteOffset": 33016,
      "componentType": 5126,
      "count": 286,
      "max": [
        0.976161003112793,
        0.2458830028772354
      ],
      "min": [
        0.017261000350117683,
        0.0015069999499246478
      ],
      "type": "VEC2"
    },
    {
      "bufferView": 0,
      "byteOffset": 46128,
      "componentType": 5125,
      "count": 816,
      "type": "SCALAR"
    },
    {
      "bufferView": 2,
      "byteOffset": 105912,
      "componentType": 5126,
      "count": 253,
      "max": [
        0.8176940083503723,
        1.0642939805984497,
        -37.03525924682617
      ],
      "min": [
        -0.8045769929885864,
        -1.0642939805984497,
        -39.09886169433594
      ],
      "type": "VEC3"
    },
    {
      "bufferView": 2,
      "byteOffset": 108948,
      "componentType": 5126,
      "count": 253,
      "max": [
        1.0,
        1.0,
        1.0
      ],
      "min": [
        -1.0,
        -1.0,
        -0.989679753780365
      ],
      "type": "VEC3"
    },
    {
      "bufferView": 3,
      "byteOffset": 70608,
      "componentType": 5126,
      "count": 253,
      "max": [
        1.0,
        1.0,
        0.9947049617767334,
        1.0
      ],
      "min": [
        -1.0,
        -1.0,
        -0.9947060942649841,
        1.0
      ],
      "type": "VEC4"
    },
    {
      "bufferView": 1,
      "byteOffset": 35304,
      "componentType": 5126,
      "count": 253,
      "max": [
        0.8876519799232483,
        0.17240199446678162
      ],
      "min": [
        0.17586100101470947,
        0.0015010000206530094
      ],
      "type": "VEC2"
    },
    {
      "bufferView": 0,
      "byteOffset": 49392,
      "componentType": 5125,
      "count": 708,
      "type": "SCALAR"
    },
    {
      "bufferView": 2,
      "byteOffset": 111984,
      "componentType": 5126,
      "count": 100,
      "max": [
        0.7665590047836304,
        1.0196499824523926,
        -21.732215881347656
      ],
      "min": [
        -0.7534409761428833,
        -1.0196510553359985,
        -37.045989990234375
      ],
      "type": "VEC3"
    },
    {
      "bufferView": 2,
      "byteOffset": 113184,
      "componentType": 5126,
      "count": 100,
      "max": [
        1.0,
        1.0,
        0.0
      ],
      "min": [
        -1.0,
        -1.0,
        0.0
      ],
      "type": "VEC3"
    },
    {
      "bufferView": 3,
      "byteOffset": 74656,
      "componentType": 5126,
      "count": 100,
      "max": [
        0.7016485929489136,
        0.7054126262664795,
        -0.7087969183921814,
        1.0
      ],
      "min": [
        -0.7016100883483887,
        -0.7054121494293213,
        -1.0,
        1.0
      ],
      "type": "VEC4"
    },
    {
      "bufferView": 1,
      "byteOffset": 37328,
      "componentType": 5126,
      "count": 100,
      "max": [
        0.7521889805793762,
        0.35323700308799744
      ],
      "min": [
        0.16532400250434875,
        0.0015040000434964895
      ],
      "type": "VEC2"
    },
    {
      "bufferView": 0,
      "byteOffset": 52224,
      "componentType": 5125,
      "count": 288,
      "type": "SCALAR"
    },
    {
      "bufferView": 2,
      "byteOffset": 114384,
      "componentType": 5126,
      "count": 74,
      "max": [
        0.6300110220909119,
        1.0714279413223267,
        -20.9174861907959
      ],
      "min": [
        -0.6142920255661011,
        -1.0553950071334839,
        -21.16161346435547
      ],
      "type": "VEC3"
    },
    {
      "bufferView": 2,
      "byteOffset": 115272,
      "componentType": 5126,
      "count": 74,
      "max": [
        1.0,
        1.0,
        1.0
      ],
      "min": [
        -1.0,
        -1.0,
        -0.0
      ],
      "type": "VEC3"
    },
    {
      "bufferView": 3,
      "byteOffset": 76256,
      "componentType": 5126,
      "count": 74,
      "max": [
        0.9642912149429321,
        0.9657377004623413,
        0.2649763524532318,
        1.0
      ],
      "min": [
        -0.9642791152000427,
        -0.9657377600669861,
        0.0,
        1.0
      ],
      "type": "VEC4"
    },
    {
      "bufferView": 1,
      "byteOffset": 38128,
      "componentType": 5126,
      "count": 74,
      "max": [
        0.896140992641449,
        0.20030400156974792
      ],
      "min": [
        0.6165549755096436,
        0.12164799869060516
      ],
      "type": "VEC2"
    },
    {
      "bufferView": 0,
      "byteOffset": 53376,
      "componentType": 5125,
      "count": 210,
      "type": "SCALAR"
    },
    {
      "bufferView": 2,
      "byteOffset": 116160,
      "componentType": 5126,
      "count": 74,
      "max": [
        0.8309999704360962,
        1.0679069757461548,
        -21.61134147644043
      ],
      "min": [
        -0.8089380264282227,
        -1.0631400346755981,
        -21.858577728271484
      ],
      "type": "VEC3"
    },
    {
      "bufferView": 2,
      "byteOffset": 117048,
      "componentType": 5126,
      "count": 74,
      "max": [
        1.0,
        1.0,
        -0.0
      ],
      "min": [
        -1.0,
        -1.0,
        -1.0
      ],
      "type": "VEC3"
    },
    {
      "bufferView": 3,
      "byteOffset": 77440,
      "componentType": 5126,
      "count": 74,
      "max": [
        0.9649814367294312,
        0.9655857086181641,
        0.26232287287712097,
        1.0
      ],
      "min": [
        -0.9774224758148193,
        -0.965585470199585,
        0.0,
        1.0
      ],
      "type": "VEC4"
    },
    {
      "bufferView": 1,
      "byteOffset": 38720,
      "componentType": 5126,
      "count": 74,
      "max": [
        0.7985100150108337,
        0.19514200091362
      ],
      "min": [
        0.5996569991111755,
        0.051559001207351685
      ],
      "type": "VEC2"
    },
    {
      "bufferView": 0,
      "byteOffset": 54216,
      "componentType": 5125,
      "count": 210,
      "type": "SCALAR"
    },
    {
      "bufferView": 2,
      "byteOffset": 117936,
      "componentType": 5126,
      "count": 1024,
      "max": [
        3.4676849842071533,
        3.461313009262085,
        -21.13515281677246
      ],
      "min": [
        -3.459665060043335,
        -3.4660379886627197,
        -21.618501663208008
      ],
      "type": "VEC3"
    },
    {
      "bufferView": 2,
      "byteOffset": 130224,
      "componentType": 5126,
      "count": 1024,
      "max": [
        0.9999604821205139,
        0.9999604821205139,
        1.0
      ],
      "min": [
        -0.9999604821205139,
        -0.9999604821205139,
        -1.0
      ],
      "type": "VEC3"
    },
    {
      "bufferView": 3,
      "byteOffset": 78624,
      "componentType": 5126,
      "count": 1024,
      "max": [
        0.9995500445365906,
        0.9996763467788696,
        0.9993981719017029,
        1.0
      ],
      "min": [
        -0.9993975162506104,
        -0.9783401489257813,
        -0.9999998807907104,
        1.0
      ],
      "type": "VEC4"
    },
    {
      "bufferView": 1,
      "byteOffset": 39312,
      "componentType": 5126,
      "count": 1024,
      "max": [
        0.9976699948310852,
        0.353532999753952
      ],
      "min": [
        0.0015539999585598707,
        0.001496999990195036
      ],
      "type": "VEC2"
    },
    {
      "bufferView": 0,
      "byteOffset": 55056,
      "componentType": 5125,
      "count": 3156,
      "type": "SCALAR"
    },
    {
      "bufferView": 2,
      "byteOffset": 142512,
      "componentType": 5126,
      "count": 118,
      "max": [
        0.3009659945964813,
        1.0016169548034668,
        -19.100154876708984
      ],
      "min": [
        -0.2793999910354614,
        -0.9496399760246277,
        -20.999324798583984
      ],
      "type": "VEC3"
    },
    {
      "bufferView": 2,
      "byteOffset": 143928,
      "componentType": 5126,
      "count": 118,
      "max": [
        0.999770998954773,
        0.9156331419944763,
        1.0
      ],
      "min": [
        -0.999770998954773,
        -0.7430902123451233,
        -0.0
      ],
      "type": "VEC3"
    },
    {
      "bufferView": 3,
      "byteOffset": 95008,
      "componentType": 5126,
      "count": 118,
      "max": [
        0.7090860605239868,
        0.7011968493461609,
        0.7188976407051086,
        1.0
      ],
      "min": [
        -0.7430902719497681,
        -0.7608274817466736,
        -1.0,
        1.0
      ],
      "type": "VEC4"
    },
    {
      "bufferView": 1,
      "byteOffset": 47504,
      "componentType": 5126,
      "count": 118,
      "max": [
        0.832850992679596,
        0.2909330129623413
      ],
      "min": [
        0.0014990000054240227,
        0.002116000046953559
      ],
      "type": "VEC2"
    },
    {
      "bufferView": 0,
      "byteOffset": 67680,
      "componentType": 5125,
      "count": 414,
      "type": "SCALAR"
    }
  ],
  "asset": {
    "extras": {
      "author": "Andrey 3D (https://sketchfab.com/Andrey3Ds)",
      "license": "CC-BY-4.0 (http://creativecommons.org/licenses/by/4.0/)",
      "source": "https://sketchfab.com/3d-models/katana-low-poly-26e4d48383db4ab4893bc6424383cd61",
      "title": "Katana (low poly)"
    },
    "generator": "Sketchfab-16.59.0",
    "version": "2.0"
  },
  "bufferViews": [
    {
      "buffer": 0,
      "byteLength": 69336,
      "name": "floatBufferViews",
      "target": 34963
    },
    {
      "buffer": 0,
      "byteLength": 48448,
      "byteOffset": 69336,
      "byteStride": 8,
      "name": "floatBufferViews",
      "target": 34962
    },
    {
      "buffer": 0,
      "byteLength": 145344,
      "byteOffset": 117784,
      "byteStride": 12,
      "name": "floatBufferViews",
      "target": 34962
    },
    {
      "buffer": 0,
      "byteLength": 96896,
      "byteOffset": 263128,
      "byteStride": 16,
      "name": "floatBufferViews",
      "target": 34962
    }
  ],
  "buffers": [
    {
      "byteLength": 360024,
      "uri": "scene.bin"
    }
  ],
  "images": [
    {
      "uri": "textures/Material_baseColor.jpeg"
    },
    {
      "uri": "textures/Material_metallicRoughness.png"
    },
    {
      "uri": "textures/Material_normal.png"
    }
  ],
  "materials": [
    {
      "doubleSided": true,
      "name": "Material",
      "normalTexture": {
        "index": 2
      },
      "occlusionTexture": {
        "index": 1
      },
      "pbrMetallicRoughness": {
        "baseColorTexture": {
          "index": 0
        },
        "metallicRoughnessTexture": {
          "index": 1
        }
      }
    }
  ],
  "meshes": [
    {
      "name": "defaultMaterial",
      "primitives": [
        {
          "attributes": {
            "NORMAL": 1,
            "POSITION": 0,
            "TANGENT": 2,
            "TEXCOORD_0": 3
          },
          "indices": 4,
          "material": 0,
          "mode": 4
        }
      ]
    },
    {
      "name": "defaultMaterial",
      "primitives": [
        {
          "attributes": {
            "NORMAL": 6,
            "POSITION": 5,
            "TANGENT": 7,
            "TEXCOORD_0": 8
          },
          "indices": 9,
          "material": 0,
          "mode": 4
        }
      ]
    },
    {
      "name": "defaultMaterial",
      "primitives": [
        {
          "attributes": {
            "NORMAL": 11,
            "POSITION": 10,
            "TANGENT": 12,
            "TEXCOORD_0": 13
          },
          "indices": 14,
          "material": 0,
          "mode": 4
        }
      ]
    },
    {
      "name": "defaultMaterial",
      "primitives": [
        {
          "attributes": {
            "NORMAL": 16,
            "POSITION": 15,
            "TANGENT": 17,
            "TEXCOORD_0": 18
          },
          "indices": 19,
          "material": 0,
          "mode": 4
        }
      ]
    },
    {
      "name": "defaultMaterial",
      "primitives": [
        {
          "attributes": {
            "NORMAL": 21,
            "POSITION": 20,
            "TANGENT": 22,
            "TEXCOORD_0": 23
          },
          "indices": 24,
          "material": 0,
          "mode": 4
        }
      ]
    },
    {
      "name": "defaultMaterial",
      "primitives": [
        {
          "attributes": {
            "NORMAL": 26,
            "POSITION": 25,
            "TANGENT": 27,
            "TEXCOORD_0": 28
          },
          "indices": 29,
          "material": 0,
          "mode": 4
        }
      ]
    },
    {
      "name": "defaultMaterial",
      "primitives": [
        {
          "attributes": {
            "NORMAL": 31,
            "POSITION": 30,
            "TANGENT": 32,
            "TEXCOORD_0": 33
          },
          "indices": 34,
          "material": 0,
          "mode": 4
        }
      ]
    },
    {
      "name": "defaultMaterial",
      "primitives": [
        {
          "attributes": {
            "NORMAL": 36,
            "POSITION": 35,
            "TANGENT": 37,
            "TEXCOORD_0": 38
          },
          "indices": 39,
          "material": 0,
          "mode": 4
        }
      ]
    },
    {
      "name": "defaultMaterial",
      "primitives": [
        {
          "attributes": {
            "NORMAL": 41,
            "POSITION": 40,
            "TANGENT": 42,
            "TEXCOORD_0": 43
          },
          "indices": 44,
          "material": 0,
          "mode": 4
        }
      ]
    },
    {
      "name": "defaultMaterial",
      "primitives": [
        {
          "attributes": {
            "NORMAL": 46,
            "POSITION": 45,
            "TANGENT": 47,
            "TEXCOORD_0": 48
          },
          "indices": 49,
          "material": 0,
          "mode": 4
        }
      ]
    },
    {
      "name": "defaultMaterial",
      "primitives": [
        {
          "attributes": {
            "NORMAL": 51,
            "POSITION": 50,
            "TANGENT": 52,
            "TEXCOORD_0": 53
          },
          "indices": 54,
          "material": 0,
          "mode": 4
        }
      ]
    }
  ],
  "nodes": [
    {
      "children": [
        1
      ],
      "matrix": [
        1.0,
        1.6081226229577292e-16,
        5.356124287284811e-32,
        0.0,
        -8.006836424271825e-33,
        3.828568672208042e-16,
        -1.0,
        0.0,
        -1.6081226229577292e-16,
        1.0,
        3.828568672208042e-16,
        0.0,
        0.0,
        0.0,
        0.0,
        1.0
      ],
      "name": "Sketchfab_model"
    },
    {
      "children": [
        2,
        4,
        6,
        8,
        10,
        12,
        14,
        16,
        18,
        20,
        22
      ],
      "matrix": [
        1.0,
        0.0,
        0.0,
        0.0,
        0.0,
        -4.371139006309477e-08,
        0.999999999999999,
        0.0,
        0.0,
        -0.999999999999999,
        -4.371139006309477e-08,
        0.0,
        0.0,
        0.0,
        0.0,
        1.0
      ],
      "name": "Collada visual scene group"
    },
    {
      "children": [
        3
      ],
      "name": "Same1_low"
    },
    {
      "mesh": 0,
      "name": "defaultMaterial"
    },
    {
      "children": [
        5
      ],
      "name": "Same_low"
    },
    {
      "mesh": 1,
      "name": "defaultMaterial"
    },
    {
      "children": [
        7
      ],
      "name": "Blade_low"
    },
    {
      "mesh": 2,
      "name": "defaultMaterial"
    },
    {
      "children": [
        9
      ],
      "name": "Tsuka3_low"
    },
    {
      "mesh": 3,
      "name": "defaultMaterial"
    },
    {
      "children": [
        11
      ],
      "name": "Same2_low"
    },
    {
      "mesh": 4,
      "name": "defaultMaterial"
    },
    {
      "children": [
        13
      ],
      "name": "Kasira_low"
    },
    {
      "mesh": 5,
      "name": "defaultMaterial"
    },
    {
      "children": [
        15
      ],
      "name": "Tsuba_low"
    },
    {
      "mesh": 6,
      "name": "defaultMaterial"
    },
    {
      "children": [
        17
      ],
      "name": "Tsuka2_low"
    },
    {
      "mesh": 7,
      "name": "defaultMaterial"
    },
    {
      "children": [
        19
      ],
      "name": "Tsuka1_low"
    },
    {
      "mesh": 8,
      "name": "defaultMaterial"
    },
    {
      "children": [
        21
      ],
      "name": "Tsuba1_low"
    },
    {
      "mesh": 9,
      "name": "defaultMaterial"
    },
    {
      "children": [
        23
      ],
      "name": "Hamon_low"
    },
    {
      "mesh": 10,
      "name": "defaultMaterial"
    }
  ],
  "samplers": [
    {
      "magFilter": 9729,
      "minFilter": 9987,
      "wrapS": 10497,
      "wrapT": 10497
    }
  ],
  "scene": 0,
  "scenes": [
    {
      "name": "Sketchfab_Scene",
      "nodes": [
        0
      ]
    }
  ],
  "textures": [
    {
      "sampler": 0,
      "source": 0
    },
    {
      "sampler": 0,
      "source": 1
    },
    {
      "sampler": 0,
      "source": 2
    }
  ]
}
