{
  "accessors": [
    {
      "bufferView": 3,
      "componentType": 5126,
      "count": 2541,
      "max": [
        1.4325923919677734,
        7.696437835693359,
        0.5995248556137085
      ],
      "min": [
        -1.4325923919677734,
        -1.6763806343078613e-08,
        -0.5983133912086487
      ],
      "type": "VEC3"
    },
    {
      "bufferView": 3,
      "byteOffset": 30492,
      "componentType": 5126,
      "count": 2541,
      "max": [
        0.9999208450317383,
        0.9997374415397644,
        0.999981701374054
      ],
      "min": [
        -0.9999208450317383,
        -1.0,
        -0.9998124241828918
      ],
      "type": "VEC3"
    },
    {
      "bufferView": 4,
      "componentType": 5126,
      "count": 2541,
      "max": [
        0.99993896484375,
        0.9999051094055176,
        0.9998647570610046,
        1.0
      ],
      "min": [
        -0.99993896484375,
        -0.9998123645782471,
        -0.9998818039894104,
        -1.0
      ],
      "type": "VEC4"
    },
    {
      "bufferView": 2,
      "componentType": 5126,
      "count": 2541,
      "max": [
        0.9969464540481567,
        0.9971122741699219
      ],
      "min": [
        0.00014613568782806396,
        0.005968721583485603
      ],
      "type": "VEC2"
    },
    {
      "bufferView": 1,
      "componentType": 5125,
      "count": 8988,
      "type": "SCALAR"
    },
    {
      "bufferView": 5,
      "componentType": 5126,
      "count": 23,
      "max": [
        1.0,
        0.3110177218914032,
        1.0,
        0.0,
        0.9997041821479797,
        1.0,
        0.23053927719593048,
        0.0,
        0.7695038318634033,
        0.9999439716339111,
        1.0,
        0.0,
        5.656803607940674,
        5.936394691467285,
        2.1273908615112305,
        1.0
      ],
      "min": [
        -0.022303787991404533,
        -0.017832696437835693,
        -0.9732664227485657,
        0.0,
        -0.9997041821479797,
        -0.9504041075706482,
        -0.23053602874279022,
        0.0,
        -0.7695043683052063,
        -0.9999440312385559,
        -0.9990901947021484,
        0.0,
        -6.398813247680664,
        -5.936394691467285,
        -2.1274030208587646,
        1.0
      ],
      "type": "MAT4"
    },
    {
      "bufferView": 0,
      "componentType": 5123,
      "count": 2541,
      "type": "VEC4"
    },
    {
      "bufferView": 4,
      "byteOffset": 40656,
      "componentType": 5126,
      "count": 2541,
      "max": [
        1.0,
        0.5,
        0.27153295278549194,
        0.1867554634809494
      ],
      "min": [
        0.34698089957237244,
        0.0,
        0.0,
        0.0
      ],
      "type": "VEC4"
    }
  ],
  "asset": {
    "extras": {
      "author": "Greggory_Fisher (https://sketchfab.com/Greggory_Fisher)",
      "license": "CC-BY-4.0 (http://creativecommons.org/licenses/by/4.0/)",
      "source": "https://sketchfab.com/3d-models/low-poly-western-style-anime-sci-fi-character-817d68177fd747cf914f94c50edd4441",
      "title": "Low-Poly Western Style Anime Sci-Fi Character"
    },
    "generator": "Sketchfab-14.64.0",
    "version": "2.0"
  },
  "bufferViews": [
    {
      "buffer": 0,
      "byteLength": 20328,
      "byteStride": 8,
      "name": "shortBufferViews",
      "target": 34962
    },
    {
      "buffer": 0,
      "byteLength": 35952,
      "byteOffset": 20328,
      "name": "floatBufferViews",
      "target": 34963
    },
    {
      "buffer": 0,
      "byteLength": 20328,
      "byteOffset": 56280,
      "byteStride": 8,
      "name": "floatBufferViews",
      "target": 34962
    },
    {
      "buffer": 0,
      "byteLength": 60984,
      "byteOffset": 76608,
      "byteStride": 12,
      "name": "floatBufferViews",
      "target": 34962
    },
    {
      "buffer": 0,
      "byteLength": 81312,
      "byteOffset": 137592,
      "byteStride": 16,
      "name": "floatBufferViews",
      "target": 34962
    },
    {
      "buffer": 0,
      "byteLength": 1472,
      "byteOffset": 218904,
      "name": "floatBufferViews"
    }
  ],
  "buffers": [
    {
      "byteLength": 220376,
      "uri": "tf.bin"
    }
  ],
  "extensionsRequired": [
    "KHR_materials_pbrSpecularGlossiness"
  ],
  "extensionsUsed": [
    "KHR_materials_pbrSpecularGlossiness"
  ],
  "images": [
    {
      "uri": "textures/M_Character_diffuse.png"
    },
    {
      "uri": "textures/M_Character_specularGlossiness.png"
    },
    {
      "uri": "textures/M_Character_normal.png"
    },
    {
      "uri": "textures/M_Character_occlusion.png"
    }
  ],
  "materials": [
    {
      "extensions": {
        "KHR_materials_pbrSpecularGlossiness": {
          "diffuseFactor": [
            1.0,
            1.0,
            1.0,
            1.0
          ],
          "diffuseTexture": {
            "index": 0
          },
          "glossinessFactor": 0.25,
          "specularFactor": [
            0.5,
            0.5,
            0.5
          ],
          "specularGlossinessTexture": {
            "index": 1
          }
        }
      },
      "name": "M_Character",
      "normalTexture": {
        "index": 2
      },
      "occlusionTexture": {
        "index": 3
      }
    }
  ],
  "meshes": [
    {
      "name": "SM_Anime_Sci_Fi_Character_Posed_M_Character_0",
      "primitives": [
        {
          "attributes": {
            "JOINTS_0": 6,
            "NORMAL": 1,
            "POSITION": 0,
            "TANGENT": 2,
            "TEXCOORD_0": 3,
            "TEXCOORD_1": 3,
            "TEXCOORD_2": 3,
            "TEXCOORD_3": 3,
            "WEIGHTS_0": 7
          },
          "indices": 4,
          "material": 0,
          "mode": 4
        }
      ]
    }
  ],
  "nodes": [
    {
      "children": [
        1
      ],
      "matrix": [
        1.0,
        0.0,
        0.0,
        0.0,
        0.0,
        2.220446049250313e-16,
        -1.0,
        0.0,
        0.0,
        1.0,
        2.220446049250313e-16,
        0.0,
        0.0,
        0.0,
        0.0,
        1.0
      ],
      "name": "Sketchfab_model"
    },
    {
      "children": [
        2
      ],
      "matrix": [
        0.009999999776482582,
        0.0,
        0.0,
        0.0,
        0.0,
        0.0,
        0.009999999776482582,
        0.0,
        0.0,
        -0.009999999776482582,
        0.0,
        0.0,
        0.0,
        0.0,
        0.0,
        1.0
      ],
      "name": "8956762b4ef443c1b47d745635a94eff.fbx"
    },
    {
      "children": [
        3
      ],
      "name": "RootNode"
    },
    {
      "children": [
        4
      ],
      "matrix": [
        1.0,
        0.0,
        0.0,
        0.0,
        0.0,
        1.0,
        0.0,
        0.0,
        0.0,
        0.0,
        1.0,
        0.0,
        0.0,
        -1.6763806343078613e-08,
        0.0006057322025299072,
        1.0
      ],
      "name": "QuickRigCharacter_Reference"
    },
    {
      "children": [
        5,
        7,
        6
      ],
      "name": "Object_4"
    },
    {
      "children": [
        8
      ],
      "name": "_rootJoint"
    },
    {
      "matrix": [
        1.0,
        -1.232595164407831e-32,
        1.232595164407831e-32,
        0.0,
        1.232595164407831e-32,
        1.0,
        -4.0821696269448764e-33,
        0.0,
        -1.232595164407831e-32,
        4.0821696269448764e-33,
        1.0,
        0.0,
        0.0,
        4.440892098500626e-16,
        -4.163336342344337e-17,
        1.0
      ],
      "name": "Object_6"
    },
    {
      "mesh": 0,
      "name": "Object_7",
      "skin": 0
    },
    {
      "children": [
        9,
        13,
        17
      ],
      "name": "QuickRigCharacter_Hips_00",
      "rotation": [
        0.5228643417358398,
        0.47603875398635864,
        0.5228643417358398,
        0.47603875398635864
      ],
      "translation": [
        0.1665605902671814,
        3.232333183288574,
        -0.08736574649810791
      ]
    },
    {
      "children": [
        10
      ],
      "name": "QuickRigCharacter_LeftUpLeg_01",
      "rotation": [
        0.19260510802268982,
        -0.08949117362499237,
        0.9760668277740479,
        -0.0467798113822937
      ],
      "translation": [
        -0.08179184049367905,
        0.024437496438622475,
        0.3841031789779663
      ]
    },
    {
      "children": [
        11
      ],
      "name": "QuickRigCharacter_LeftLeg_02",
      "rotation": [
        0.06604494899511337,
        0.01649794727563858,
        0.24083390831947327,
        0.9681761860847473
      ],
      "translation": [
        1.4059219360351563,
        2.301125459780451e-05,
        -4.754024848807603e-05
      ]
    },
    {
      "children": [
        12
      ],
      "name": "QuickRigCharacter_LeftFoot_03",
      "rotation": [
        -0.022120431065559387,
        0.14595726132392883,
        -0.698223888874054,
        0.7004930973052979
      ],
      "translation": [
        1.9468975067138672,
        -1.134943522629328e-05,
        1.3016415323363617e-06
      ]
    },
    {
      "name": "QuickRigCharacter_LeftToeBase_04",
      "rotation": [
        -7.703719777548943e-34,
        -6.938893903907228e-18,
        -1.1102230246251565e-16,
        1.0
      ],
      "translation": [
        0.5823253989219666,
        -2.1901249169786752e-07,
        3.861551363115723e-07
      ]
    },
    {
      "children": [
        14
      ],
      "name": "QuickRigCharacter_RightUpLeg_05",
      "rotation": [
        -0.06876236945390701,
        -0.1798166036605835,
        -0.42816653847694397,
        0.8829560279846191
      ],
      "translation": [
        -0.08179184049367905,
        0.024437496438622475,
        -0.3841031491756439
      ]
    },
    {
      "children": [
        15
      ],
      "name": "QuickRigCharacter_RightLeg_06",
      "rotation": [
        0.07208246737718582,
        0.0386175699532032,
        0.46487492322921753,
        0.881591796875
      ],
      "translation": [
        -1.405922293663025,
        2.9998051104485057e-05,
        5.6923177908174694e-05
      ]
    },
    {
      "children": [
        16
      ],
      "name": "QuickRigCharacter_RightFoot_07",
      "rotation": [
        -0.004288796801120043,
        0.13343499600887299,
        -0.5007613301277161,
        0.8552279472351074
      ],
      "translation": [
        -1.946895718574524,
        1.0336209470551694e-06,
        -1.4235085643576895e-07
      ]
    },
    {
      "name": "QuickRigCharacter_RightToeBase_08",
      "rotation": [
        2.5426641514059156e-05,
        1.1420148382512707e-08,
        -2.9029274643821434e-13,
        1.0
      ],
      "translation": [
        -0.5823255777359009,
        -6.160986032455185e-08,
        6.907609417794447e-08
      ]
    },
    {
      "children": [
        18
      ],
      "name": "QuickRigCharacter_Spine_09",
      "rotation": [
        0.00012489854998420924,
        0.002193455584347248,
        0.07997995615005493,
        0.9967941641807556
      ],
      "translation": [
        0.5937171578407288,
        -1.6265056501651998e-07,
        2.7755575615628914e-17
      ]
    },
    {
      "children": [
        19
      ],
      "name": "QuickRigCharacter_Spine1_010",
      "rotation": [
        0.0004265987954568118,
        0.0015075260307639837,
        0.08256247639656067,
        0.9965846538543701
      ],
      "translation": [
        0.5534573197364807,
        6.003857322411932e-08,
        2.5826533800454854e-08
      ]
    },
    {
      "children": [
        20,
        24,
        28
      ],
      "name": "QuickRigCharacter_Spine2_011",
      "rotation": [
        0.0002809897414408624,
        0.001540902885608375,
        0.018887797370553017,
        0.9998204112052917
      ],
      "translation": [
        0.5399467945098877,
        -1.1276550537786534e-07,
        8.279725705051533e-08
      ]
    },
    {
      "children": [
        21
      ],
      "name": "QuickRigCharacter_LeftShoulder_012",
      "rotation": [
        0.40240707993507385,
        0.5986107587814331,
        0.5461433529853821,
        -0.42598259449005127
      ],
      "translation": [
        0.6270995140075684,
        -0.04070817306637764,
        0.29227161407470703
      ]
    },
    {
      "children": [
        22
      ],
      "name": "QuickRigCharacter_LeftArm_013",
      "rotation": [
        0.6529696583747864,
        -0.18414725363254547,
        -0.36543625593185425,
        0.6373199820518494
      ],
      "translation": [
        0.4998124837875366,
        -2.5674214043647225e-07,
        4.351845461769699e-08
      ]
    },
    {
      "children": [
        23
      ],
      "name": "QuickRigCharacter_LeftForeArm_014",
      "rotation": [
        -2.2164022084325552e-05,
        0.0004968845169059932,
        0.26915252208709717,
        0.9630974531173706
      ],
      "translation": [
        0.8929929733276367,
        8.370901923626661e-06,
        -3.1988594855647534e-05
      ]
    },
    {
      "name": "QuickRigCharacter_LeftHand_015",
      "rotation": [
        0.00018961842579301447,
        -9.442381099233899e-09,
        -4.979675213689916e-05,
        1.0
      ],
      "translation": [
        1.289236307144165,
        -9.02486590348417e-06,
        -2.178109639316972e-07
      ]
    },
    {
      "children": [
        25
      ],
      "name": "QuickRigCharacter_RightShoulder_016",
      "rotation": [
        0.6523488759994507,
        -0.47217637300491333,
        0.33851414918899536,
        0.48672249913215637
      ],
      "translation": [
        0.6270991563796997,
        -0.040707942098379135,
        -0.2922714352607727
      ]
    },
    {
      "children": [
        26
      ],
      "name": "QuickRigCharacter_RightArm_017",
      "rotation": [
        0.7463160157203674,
        -0.20762257277965546,
        -0.1802966445684433,
        0.6061339378356934
      ],
      "translation": [
        -0.4998127520084381,
        1.8385915012686382e-09,
        -1.1460915771976943e-07
      ]
    },
    {
      "children": [
        27
      ],
      "name": "QuickRigCharacter_RightForeArm_018",
      "rotation": [
        5.243353371042758e-05,
        0.0008589056669734418,
        0.20502033829689026,
        0.9787573218345642
      ],
      "translation": [
        -0.8929934501647949,
        -2.7061350920121185e-05,
        2.1094305338920094e-05
      ]
    },
    {
      "name": "QuickRigCharacter_RightHand_019",
      "rotation": [
        0.39713549613952637,
        -0.018258320167660713,
        0.042041853070259094,
        0.9166147112846375
      ],
      "translation": [
        -1.2892359495162964,
        7.218568043754203e-06,
        6.292361121040813e-08
      ]
    },
    {
      "children": [
        29
      ],
      "name": "QuickRigCharacter_Neck_020",
      "rotation": [
        0.20903994143009186,
        -0.03341575711965561,
        -0.232330322265625,
        0.9493198990821838
      ],
      "translation": [
        0.5031722784042358,
        -1.508518039372575e-06,
        9.481224338969696e-08
      ]
    },
    {
      "name": "QuickRigCharacter_Head_021",
      "rotation": [
        0.21852919459342957,
        0.028508644551038742,
        -0.21306319534778595,
        0.9518594145774841
      ],
      "translation": [
        0.47013816237449646,
        -1.4743250176252332e-07,
        1.1521820653115356e-07
      ]
    }
  ],
  "samplers": [
    {
      "magFilter": 9729,
      "minFilter": 9987,
      "wrapS": 10497,
      "wrapT": 10497
    }
  ],
  "scene": 0,
  "scenes": [
    {
      "name": "Sketchfab_Scene",
      "nodes": [
        0
      ]
    }
  ],
  "skins": [
    {
      "inverseBindMatrices": 5,
      "joints": [
        5,
        8,
        9,
        10,
        11,
        12,
        13,
        14,
        15,
        16,
        17,
        18,
        19,
        20,
        21,
        22,
        23,
        24,
        25,
        26,
        27,
        28,
        29
      ],
      "skeleton": 5
    }
  ],
  "textures": [
    {
      "sampler": 0,
      "source": 0
    },
    {
      "sampler": 0,
      "source": 1
    },
    {
      "sampler": 0,
      "source": 2
    },
    {
      "sampler": 0,
      "source": 3
    }
  ]
}
