{
  "accessors": [
    {
      "bufferView": 2,
      "componentType": 5126,
      "count": 11868,
      "max": [
        0.8548420071601868,
        0.2518239915370941,
        1.813735008239746
      ],
      "min": [
        -0.8543220162391663,
        -0.2544560134410858,
        0.0
      ],
      "type": "VEC3"
    },
    {
      "bufferView": 2,
      "byteOffset": 142416,
      "componentType": 5126,
      "count": 11868,
      "max": [
        0.9999958276748657,
        0.9994532465934753,
        0.9994468688964844
      ],
      "min": [
        -0.9999557733535767,
        -0.9994405508041382,
        -0.9996904730796814
      ],
      "type": "VEC3"
    },
    {
      "bufferView": 3,
      "componentType": 5126,
      "count": 11868,
      "max": [
        0.9998406171798706,
        0.9994228482246399,
        0.999783992767334,
        1.0
      ],
      "min": [
        -0.9998264312744141,
        -0.9999940395355225,
        -0.9992238283157349,
        -1.0
      ],
      "type": "VEC4"
    },
    {
      "bufferView": 1,
      "componentType": 5126,
      "count": 11868,
      "max": [
        0.9935460090637207,
        0.9944900274276733
      ],
      "min": [
        0.0060430001467466354,
        0.004999999888241291
      ],
      "type": "VEC2"
    },
    {
      "bufferView": 0,
      "componentType": 5125,
      "count": 11868,
      "type": "SCALAR"
    },
    {
      "bufferView": 2,
      "byteOffset": 284832,
      "componentType": 5126,
      "count": 24448,
      "max": [
        0.8548420071601868,
        0.2531970143318176,
        1.813735008239746
      ],
      "min": [
        -0.8543220162391663,
        -0.2544560134410858,
        0.0
      ],
      "type": "VEC3"
    },
    {
      "bufferView": 2,
      "byteOffset": 578208,
      "componentType": 5126,
      "count": 24448,
      "max": [
        0.9999779462814331,
        0.9999784231185913,
        1.0
      ],
      "min": [
        -0.9999923706054688,
        -0.9999854564666748,
        -1.0
      ],
      "type": "VEC3"
    },
    {
      "bufferView": 3,
      "byteOffset": 189888,
      "componentType": 5126,
      "count": 24448,
      "max": [
        0.9999832510948181,
        0.9999408721923828,
        0.9999905824661255,
        1.0
      ],
      "min": [
        -0.9999035596847534,
        -0.9999425411224365,
        -0.9999760985374451,
        -1.0
      ],
      "type": "VEC4"
    },
    {
      "bufferView": 1,
      "byteOffset": 94944,
      "componentType": 5126,
      "count": 24448,
      "max": [
        0.9950000047683716,
        0.9950000047683716
      ],
      "min": [
        0.004999999888241291,
        0.005022000055760145
      ],
      "type": "VEC2"
    },
    {
      "bufferView": 0,
      "byteOffset": 47472,
      "componentType": 5125,
      "count": 47742,
      "type": "SCALAR"
    }
  ],
  "asset": {
    "extras": {
      "author": "gamedevme (https://sketchfab.com/mahensanketh)",
      "license": "CC-BY-4.0 (http://creativecommons.org/licenses/by/4.0/)",
      "source": "https://sketchfab.com/3d-models/low-poly-viking-game-ready-pbr-t-pose-7c10b9ab03c04bfeb076cbcbd1e7daea",
      "title": "Low Poly Viking – Game Ready (PBR & T Pose)"
    },
    "generator": "Sketchfab-16.99.0",
    "version": "2.0"
  },
  "bufferViews": [
    {
      "buffer": 0,
      "byteLength": 238440,
      "name": "floatBufferViews",
      "target": 34963
    },
    {
      "buffer": 0,
      "byteLength": 290528,
      "byteOffset": 238440,
      "byteStride": 8,
      "name": "floatBufferViews",
      "target": 34962
    },
    {
      "buffer": 0,
      "byteLength": 871584,
      "byteOffset": 528968,
      "byteStride": 12,
      "name": "floatBufferViews",
      "target": 34962
    },
    {
      "buffer": 0,
      "byteLength": 581056,
      "byteOffset": 1400552,
      "byteStride": 16,
      "name": "floatBufferViews",
      "target": 34962
    }
  ],
  "buffers": [
    {
      "byteLength": 1981608,
      "uri": "scene.bin"
    }
  ],
  "images": [
    {
      "uri": "textures/material_0_baseColor.png"
    },
    {
      "uri": "textures/material_0_metallicRoughness.png"
    },
    {
      "uri": "textures/material_0_normal.png"
    }
  ],
  "materials": [
    {
      "doubleSided": true,
      "name": "material_0",
      "normalTexture": {
        "index": 2
      },
      "pbrMetallicRoughness": {
        "baseColorTexture": {
          "index": 0
        },
        "metallicRoughnessTexture": {
          "index": 1
        }
      }
    }
  ],
  "meshes": [
    {
      "name": "Object_0",
      "primitives": [
        {
          "attributes": {
            "NORMAL": 1,
            "POSITION": 0,
            "TANGENT": 2,
            "TEXCOORD_0": 3
          },
          "indices": 4,
          "material": 0,
          "mode": 4
        }
      ]
    },
    {
      "name": "Object_1",
      "primitives": [
        {
          "attributes": {
            "NORMAL": 6,
            "POSITION": 5,
            "TANGENT": 7,
            "TEXCOORD_0": 8
          },
          "indices": 9,
          "material": 0,
          "mode": 4
        }
      ]
    }
  ],
  "nodes": [
    {
      "children": [
        1
      ],
      "matrix": [
        1.0,
        0.0,
        0.0,
        0.0,
        0.0,
        2.220446049250313e-16,
        -1.0,
        0.0,
        0.0,
        1.0,
        2.220446049250313e-16,
        0.0,
        0.0,
        0.0,
        0.0,
        1.0
      ],
      "name": "Sketchfab_model"
    },
    {
      "children": [
        2,
        3
      ],
      "name": "base.obj.cleaner.materialmerger.gles"
    },
    {
      "mesh": 0,
      "name": "Object_2"
    },
    {
      "mesh": 1,
      "name": "Object_3"
    }
  ],
  "samplers": [
    {
      "magFilter": 9729,
      "minFilter": 9987,
      "wrapS": 10497,
      "wrapT": 10497
    }
  ],
  "scene": 0,
  "scenes": [
    {
      "name": "Sketchfab_Scene",
      "nodes": [
        0
      ]
    }
  ],
  "textures": [
    {
      "sampler": 0,
      "source": 0
    },
    {
      "sampler": 0,
      "source": 1
    },
    {
      "sampler": 0,
      "source": 2
    }
  ]
}
