{
  "accessors": [
    {
      "bufferView": 3,
      "componentType": 5126,
      "count": 1398,
      "max": [
        940.6783447265625,
        296.76220703125,
        547.4303588867188
      ],
      "min": [
        -468.64752197265625,
        -146.6007080078125,
        -545.7918090820313
      ],
      "type": "VEC3"
    },
    {
      "bufferView": 3,
      "byteOffset": 16776,
      "componentType": 5126,
      "count": 1398,
      "max": [
        0.9993999004364014,
        0.9999681115150452,
        0.999464213848114
      ],
      "min": [
        -0.9999983906745911,
        -0.9998001456260681,
        -0.9995728731155396
      ],
      "type": "VEC3"
    },
    {
      "bufferView": 2,
      "componentType": 5126,
      "count": 1398,
      "max": [
        0.993399977684021,
        0.9925000071525574
      ],
      "min": [
        0.005030000116676092,
        0.007819999940693378
      ],
      "type": "VEC2"
    },
    {
      "bufferView": 1,
      "componentType": 5125,
      "count": 5472,
      "type": "SCALAR"
    },
    {
      "bufferView": 5,
      "componentType": 5126,
      "count": 61,
      "max": [
        1.0,
        1.0,
        1.0,
        0.0,
        1.0,
        1.0,
        0.9995899796485901,
        0.0,
        0.9582899808883667,
        0.9832800030708313,
        1.0,
        0.0,
        419.5420227050781,
        765.01220703125,
        488.4614562988281,
        1.0
      ],
      "min": [
        -1.0,
        -1.0,
        -0.9582800269126892,
        0.0,
        -0.5488399863243103,
        -1.0,
        -0.9995899796485901,
        0.0,
        -0.9999799728393555,
        -0.9832800030708313,
        -1.0,
        0.0,
        -736.3119506835938,
        -412.66876220703125,
        -619.6239624023438,
        1.0
      ],
      "type": "MAT4"
    },
    {
      "bufferView": 0,
      "componentType": 5123,
      "count": 1398,
      "type": "VEC4"
    },
    {
      "bufferView": 4,
      "componentType": 5126,
      "count": 1398,
      "max": [
        1.0,
        0.5,
        0.25,
        0.0
      ],
      "min": [
        0.375,
        0.0,
        0.0,
        0.0
      ],
      "type": "VEC4"
    }
  ],
  "asset": {
    "extras": {
      "author": "lissandroamorarios (https://sketchfab.com/lissandroamorarios)",
      "license": "CC-BY-4.0 (http://creativecommons.org/licenses/by/4.0/)",
      "source": "https://sketchfab.com/3d-models/goofy-a0dc4556d7b441cf9126bbd9cdf2fc23",
      "title": "Goofy"
    },
    "generator": "Sketchfab-13.47.0",
    "version": "2.0"
  },
  "bufferViews": [
    {
      "buffer": 0,
      "byteLength": 11184,
      "byteStride": 8,
      "name": "shortBufferViews",
      "target": 34962
    },
    {
      "buffer": 0,
      "byteLength": 21888,
      "byteOffset": 11184,
      "name": "floatBufferViews",
      "target": 34963
    },
    {
      "buffer": 0,
      "byteLength": 11184,
      "byteOffset": 33072,
      "byteStride": 8,
      "name": "floatBufferViews",
      "target": 34962
    },
    {
      "buffer": 0,
      "byteLength": 33552,
      "byteOffset": 44256,
      "byteStride": 12,
      "name": "floatBufferViews",
      "target": 34962
    },
    {
      "buffer": 0,
      "byteLength": 22368,
      "byteOffset": 77808,
      "byteStride": 16,
      "name": "floatBufferViews",
      "target": 34962
    },
    {
      "buffer": 0,
      "byteLength": 3904,
      "byteOffset": 100176,
      "name": "floatBufferViews"
    }
  ],
  "buffers": [
    {
      "byteLength": 104080,
      "uri": "f.bin"
    }
  ],
  "images": [
    {
      "uri": "textures/Material.001_baseColor.png"
    }
  ],
  "materials": [
    {
      "doubleSided": true,
      "name": "Material.001",
      "pbrMetallicRoughness": {
        "baseColorTexture": {
          "index": 0
        },
        "metallicFactor": 0.3687625596984864,
        "roughnessFactor": 0.0
      }
    }
  ],
  "meshes": [
    {
      "name": "goofy_lod0",
      "primitives": [
        {
          "attributes": {
            "JOINTS_0": 5,
            "NORMAL": 1,
            "POSITION": 0,
            "TEXCOORD_0": 2,
            "WEIGHTS_0": 6
          },
          "indices": 3,
          "material": 0,
          "mode": 4
        }
      ]
    }
  ],
  "nodes": [
    {
      "children": [
        1
      ],
      "matrix": [
        1.0,
        0.0,
        0.0,
        0.0,
        0.0,
        2.220446049250313e-16,
        -1.0,
        0.0,
        0.0,
        1.0,
        2.220446049250313e-16,
        0.0,
        0.0,
        0.0,
        0.0,
        1.0
      ],
      "name": "Sketchfab_model"
    },
    {
      "children": [
        2,
        4
      ],
      "name": "Root"
    },
    {
      "children": [
        3
      ],
      "matrix": [
        1.0,
        0.0,
        0.0,
        0.0,
        0.0,
        1.0,
        0.0,
        0.0,
        0.0,
        0.0,
        1.0,
        0.0,
        0.24655000000000002,
        -2.09381,
        2.94215,
        1.0
      ],
      "name": "Point"
    },
    {
      "name": "Point"
    },
    {
      "children": [
        5,
        67,
        66
      ],
      "matrix": [
        0.0,
        -1.0000000000000004e-05,
        0.0027200000000000006,
        0.0,
        0.0,
        -0.0027200000000000006,
        -1.0000000000000004e-05,
        0.0,
        0.0027200000000000006,
        0.0,
        -0.0,
        0.0,
        0.0,
        0.3466200000000001,
        1.29344,
        1.0
      ],
      "name": "Bip001_Pelvis"
    },
    {
      "children": [
        6
      ],
      "name": "Bip001_Pelvis_rootJoint"
    },
    {
      "children": [
        7,
        11,
        15
      ],
      "name": "Bip001_Spine_Bip001_Pelvis",
      "rotation": [
        -0.0003189124690834433,
        -0.09672829508781433,
        0.0003967743832617998,
        0.9953107237815857
      ],
      "scale": [
        1.0000033378601074,
        0.999998927116394,
        1.0000044107437134
      ],
      "translation": [
        92.79633331298828,
        -0.6703799962997437,
        -0.00013000000035390258
      ]
    },
    {
      "children": [
        8
      ],
      "name": "Bip001_L_Thigh_Bip001_Pelvis",
      "rotation": [
        0.08484208583831787,
        0.9409742951393127,
        -0.02823096513748169,
        -0.3264540433883667
      ],
      "scale": [
        1.0000008344650269,
        1.000004768371582,
        0.9999945759773254
      ],
      "translation": [
        -92.79580688476563,
        0.7439699769020081,
        77.4229965209961
      ]
    },
    {
      "children": [
        9
      ],
      "name": "Bip001_L_Calf_Bip001_Pelvis",
      "rotation": [
        -0.18688657879829407,
        -0.0035069757141172886,
        -0.37243619561195374,
        0.9090392589569092
      ],
      "scale": [
        1.0000046491622925,
        1.0000015497207642,
        0.9999959468841553
      ],
      "translation": [
        204.59657287597656,
        -2.9999999242136255e-05,
        -3.9999998989515007e-05
      ]
    },
    {
      "children": [
        10
      ],
      "name": "Bip001_L_Foot_Bip001_Pelvis",
      "rotation": [
        -0.03813464939594269,
        -0.19038422405719757,
        0.07566063106060028,
        0.9780466556549072
      ],
      "scale": [
        1.0000016689300537,
        0.9999946355819702,
        1.0000039339065552
      ],
      "translation": [
        207.6272735595703,
        -2.9999999242136255e-05,
        9.999999747378752e-06
      ]
    },
    {
      "name": "Bip001_L_Toe0_Bip001_Pelvis",
      "rotation": [
        0.0,
        0.0,
        0.7071068286895752,
        0.7071068286895752
      ],
      "scale": [
        1.0,
        1.0,
        1.0
      ],
      "translation": [
        63.825599670410156,
        153.9464111328125,
        0.0
      ]
    },
    {
      "children": [
        12
      ],
      "name": "Bip001_R_Thigh_Bip001_Pelvis",
      "rotation": [
        0.08934920281171799,
        0.9909754395484924,
        0.008612580597400665,
        0.09955112636089325
      ],
      "scale": [
        1.000002384185791,
        0.9999950528144836,
        0.9999938607215881
      ],
      "translation": [
        -92.7957763671875,
        0.7445999979972839,
        -77.42305755615234
      ]
    },
    {
      "children": [
        13
      ],
      "name": "Bip001_R_Calf_Bip001_Pelvis",
      "rotation": [
        0.07181300222873688,
        0.22638942301273346,
        -0.45170485973358154,
        0.8599729537963867
      ],
      "scale": [
        0.9999937415122986,
        0.999996542930603,
        1.0000016689300537
      ],
      "translation": [
        204.59661865234375,
        7.999999797903001e-05,
        -3.9999998989515007e-05
      ]
    },
    {
      "children": [
        14
      ],
      "name": "Bip001_R_Foot_Bip001_Pelvis",
      "rotation": [
        0.3362666964530945,
        -0.042181596159935,
        0.20679877698421478,
        0.9178124666213989
      ],
      "scale": [
        1.0000005960464478,
        0.9999950528144836,
        1.000006079673767
      ],
      "translation": [
        207.6272735595703,
        3.9999998989515007e-05,
        -1.9999999494757503e-05
      ]
    },
    {
      "name": "Bip001_R_Toe0_Bip001_Pelvis",
      "rotation": [
        0.0,
        0.0,
        0.7071068286895752,
        0.7071068286895752
      ],
      "scale": [
        1.0,
        1.0,
        1.0
      ],
      "translation": [
        63.8255500793457,
        150.2139434814453,
        0.0
      ]
    },
    {
      "children": [
        16
      ],
      "name": "Bip001_Spine1_Bip001_Pelvis",
      "rotation": [
        0.15364164113998413,
        -0.011674873530864716,
        0.32819700241088867,
        0.9319574236869812
      ],
      "scale": [
        0.9999953508377075,
        1.0000001192092896,
        1.0000048875808716
      ],
      "translation": [
        116.00285339355469,
        -0.20675000548362732,
        0.0
      ]
    },
    {
      "children": [
        17,
        46,
        56
      ],
      "name": "Bip001_Neck_Bip001_Pelvis",
      "rotation": [
        0.0,
        0.0,
        0.04105208441615105,
        0.9991570115089417
      ],
      "scale": [
        1.0000056028366089,
        0.9999955296516418,
        1.0
      ],
      "translation": [
        267.125732421875,
        15.846159934997559,
        9.999999747378752e-06
      ]
    },
    {
      "children": [
        18,
        19,
        20,
        21,
        22,
        23,
        24,
        25,
        26,
        27,
        28,
        31,
        34,
        37,
        38,
        39,
        40,
        41,
        42,
        43,
        44,
        45
      ],
      "name": "Bip001_Head_Bip001_Pelvis",
      "rotation": [
        -0.15750296413898468,
        0.022231068462133408,
        -0.2517627477645874,
        0.9546277523040771
      ],
      "scale": [
        0.9999960660934448,
        1.000006079673767,
        1.0000022649765015
      ],
      "translation": [
        64.11493682861328,
        -2.0927000045776367,
        9.999999747378752e-06
      ]
    },
    {
      "name": "Bip001_brow_mid_Bip001_Pelvis",
      "rotation": [
        0.0,
        0.0,
        0.0003999999025836587,
        0.9999999403953552
      ],
      "scale": [
        1.0000003576278687,
        1.0000003576278687,
        1.0
      ],
      "translation": [
        196.2627410888672,
        68.22693634033203,
        -0.00015999999595806003
      ]
    },
    {
      "name": "Bip001_Hat_Bip001_Pelvis",
      "rotation": [
        0.0,
        0.0,
        -0.2864190936088562,
        0.9581044316291809
      ],
      "scale": [
        1.000002145767212,
        1.000002145767212,
        1.0
      ],
      "translation": [
        200.99029541015625,
        -11.324979782104492,
        -0.0002500000118743628
      ]
    },
    {
      "name": "Bip001_Jaw_Bip001_Pelvis",
      "rotation": [
        0.0,
        0.0,
        0.9219835996627808,
        0.38722893595695496
      ],
      "scale": [
        1.0000035762786865,
        1.0000035762786865,
        1.0
      ],
      "translation": [
        50.542240142822266,
        36.845951080322266,
        -7.999999797903001e-05
      ]
    },
    {
      "name": "Bip001_L_blink01_Bip001_Pelvis",
      "rotation": [
        -3.535533096510335e-06,
        -3.535533096510335e-06,
        0.7073895931243896,
        0.7068238854408264
      ],
      "scale": [
        1.0000003576278687,
        1.0000003576278687,
        1.0
      ],
      "translation": [
        109.40458679199219,
        6.272600173950195,
        22.48887062072754
      ]
    },
    {
      "name": "Bip001_L_blink02_Bip001_Pelvis",
      "rotation": [
        0.0,
        0.0,
        0.0003999999025836587,
        0.9999999403953552
      ],
      "scale": [
        1.0000003576278687,
        1.0000003576278687,
        1.0
      ],
      "translation": [
        156.54393005371094,
        10.210860252380371,
        20.84830093383789
      ]
    },
    {
      "name": "Bip001_L_Brow_l_Bip001_Pelvis",
      "rotation": [
        0.0,
        0.0,
        0.7073895931243896,
        0.7068238854408264
      ],
      "scale": [
        1.0000003576278687,
        1.0000003576278687,
        1.0
      ],
      "translation": [
        201.42080688476563,
        56.91387176513672,
        44.811649322509766
      ]
    },
    {
      "name": "Bip001_L_Brow_Mid_Bip001_Pelvis",
      "rotation": [
        0.0,
        0.0,
        0.7073895931243896,
        0.7068238854408264
      ],
      "scale": [
        1.0000003576278687,
        1.0000003576278687,
        1.0
      ],
      "translation": [
        224.97593688964844,
        51.944129943847656,
        28.547969818115234
      ]
    },
    {
      "name": "Bip001_L_Brow_r_Bip001_Pelvis",
      "rotation": [
        0.0,
        0.0,
        0.7078877091407776,
        0.7063249945640564
      ],
      "scale": [
        1.000002384185791,
        1.000002384185791,
        1.0
      ],
      "translation": [
        215.3557891845703,
        58.9781608581543,
        9.934359550476074
      ]
    },
    {
      "name": "Bip001_L_mouth_cornerOpp_Bip001_Pelvis",
      "rotation": [
        0.0,
        0.0,
        0.0003999999025836587,
        0.9999999403953552
      ],
      "scale": [
        1.0000003576278687,
        1.0000003576278687,
        1.0
      ],
      "translation": [
        56.93286895751953,
        52.958980560302734,
        -80.94428253173828
      ]
    },
    {
      "name": "Bip001_L_Pupil_Bip001_Pelvis",
      "rotation": [
        -3.535533096510335e-06,
        -3.535533096510335e-06,
        0.7073895931243896,
        0.7068238854408264
      ],
      "scale": [
        1.0000003576278687,
        1.0000003576278687,
        1.0
      ],
      "translation": [
        129.14649963378906,
        80.38448333740234,
        20.95945930480957
      ]
    },
    {
      "children": [
        29,
        30
      ],
      "name": "Bip001_Muzzle_Bip001_Pelvis",
      "rotation": [
        0.0,
        0.0,
        0.6470043659210205,
        0.7624862790107727
      ],
      "scale": [
        0.9999960064888,
        0.9999960064888,
        1.0
      ],
      "translation": [
        77.45411682128906,
        169.0914306640625,
        9.999999747378752e-06
      ]
    },
    {
      "name": "Bip001_L_muzzle_Bip001_Pelvis",
      "rotation": [
        -4.9831464821181726e-06,
        0.0,
        0.08205699920654297,
        0.9966276288032532
      ],
      "scale": [
        0.9999964833259583,
        0.9999966621398926,
        1.000000238418579
      ],
      "translation": [
        35.606258392333984,
        45.20880889892578,
        63.60752868652344
      ]
    },
    {
      "name": "Bip001_R_muzzle_Bip001_Pelvis",
      "rotation": [
        4.9831464821181726e-06,
        0.0,
        0.08205699920654297,
        0.9966276288032532
      ],
      "scale": [
        0.9999964833259583,
        0.9999966621398926,
        1.000000238418579
      ],
      "translation": [
        35.60614013671875,
        45.20907974243164,
        -60.23067855834961
      ]
    },
    {
      "children": [
        32
      ],
      "name": "Bip001_Ponytail1_Bip001_Pelvis",
      "rotation": [
        0.09014818072319031,
        0.07933202385902405,
        0.9927162528038025,
        0.009715014137327671
      ],
      "scale": [
        0.9999091625213623,
        0.9999939799308777,
        1.0000033378601074
      ],
      "translation": [
        101.7702865600586,
        -24.646379470825195,
        62.09035873413086
      ]
    },
    {
      "children": [
        33
      ],
      "name": "Bip001_Ponytail11_Bip001_Pelvis",
      "rotation": [
        -0.0014950893819332123,
        -0.006797946058213711,
        0.00883056316524744,
        0.9999368786811829
      ],
      "scale": [
        0.9999991655349731,
        1.0000004768371582,
        0.9999960660934448
      ],
      "translation": [
        75.58004760742188,
        -0.056279998272657394,
        -0.0027799999807029963
      ]
    },
    {
      "name": "Bip001_Ponytail12_Bip001_Pelvis",
      "rotation": [
        0.020507069304585457,
        0.08647822588682175,
        -0.008669658564031124,
        0.9960049390792847
      ],
      "scale": [
        0.9999952912330627,
        1.0000030994415283,
        0.9999982118606567
      ],
      "translation": [
        70.27052307128906,
        -0.05883000046014786,
        -0.00018000000272877514
      ]
    },
    {
      "children": [
        35
      ],
      "name": "Bip001_Ponytail2_Bip001_Pelvis",
      "rotation": [
        -0.3729454278945923,
        -0.007778056897222996,
        0.9276033043861389,
        -0.02008330263197422
      ],
      "scale": [
        1.0000851154327393,
        0.9999976754188538,
        0.9999992847442627
      ],
      "translation": [
        101.76997375488281,
        -24.64600944519043,
        -62.09056091308594
      ]
    },
    {
      "children": [
        36
      ],
      "name": "Bip001_Ponytail21_Bip001_Pelvis",
      "rotation": [
        -0.042561620473861694,
        -0.19329734146595,
        -0.03193571791052818,
        0.9796962738037109
      ],
      "scale": [
        0.999995231628418,
        1.0000042915344238,
        1.000001311302185
      ],
      "translation": [
        75.56687927246094,
        -0.05561000108718872,
        -0.003490000031888485
      ]
    },
    {
      "name": "Bip001_Ponytail22_Bip001_Pelvis",
      "rotation": [
        -0.036572590470314026,
        -0.15399284660816193,
        -0.022484252229332924,
        0.9871388673782349
      ],
      "scale": [
        1.0000015497207642,
        0.9999933838844299,
        1.0000028610229492
      ],
      "translation": [
        70.25877380371094,
        -0.05795000120997429,
        -0.0016599999507889152
      ]
    },
    {
      "name": "Bip001_R_blink01_Bip001_Pelvis",
      "rotation": [
        0.0,
        0.0,
        0.7073895931243896,
        0.7068238854408264
      ],
      "scale": [
        1.0000003576278687,
        1.0000003576278687,
        1.0
      ],
      "translation": [
        109.40450286865234,
        6.27269983291626,
        -22.488889694213867
      ]
    },
    {
      "name": "Bip001_R_blink02_Bip001_Pelvis",
      "rotation": [
        0.0,
        0.0,
        0.0003999999025836587,
        0.9999999403953552
      ],
      "scale": [
        1.0000003576278687,
        1.0000003576278687,
        1.0
      ],
      "translation": [
        156.5438232421875,
        10.211020469665527,
        -20.848430633544922
      ]
    },
    {
      "name": "Bip001_R_Brow_l_Bip001_Pelvis",
      "rotation": [
        0.0,
        0.0,
        0.7078877091407776,
        0.7063249945640564
      ],
      "scale": [
        1.000002384185791,
        1.000002384185791,
        1.0
      ],
      "translation": [
        215.35565185546875,
        58.97819900512695,
        -9.934610366821289
      ]
    },
    {
      "name": "Bip001_R_Brow_Mid_Bip001_Pelvis",
      "rotation": [
        0.0,
        0.0,
        0.7073895931243896,
        0.7068238854408264
      ],
      "scale": [
        1.0000003576278687,
        1.0000003576278687,
        1.0
      ],
      "translation": [
        224.9759521484375,
        51.94429016113281,
        -28.548280715942383
      ]
    },
    {
      "name": "Bip001_R_Brow_r_Bip001_Pelvis",
      "rotation": [
        0.0,
        0.0,
        0.7073895931243896,
        0.7068238854408264
      ],
      "scale": [
        1.0000003576278687,
        1.0000003576278687,
        1.0
      ],
      "translation": [
        201.42062377929688,
        56.91413879394531,
        -44.8118782043457
      ]
    },
    {
      "name": "Bip001_R_mouth_corner_Bip001_Pelvis",
      "rotation": [
        0.0,
        0.0,
        0.0003999999025836587,
        0.9999999403953552
      ],
      "scale": [
        1.0000003576278687,
        1.0000003576278687,
        1.0
      ],
      "translation": [
        56.933101654052734,
        52.958499908447266,
        80.94444274902344
      ]
    },
    {
      "name": "Bip001_R_Pupil_Bip001_Pelvis",
      "rotation": [
        3.535533096510335e-06,
        3.535533096510335e-06,
        0.7073895931243896,
        0.7068238854408264
      ],
      "scale": [
        1.0000003576278687,
        1.0000003576278687,
        1.0
      ],
      "translation": [
        130.1311798095703,
        80.38185119628906,
        -19.49574089050293
      ]
    },
    {
      "name": "Bone001_Bip001_Pelvis",
      "rotation": [
        0.0019657735247164965,
        0.7071040868759155,
        0.0019657735247164965,
        0.7071040868759155
      ],
      "scale": [
        0.9999954700469971,
        0.9999954700469971,
        1.0
      ],
      "translation": [
        79.64351654052734,
        40.90530014038086,
        -37.3461799621582
      ]
    },
    {
      "name": "Bone002_Bip001_Pelvis",
      "rotation": [
        -0.0019622379913926125,
        0.7071040868759155,
        -0.0019622379913926125,
        0.7071040868759155
      ],
      "scale": [
        0.9999954104423523,
        0.9999954104423523,
        1.0
      ],
      "translation": [
        79.64373016357422,
        40.90520095825195,
        37.34585952758789
      ]
    },
    {
      "children": [
        47
      ],
      "name": "Bip001_L_Clavicle_Bip001_Pelvis",
      "rotation": [
        0.5970553755760193,
        -0.024769429117441177,
        0.8011285066604614,
        0.03323429077863693
      ],
      "scale": [
        0.9999868273735046,
        0.9999949932098389,
        1.0000015497207642
      ],
      "translation": [
        -53.06652069091797,
        -11.496219635009766,
        10.27299976348877
      ]
    },
    {
      "children": [
        48
      ],
      "name": "Bip001_L_UpperArm_Bip001_Pelvis",
      "rotation": [
        -0.5694741010665894,
        -0.03961560130119324,
        -0.37723642587661743,
        0.7292616367340088
      ],
      "scale": [
        1.000005841255188,
        0.999995768070221,
        0.9999984502792358
      ],
      "translation": [
        52.978309631347656,
        3.9999998989515007e-05,
        -9.999999747378752e-06
      ]
    },
    {
      "children": [
        49
      ],
      "name": "Bip001_L_Forearm_Bip001_Pelvis",
      "rotation": [
        -0.16884905099868774,
        -0.1451626867055893,
        -0.5802965760231018,
        0.7833732962608337
      ],
      "scale": [
        1.0000046491622925,
        0.9999997019767761,
        1.0000057220458984
      ],
      "translation": [
        178.49374389648438,
        4.999999873689376e-05,
        0.0009500000160187483
      ]
    },
    {
      "children": [
        50,
        52,
        54
      ],
      "name": "Bip001_L_Hand_Bip001_Pelvis",
      "rotation": [
        0.7600692510604858,
        0.34898683428764343,
        0.3419116735458374,
        -0.4284852147102356
      ],
      "scale": [
        0.9999983906745911,
        1.000004529953003,
        0.9999937415122986
      ],
      "translation": [
        193.94921875,
        0.0003000000142492354,
        0.0008800000068731606
      ]
    },
    {
      "children": [
        51
      ],
      "name": "Bip001_L_Finger0_Bip001_Pelvis",
      "rotation": [
        0.5554285645484924,
        0.33955296874046326,
        -0.2426055520772934,
        0.7192673087120056
      ],
      "scale": [
        0.9999982714653015,
        0.9999968409538269,
        1.000006079673767
      ],
      "translation": [
        34.85559844970703,
        8.169699668884277,
        -48.172489166259766
      ]
    },
    {
      "name": "Bip001_L_Finger01_Bip001_Pelvis",
      "rotation": [
        -0.045646555721759796,
        -0.013269496150314808,
        -0.04677410051226616,
        0.9977737665176392
      ],
      "scale": [
        0.9999973177909851,
        1.0000035762786865,
        0.9999991655349731
      ],
      "translation": [
        37.25048065185547,
        0.00023999999393709004,
        4.999999873689376e-05
      ]
    },
    {
      "children": [
        53
      ],
      "name": "Bip001_L_Finger1_Bip001_Pelvis",
      "rotation": [
        -0.08170510828495026,
        0.06426821649074554,
        0.00011318945325911045,
        0.9945823550224304
      ],
      "scale": [
        0.9999980330467224,
        1.000004768371582,
        1.0000016689300537
      ],
      "translation": [
        100.99075317382813,
        -15.023859977722168,
        -38.80664825439453
      ]
    },
    {
      "name": "Bip001_L_Finger11_Bip001_Pelvis",
      "rotation": [
        0.058505307883024216,
        0.07518765330314636,
        -0.09059136360883713,
        0.9913209080696106
      ],
      "scale": [
        1.0000009536743164,
        0.9999966621398926,
        1.000003695487976
      ],
      "translation": [
        61.3384895324707,
        -0.0007600000244565308,
        0.00014000000373926014
      ]
    },
    {
      "children": [
        55
      ],
      "name": "Bip001_L_Finger2_Bip001_Pelvis",
      "rotation": [
        -0.11231284588575363,
        -0.004971788264811039,
        0.14852161705493927,
        0.982498049736023
      ],
      "scale": [
        0.9999948143959045,
        1.0000064373016357,
        0.9999992847442627
      ],
      "translation": [
        102.8065414428711,
        -10.353190422058105,
        16.650569915771484
      ]
    },
    {
      "name": "Bip001_L_Finger21_Bip001_Pelvis",
      "rotation": [
        0.02406541258096695,
        0.0425923690199852,
        -0.23495082557201385,
        0.9707754850387573
      ],
      "scale": [
        1.0000039339065552,
        1.0000022649765015,
        0.9999948143959045
      ],
      "translation": [
        62.63069152832031,
        -0.0006900000153109431,
        1.9999999494757503e-05
      ]
    },
    {
      "children": [
        57
      ],
      "name": "Bip001_R_Clavicle_Bip001_Pelvis",
      "rotation": [
        -0.6620762944221497,
        0.06528017669916153,
        0.745439887046814,
        -0.04138706997036934
      ],
      "scale": [
        0.9999858140945435,
        0.9999972581863403,
        1.0000032186508179
      ],
      "translation": [
        -53.06650924682617,
        -11.496199607849121,
        -10.272930145263672
      ]
    },
    {
      "children": [
        58
      ],
      "name": "Bip001_R_UpperArm_Bip001_Pelvis",
      "rotation": [
        0.30799436569213867,
        0.018769999966025352,
        -0.2697792947292328,
        0.9121437668800354
      ],
      "scale": [
        0.999993085861206,
        1.000004529953003,
        0.9999969005584717
      ],
      "translation": [
        52.97829055786133,
        1.9999999494757503e-05,
        -5.999999848427251e-05
      ]
    },
    {
      "children": [
        59
      ],
      "name": "Bip001_R_Forearm_Bip001_Pelvis",
      "rotation": [
        -0.2839348614215851,
        -0.09692081809043884,
        -0.5599390864372253,
        0.7723053693771362
      ],
      "scale": [
        1.0000009536743164,
        1.0000038146972656,
        1.0000067949295044
      ],
      "translation": [
        178.49368286132813,
        5.999999848427251e-05,
        -0.0025599999353289604
      ]
    },
    {
      "children": [
        60,
        62,
        64
      ],
      "name": "Bip001_R_Hand_Bip001_Pelvis",
      "rotation": [
        0.5871909260749817,
        -0.23072358965873718,
        -0.4474222660064697,
        0.633866548538208
      ],
      "scale": [
        1.0000005960464478,
        0.9999940991401672,
        1.0000022649765015
      ],
      "translation": [
        193.9493865966797,
        0.0003600000054575503,
        0.0017500000540167093
      ]
    },
    {
      "children": [
        61
      ],
      "name": "Bip001_R_Finger0_Bip001_Pelvis",
      "rotation": [
        -0.689215362071991,
        -0.4666118621826172,
        -0.04926275461912155,
        0.5521129965782166
      ],
      "scale": [
        0.9999935626983643,
        1.0000039339065552,
        0.9999992847442627
      ],
      "translation": [
        34.8555908203125,
        8.169580459594727,
        48.17245864868164
      ]
    },
    {
      "name": "Bip001_R_Finger01_Bip001_Pelvis",
      "rotation": [
        0.0,
        -4.923636424791766e-06,
        0.17410962283611298,
        0.9847263693809509
      ],
      "scale": [
        0.9999982118606567,
        0.9999971389770508,
        1.000001072883606
      ],
      "translation": [
        37.250221252441406,
        0.00022000000171829015,
        -0.00014000000373926014
      ]
    },
    {
      "children": [
        63
      ],
      "name": "Bip001_R_Finger1_Bip001_Pelvis",
      "rotation": [
        0.009021243080496788,
        -0.031066078692674637,
        0.2685736119747162,
        0.9627159237861633
      ],
      "scale": [
        1.0000029802322388,
        0.9999951124191284,
        1.0000048875808716
      ],
      "translation": [
        100.99072265625,
        -15.024160385131836,
        38.8065299987793
      ]
    },
    {
      "name": "Bip001_R_Finger11_Bip001_Pelvis",
      "rotation": [
        0.0,
        0.0,
        0.17410962283611298,
        0.9847263693809509
      ],
      "scale": [
        0.9999982118606567,
        0.9999982118606567,
        1.0
      ],
      "translation": [
        61.33856964111328,
        -0.0007200000109151006,
        -9.999999747378752e-05
      ]
    },
    {
      "children": [
        65
      ],
      "name": "Bip001_R_Finger2_Bip001_Pelvis",
      "rotation": [
        0.07897280901670456,
        -0.008307511918246746,
        0.2851080596446991,
        0.9552004337310791
      ],
      "scale": [
        0.9999997019767761,
        0.9999947547912598,
        1.000004529953003
      ],
      "translation": [
        102.80661010742188,
        -10.353489875793457,
        -16.650699615478516
      ]
    },
    {
      "name": "Bip001_R_Finger21_Bip001_Pelvis",
      "rotation": [
        0.0,
        0.0,
        0.17410962283611298,
        0.9847263693809509
      ],
      "scale": [
        0.9999982118606567,
        0.9999982118606567,
        1.0
      ],
      "translation": [
        62.63058090209961,
        -0.0006900000153109431,
        -2.9999999242136255e-05
      ]
    },
    {
      "matrix": [
        0.0,
        0.0,
        1.0,
        0.0,
        -0.0,
        -1.0,
        0.0,
        0.0,
        1.0,
        -0.0,
        -0.0,
        0.0,
        -471.63892,
        2.000000000000001e-05,
        0.0006500000000000002,
        1.0
      ],
      "name": "goofy_lod0"
    },
    {
      "mesh": 0,
      "name": "goofy_lod0_0",
      "skin": 0
    }
  ],
  "samplers": [
    {
      "magFilter": 9729,
      "minFilter": 9987,
      "wrapS": 10497,
      "wrapT": 10497
    }
  ],
  "scene": 0,
  "scenes": [
    {
      "name": "Sketchfab_Scene",
      "nodes": [
        0
      ]
    }
  ],
  "skins": [
    {
      "inverseBindMatrices": 4,
      "joints": [
        5,
        6,
        7,
        8,
        9,
        10,
        11,
        12,
        13,
        14,
        15,
        16,
        17,
        18,
        19,
        20,
        21,
        22,
        23,
        24,
        25,
        26,
        27,
        28,
        29,
        30,
        31,
        32,
        33,
        34,
        35,
        36,
        37,
        38,
        39,
        40,
        41,
        42,
        43,
        44,
        45,
        46,
        47,
        48,
        49,
        50,
        51,
        52,
        53,
        54,
        55,
        56,
        57,
        58,
        59,
        60,
        61,
        62,
        63,
        64,
        65
      ],
      "skeleton": 5
    }
  ],
  "textures": [
    {
      "sampler": 0,
      "source": 0
    }
  ]
}
