{
  "accessors": [
    {
      "bufferView": 2,
      "componentType": 5126,
      "count": 3349,
      "max": [
        1.066480040550232,
        0.3911530077457428,
        1.527508020401001
      ],
      "min": [
        -1.066480040550232,
        -0.5468170046806335,
        -0.0006130000110715628
      ],
      "type": "VEC3"
    },
    {
      "bufferView": 2,
      "byteOffset": 40188,
      "componentType": 5126,
      "count": 3349,
      "max": [
        0.999886155128479,
        0.9994387626647949,
        0.9997629523277283
      ],
      "min": [
        -0.999886155128479,
        -0.9999469518661499,
        -0.9999814033508301
      ],
      "type": "VEC3"
    },
    {
      "bufferView": 1,
      "componentType": 5126,
      "count": 3349,
      "max": [
        6.0,
        1.0
      ],
      "min": [
        0.0,
        0.007282999809831381
      ],
      "type": "VEC2"
    },
    {
      "bufferView": 0,
      "componentType": 5125,
      "count": 16878,
      "type": "SCALAR"
    },
    {
      "bufferView": 2,
      "byteOffset": 80376,
      "componentType": 5126,
      "count": 266,
      "max": [
        0.08972000330686569,
        -0.14911200106143951,
        1.4864699840545654
      ],
      "min": [
        -0.08972000330686569,
        -0.2183620035648346,
        1.4159799814224243
      ],
      "type": "VEC3"
    },
    {
      "bufferView": 2,
      "byteOffset": 83568,
      "componentType": 5126,
      "count": 266,
      "max": [
        0.997988224029541,
        0.9652715921401978,
        0.997988224029541
      ],
      "min": [
        -0.997988224029541,
        -0.9999998807907104,
        -0.997988224029541
      ],
      "type": "VEC3"
    },
    {
      "bufferView": 1,
      "byteOffset": 26792,
      "componentType": 5126,
      "count": 266,
      "max": [
        0.9410589933395386,
        0.9987689852714539
      ],
      "min": [
        0.10369399935007095,
        0.11101999878883362
      ],
      "type": "VEC2"
    },
    {
      "bufferView": 0,
      "byteOffset": 67512,
      "componentType": 5125,
      "count": 1368,
      "type": "SCALAR"
    }
  ],
  "asset": {
    "extras": {
      "author": "Guilherme Navarro (https://sketchfab.com/guinavarro.al)",
      "license": "CC-BY-4.0 (http://creativecommons.org/licenses/by/4.0/)",
      "source": "https://sketchfab.com/3d-models/ceo-meet-the-the-robinsons-cb169f4329a74cb7a433c11afb08b08e",
      "title": "Ceo (Meet the The Robinsons)"
    },
    "generator": "Sketchfab-16.16.0",
    "version": "2.0"
  },
  "bufferViews": [
    {
      "buffer": 0,
      "byteLength": 72984,
      "name": "floatBufferViews",
      "target": 34963
    },
    {
      "buffer": 0,
      "byteLength": 28920,
      "byteOffset": 72984,
      "byteStride": 8,
      "name": "floatBufferViews",
      "target": 34962
    },
    {
      "buffer": 0,
      "byteLength": 86760,
      "byteOffset": 101904,
      "byteStride": 12,
      "name": "floatBufferViews",
      "target": 34962
    }
  ],
  "buffers": [
    {
      "byteLength": 188664,
      "uri": "scene.bin"
    }
  ],
  "images": [
    {
      "uri": "textures/Material.001_baseColor.png"
    },
    {
      "uri": "textures/Material.002_baseColor.png"
    }
  ],
  "materials": [
    {
      "doubleSided": true,
      "name": "Material.001",
      "pbrMetallicRoughness": {
        "baseColorTexture": {
          "index": 0
        },
        "metallicFactor": 0.0,
        "roughnessFactor": 0.8011823178082373
      }
    },
    {
      "doubleSided": true,
      "name": "Material.002",
      "pbrMetallicRoughness": {
        "baseColorTexture": {
          "index": 1
        },
        "metallicFactor": 0.0,
        "roughnessFactor": 0.8011823178082373
      }
    }
  ],
  "meshes": [
    {
      "name": "Object_0",
      "primitives": [
        {
          "attributes": {
            "NORMAL": 1,
            "POSITION": 0,
            "TEXCOORD_0": 2
          },
          "indices": 3,
          "material": 0,
          "mode": 4
        }
      ]
    },
    {
      "name": "Object_1",
      "primitives": [
        {
          "attributes": {
            "NORMAL": 5,
            "POSITION": 4,
            "TEXCOORD_0": 6
          },
          "indices": 7,
          "material": 1,
          "mode": 4
        }
      ]
    }
  ],
  "nodes": [
    {
      "children": [
        1
      ],
      "matrix": [
        1.0,
        0.0,
        0.0,
        0.0,
        0.0,
        2.220446049250313e-16,
        -1.0,
        0.0,
        0.0,
        1.0,
        2.220446049250313e-16,
        0.0,
        0.0,
        0.0,
        0.0,
        1.0
      ],
      "name": "Sketchfab_model"
    },
    {
      "children": [
        2,
        3
      ],
      "name": "Ceo.obj.cleaner.materialmerger.gles"
    },
    {
      "mesh": 0,
      "name": "Object_2"
    },
    {
      "mesh": 1,
      "name": "Object_3"
    }
  ],
  "samplers": [
    {
      "magFilter": 9729,
      "minFilter": 9987,
      "wrapS": 10497,
      "wrapT": 10497
    }
  ],
  "scene": 0,
  "scenes": [
    {
      "name": "Sketchfab_Scene",
      "nodes": [
        0
      ]
    }
  ],
  "textures": [
    {
      "sampler": 0,
      "source": 0
    },
    {
      "sampler": 0,
      "source": 1
    }
  ]
}
