{
  "accessors": [
    {
      "bufferView": 2,
      "componentType": 5126,
      "count": 3344,
      "max": [
        0.42164182662963867,
        0.21595759689807892,
        1.1461920738220215
      ],
      "min": [
        -0.43266117572784424,
        -0.11774938553571701,
        -1.1852011680603027
      ],
      "type": "VEC3"
    },
    {
      "bufferView": 2,
      "byteOffset": 40128,
      "componentType": 5126,
      "count": 3344,
      "max": [
        0.9990004897117615,
        0.9999805092811584,
        0.9986937642097473
      ],
      "min": [
        -0.9994103312492371,
        -1.0,
        -0.9998522400856018
      ],
      "type": "VEC3"
    },
    {
      "bufferView": 1,
      "componentType": 5126,
      "count": 3344,
      "max": [
        0.9372575879096985,
        0.9375584721565247
      ],
      "min": [
        0.14154742658138275,
        0.2445845901966095
      ],
      "type": "VEC2"
    },
    {
      "bufferView": 0,
      "componentType": 5125,
      "count": 10524,
      "type": "SCALAR"
    }
  ],
  "asset": {
    "extras": {
      "author": "Pierre.Bourdon (https://sketchfab.com/Pierre.Bourdon)",
      "license": "CC-BY-4.0 (http://creativecommons.org/licenses/by/4.0/)",
      "source": "https://sketchfab.com/3d-models/kebab-midpoly-9e56cc9656ae4016b96cb4bb56fe3a43",
      "title": "Kebab - midpoly"
    },
    "generator": "Sketchfab-12.65.0",
    "version": "2.0"
  },
  "bufferViews": [
    {
      "buffer": 0,
      "byteLength": 42096,
      "name": "floatBufferViews",
      "target": 34963
    },
    {
      "buffer": 0,
      "byteLength": 26752,
      "byteOffset": 42096,
      "byteStride": 8,
      "name": "floatBufferViews",
      "target": 34962
    },
    {
      "buffer": 0,
      "byteLength": 80256,
      "byteOffset": 68848,
      "byteStride": 12,
      "name": "floatBufferViews",
      "target": 34962
    }
  ],
  "buffers": [
    {
      "byteLength": 149104,
      "uri": "scene.bin"
    }
  ],
  "images": [
    {
      "uri": "textures/Material_baseColor.png"
    }
  ],
  "materials": [
    {
      "doubleSided": true,
      "name": "Material",
      "pbrMetallicRoughness": {
        "baseColorTexture": {
          "index": 0
        },
        "metallicFactor": 0.0,
        "roughnessFactor": 0.8211145618000169
      }
    }
  ],
  "meshes": [
    {
      "name": "kebab_Material_0",
      "primitives": [
        {
          "attributes": {
            "NORMAL": 1,
            "POSITION": 0,
            "TEXCOORD_0": 2
          },
          "indices": 3,
          "material": 0,
          "mode": 4
        }
      ]
    }
  ],
  "nodes": [
    {
      "children": [
        1
      ],
      "matrix": [
        1.0,
        0.0,
        0.0,
        0.0,
        0.0,
        2.220446049250313e-16,
        -1.0,
        0.0,
        0.0,
        1.0,
        2.220446049250313e-16,
        0.0,
        0.0,
        0.0,
        0.0,
        1.0
      ],
      "name": "Sketchfab_model"
    },
    {
      "children": [
        2
      ],
      "matrix": [
        1.0,
        0.0,
        0.0,
        0.0,
        0.0,
        0.0,
        1.0,
        0.0,
        0.0,
        -1.0,
        0.0,
        0.0,
        0.0,
        0.0,
        0.0,
        1.0
      ],
      "name": "88bfb0fa1a454c62874c41274869d83b.fbx"
    },
    {
      "children": [
        3
      ],
      "name": "RootNode"
    },
    {
      "children": [
        4
      ],
      "matrix": [
        7.369590759277344,
        0.0,
        0.0,
        0.0,
        0.0,
        7.369590759277245,
        1.200658774250669e-06,
        0.0,
        0.0,
        -1.200658774250669e-06,
        7.369590759277245,
        0.0,
        0.0,
        0.0,
        0.0,
        1.0
      ],
      "name": "kebab"
    },
    {
      "mesh": 0,
      "name": "kebab_Material_0"
    }
  ],
  "samplers": [
    {
      "magFilter": 9729,
      "minFilter": 9987,
      "wrapS": 10497,
      "wrapT": 10497
    }
  ],
  "scene": 0,
  "scenes": [
    {
      "name": "Sketchfab_Scene",
      "nodes": [
        0
      ]
    }
  ],
  "textures": [
    {
      "sampler": 0,
      "source": 0
    }
  ]
}
