{
  "accessors": [
    {
      "bufferView": 3,
      "componentType": 5126,
      "count": 136,
      "max": [
        0.05862879380583763,
        1.6528671979904175,
        0.12390723824501038
      ],
      "min": [
        0.013376145623624325,
        1.607683777809143,
        0.10139299184083939
      ],
      "type": "VEC3"
    },
    {
      "bufferView": 3,
      "byteOffset": 1632,
      "componentType": 5126,
      "count": 136,
      "max": [
        0.9637241363525391,
        0.9722836017608643,
        1.0
      ],
      "min": [
        -0.9704741835594177,
        -0.9734234809875488,
        -1.0
      ],
      "type": "VEC3"
    },
    {
      "bufferView": 2,
      "componentType": 5126,
      "count": 136,
      "max": [
        0.9646214246749878,
        0.9818061590194702
      ],
      "min": [
        0.019903719425201416,
        0.020990610122680664
      ],
      "type": "VEC2"
    },
    {
      "bufferView": 1,
      "componentType": 5125,
      "count": 618,
      "type": "SCALAR"
    },
    {
      "bufferView": 3,
      "byteOffset": 3264,
      "componentType": 5126,
      "count": 136,
      "max": [
        -0.01370250154286623,
        1.6529138088226318,
        0.12390728294849396
      ],
      "min": [
        -0.058775272220373154,
        1.6076375246047974,
        0.10139302164316177
      ],
      "type": "VEC3"
    },
    {
      "bufferView": 3,
      "byteOffset": 4896,
      "componentType": 5126,
      "count": 136,
      "max": [
        0.9638210535049438,
        0.9680635333061218,
        1.0
      ],
      "min": [
        -0.9724922776222229,
        -0.9672916531562805,
        -1.0
      ],
      "type": "VEC3"
    },
    {
      "bufferView": 2,
      "byteOffset": 1088,
      "componentType": 5126,
      "count": 136,
      "max": [
        0.9585750699043274,
        0.966354489326477
      ],
      "min": [
        0.006885886192321777,
        0.022762417793273926
      ],
      "type": "VEC2"
    },
    {
      "bufferView": 1,
      "byteOffset": 2472,
      "componentType": 5125,
      "count": 618,
      "type": "SCALAR"
    },
    {
      "bufferView": 3,
      "byteOffset": 6528,
      "componentType": 5126,
      "count": 2296,
      "max": [
        0.09212181717157364,
        1.7430979013442993,
        0.15311235189437866
      ],
      "min": [
        -0.09212356805801392,
        1.432160496711731,
        -0.055693771690130234
      ],
      "type": "VEC3"
    },
    {
      "bufferView": 3,
      "byteOffset": 34080,
      "componentType": 5126,
      "count": 2296,
      "max": [
        0.9999390840530396,
        0.9991041421890259,
        0.9995614886283875
      ],
      "min": [
        -0.9999439716339111,
        -0.9999952912330627,
        -0.9993955492973328
      ],
      "type": "VEC3"
    },
    {
      "bufferView": 2,
      "byteOffset": 2176,
      "componentType": 5126,
      "count": 2296,
      "max": [
        0.9943000078201294,
        0.9807000160217285
      ],
      "min": [
        0.004999999888241291,
        0.004350006580352783
      ],
      "type": "VEC2"
    },
    {
      "bufferView": 1,
      "byteOffset": 4944,
      "componentType": 5125,
      "count": 12282,
      "type": "SCALAR"
    },
    {
      "bufferView": 3,
      "byteOffset": 61632,
      "componentType": 5126,
      "count": 91,
      "max": [
        0.02681497298181057,
        1.5851216316223145,
        0.13464950025081635
      ],
      "min": [
        -0.02681497298181057,
        1.550005555152893,
        0.07027756422758102
      ],
      "type": "VEC3"
    },
    {
      "bufferView": 3,
      "byteOffset": 62724,
      "componentType": 5126,
      "count": 91,
      "max": [
        0.9997778534889221,
        0.9990420341491699,
        0.9991283416748047
      ],
      "min": [
        -0.9997778534889221,
        -0.9998289346694946,
        -0.24093444645404816
      ],
      "type": "VEC3"
    },
    {
      "bufferView": 2,
      "byteOffset": 20544,
      "componentType": 5126,
      "count": 91,
      "max": [
        0.9808249473571777,
        0.983213484287262
      ],
      "min": [
        0.051069796085357666,
        0.02829587459564209
      ],
      "type": "VEC2"
    },
    {
      "bufferView": 1,
      "byteOffset": 54072,
      "componentType": 5125,
      "count": 300,
      "type": "SCALAR"
    },
    {
      "bufferView": 3,
      "byteOffset": 63816,
      "componentType": 5126,
      "count": 1399,
      "max": [
        0.0925961583852768,
        1.8211582899093628,
        0.12038596719503403
      ],
      "min": [
        -0.09983839839696884,
        1.2686985731124878,
        -0.21498163044452667
      ],
      "type": "VEC3"
    },
    {
      "bufferView": 3,
      "byteOffset": 80604,
      "componentType": 5126,
      "count": 1399,
      "max": [
        0.999954342842102,
        0.9952480792999268,
        0.9997105002403259
      ],
      "min": [
        -0.9994212985038757,
        -0.998989999294281,
        -0.9982251524925232
      ],
      "type": "VEC3"
    },
    {
      "bufferView": 4,
      "componentType": 5126,
      "count": 1399,
      "max": [
        0.9949909448623657,
        0.9940769076347351,
        0.9994406700134277,
        1.0
      ],
      "min": [
        -0.9992963075637817,
        -0.9996870160102844,
        -0.9963032007217407,
        -1.0
      ],
      "type": "VEC4"
    },
    {
      "bufferView": 2,
      "byteOffset": 21272,
      "componentType": 5126,
      "count": 1399,
      "max": [
        0.9953377842903137,
        0.9919084906578064
      ],
      "min": [
        0.013411145657300949,
        0.013429999351501465
      ],
      "type": "VEC2"
    },
    {
      "bufferView": 1,
      "byteOffset": 55272,
      "componentType": 5125,
      "count": 8097,
      "type": "SCALAR"
    },
    {
      "bufferView": 3,
      "byteOffset": 97392,
      "componentType": 5126,
      "count": 2844,
      "max": [
        0.4229488670825958,
        1.546398401260376,
        0.18954043090343475
      ],
      "min": [
        -0.42353343963623047,
        0.8385857343673706,
        -0.1263640969991684
      ],
      "type": "VEC3"
    },
    {
      "bufferView": 3,
      "byteOffset": 131520,
      "componentType": 5126,
      "count": 2844,
      "max": [
        0.9981648921966553,
        0.9993916749954224,
        0.9996945261955261
      ],
      "min": [
        -0.9995126128196716,
        -0.9993481636047363,
        -0.9999873638153076
      ],
      "type": "VEC3"
    },
    {
      "bufferView": 4,
      "byteOffset": 22384,
      "componentType": 5126,
      "count": 2844,
      "max": [
        0.999982476234436,
        0.9951331615447998,
        0.9999117851257324,
        1.0
      ],
      "min": [
        -1.0,
        -0.9970011115074158,
        -0.999915361404419,
        1.0
      ],
      "type": "VEC4"
    },
    {
      "bufferView": 2,
      "byteOffset": 32464,
      "componentType": 5126,
      "count": 2844,
      "max": [
        0.9903370141983032,
        0.9839079976081848
      ],
      "min": [
        0.0039033102802932262,
        0.01626068353652954
      ],
      "type": "VEC2"
    },
    {
      "bufferView": 1,
      "byteOffset": 87660,
      "componentType": 5125,
      "count": 14259,
      "type": "SCALAR"
    },
    {
      "bufferView": 3,
      "byteOffset": 165648,
      "componentType": 5126,
      "count": 1393,
      "max": [
        0.23796197772026062,
        1.1159389019012451,
        0.16493390500545502
      ],
      "min": [
        -0.23481841385364532,
        0.21430045366287231,
        -0.11604519933462143
      ],
      "type": "VEC3"
    },
    {
      "bufferView": 3,
      "byteOffset": 182364,
      "componentType": 5126,
      "count": 1393,
      "max": [
        0.9993936419487,
        0.9998639822006226,
        0.9995107650756836
      ],
      "min": [
        -0.9996896982192993,
        -0.9999110102653503,
        -0.999975323677063
      ],
      "type": "VEC3"
    },
    {
      "bufferView": 4,
      "byteOffset": 67888,
      "componentType": 5126,
      "count": 1393,
      "max": [
        0.9981547594070435,
        0.9986280202865601,
        0.9998303651809692,
        1.0
      ],
      "min": [
        -0.982659637928009,
        -0.9790136814117432,
        -0.9998137950897217,
        -1.0
      ],
      "type": "VEC4"
    },
    {
      "bufferView": 2,
      "byteOffset": 55216,
      "componentType": 5126,
      "count": 1393,
      "max": [
        0.9818660020828247,
        0.9882929921150208
      ],
      "min": [
        0.013163999654352665,
        0.005253970623016357
      ],
      "type": "VEC2"
    },
    {
      "bufferView": 1,
      "byteOffset": 144696,
      "componentType": 5125,
      "count": 7404,
      "type": "SCALAR"
    },
    {
      "bufferView": 3,
      "byteOffset": 199080,
      "componentType": 5126,
      "count": 1373,
      "max": [
        0.2300601303577423,
        0.230121448636055,
        0.1976461559534073
      ],
      "min": [
        -0.23005466163158417,
        -0.0007980649825185537,
        -0.12274659425020218
      ],
      "type": "VEC3"
    },
    {
      "bufferView": 3,
      "byteOffset": 215556,
      "componentType": 5126,
      "count": 1373,
      "max": [
        0.9992725849151611,
        0.9987437725067139,
        0.9948508143424988
      ],
      "min": [
        -0.9996455311775208,
        -0.9998548626899719,
        -0.996671199798584
      ],
      "type": "VEC3"
    },
    {
      "bufferView": 4,
      "byteOffset": 90176,
      "componentType": 5126,
      "count": 1373,
      "max": [
        0.9992989301681519,
        0.9988383650779724,
        0.9999979138374329,
        1.0
      ],
      "min": [
        -0.9990743398666382,
        -0.9990208148956299,
        -0.9999971389770508,
        -1.0
      ],
      "type": "VEC4"
    },
    {
      "bufferView": 2,
      "byteOffset": 66360,
      "componentType": 5126,
      "count": 1373,
      "max": [
        0.9821990728378296,
        0.9727053642272949
      ],
      "min": [
        0.019411925226449966,
        0.01569730043411255
      ],
      "type": "VEC2"
    },
    {
      "bufferView": 1,
      "byteOffset": 174312,
      "componentType": 5125,
      "count": 5886,
      "type": "SCALAR"
    },
    {
      "bufferView": 3,
      "byteOffset": 232032,
      "componentType": 5126,
      "count": 3310,
      "max": [
        0.46416088938713074,
        1.326154351234436,
        0.17685914039611816
      ],
      "min": [
        -0.4641568958759308,
        0.08372220396995544,
        -0.07725232094526291
      ],
      "type": "VEC3"
    },
    {
      "bufferView": 3,
      "byteOffset": 271752,
      "componentType": 5126,
      "count": 3310,
      "max": [
        0.9994539618492126,
        0.860268771648407,
        0.9973291754722595
      ],
      "min": [
        -0.9994539618492126,
        -0.9983800649642944,
        -0.99920654296875
      ],
      "type": "VEC3"
    },
    {
      "bufferView": 2,
      "byteOffset": 77344,
      "componentType": 5126,
      "count": 3310,
      "max": [
        0.9905531406402588,
        0.9527736306190491
      ],
      "min": [
        0.009567409753799438,
        0.12644481658935547
      ],
      "type": "VEC2"
    },
    {
      "bufferView": 1,
      "byteOffset": 197856,
      "componentType": 5125,
      "count": 17448,
      "type": "SCALAR"
    },
    {
      "bufferView": 5,
      "componentType": 5126,
      "count": 68,
      "max": [
        1.0,
        0.9721221923828125,
        0.9999997615814209,
        0.0,
        0.9999985694885254,
        1.0000001192092896,
        0.9999229311943054,
        0.0,
        0.9988806247711182,
        1.000011920928955,
        1.0000001192092896,
        0.0,
        0.8778542280197144,
        1.0999782085418701,
        1.4372270107269287,
        1.0
      ],
      "min": [
        -1.0000027418136597,
        -0.9721225500106812,
        -1.0000028610229492,
        0.0,
        -0.9999991059303284,
        -0.9963495135307312,
        -0.9850351214408875,
        0.0,
        -0.9988805651664734,
        -0.16825264692306519,
        -0.14310869574546814,
        0.0,
        -0.877854585647583,
        -1.7357779741287231,
        -0.22168709337711334,
        1.0
      ],
      "type": "MAT4"
    },
    {
      "bufferView": 0,
      "componentType": 5123,
      "count": 136,
      "type": "VEC4"
    },
    {
      "bufferView": 4,
      "byteOffset": 112144,
      "componentType": 5126,
      "count": 136,
      "max": [
        1.0,
        0.0,
        0.0,
        0.0
      ],
      "min": [
        1.0,
        0.0,
        0.0,
        0.0
      ],
      "type": "VEC4"
    },
    {
      "bufferView": 0,
      "byteOffset": 1088,
      "componentType": 5123,
      "count": 136,
      "type": "VEC4"
    },
    {
      "bufferView": 4,
      "byteOffset": 114320,
      "componentType": 5126,
      "count": 136,
      "max": [
        1.0,
        0.0,
        0.0,
        0.0
      ],
      "min": [
        1.0,
        0.0,
        0.0,
        0.0
      ],
      "type": "VEC4"
    },
    {
      "bufferView": 0,
      "byteOffset": 2176,
      "componentType": 5123,
      "count": 2296,
      "type": "VEC4"
    },
    {
      "bufferView": 4,
      "byteOffset": 116496,
      "componentType": 5126,
      "count": 2296,
      "max": [
        1.0,
        0.4970000088214874,
        0.25050100684165955,
        0.035999998450279236
      ],
      "min": [
        0.4028055965900421,
        0.0,
        0.0,
        0.0
      ],
      "type": "VEC4"
    },
    {
      "bufferView": 0,
      "byteOffset": 20544,
      "componentType": 5123,
      "count": 91,
      "type": "VEC4"
    },
    {
      "bufferView": 4,
      "byteOffset": 153232,
      "componentType": 5126,
      "count": 91,
      "max": [
        1.0,
        0.0,
        0.0,
        0.0
      ],
      "min": [
        1.0,
        0.0,
        0.0,
        0.0
      ],
      "type": "VEC4"
    },
    {
      "bufferView": 0,
      "byteOffset": 21272,
      "componentType": 5123,
      "count": 1399,
      "type": "VEC4"
    },
    {
      "bufferView": 4,
      "byteOffset": 154688,
      "componentType": 5126,
      "count": 1399,
      "max": [
        1.0,
        0.0,
        0.0,
        0.0
      ],
      "min": [
        1.0,
        0.0,
        0.0,
        0.0
      ],
      "type": "VEC4"
    },
    {
      "bufferView": 0,
      "byteOffset": 32464,
      "componentType": 5123,
      "count": 2844,
      "type": "VEC4"
    },
    {
      "bufferView": 4,
      "byteOffset": 177072,
      "componentType": 5126,
      "count": 2844,
      "max": [
        1.0,
        0.4998013377189636,
        0.3302346467971802,
        0.15208394825458527
      ],
      "min": [
        0.33812639117240906,
        0.0,
        0.0,
        0.0
      ],
      "type": "VEC4"
    },
    {
      "bufferView": 0,
      "byteOffset": 55216,
      "componentType": 5123,
      "count": 1393,
      "type": "VEC4"
    },
    {
      "bufferView": 4,
      "byteOffset": 222576,
      "componentType": 5126,
      "count": 1393,
      "max": [
        1.0,
        0.4989394545555115,
        0.3194185197353363,
        0.021069204434752464
      ],
      "min": [
        0.35112565755844116,
        0.0,
        0.0,
        0.0
      ],
      "type": "VEC4"
    },
    {
      "bufferView": 0,
      "byteOffset": 66360,
      "componentType": 5123,
      "count": 1373,
      "type": "VEC4"
    },
    {
      "bufferView": 4,
      "byteOffset": 244864,
      "componentType": 5126,
      "count": 1373,
      "max": [
        1.0,
        0.49918025732040405,
        0.0,
        0.0
      ],
      "min": [
        0.500819742679596,
        0.0,
        0.0,
        0.0
      ],
      "type": "VEC4"
    },
    {
      "bufferView": 0,
      "byteOffset": 77344,
      "componentType": 5123,
      "count": 3310,
      "type": "VEC4"
    },
    {
      "bufferView": 4,
      "byteOffset": 266832,
      "componentType": 5126,
      "count": 3310,
      "max": [
        1.0,
        0.4951568841934204,
        0.29230496287345886,
        0.04835797846317291
      ],
      "min": [
        0.3815074563026428,
        0.0,
        0.0,
        0.0
      ],
      "type": "VEC4"
    }
  ],
  "asset": {
    "extras": {
      "author": "njanimator (https://sketchfab.com/njanimator)",
      "license": "CC-BY-4.0 (http://creativecommons.org/licenses/by/4.0/)",
      "source": "https://sketchfab.com/3d-models/young-gaming-female-model-41a2d066abd64200a1987b3456708f04",
      "title": "Young Gaming Female Model"
    },
    "generator": "Sketchfab-16.72.0",
    "version": "2.0"
  },
  "bufferViews": [
    {
      "buffer": 0,
      "byteLength": 103824,
      "byteStride": 8,
      "name": "shortBufferViews",
      "target": 34962
    },
    {
      "buffer": 0,
      "byteLength": 267648,
      "byteOffset": 103824,
      "name": "floatBufferViews",
      "target": 34963
    },
    {
      "buffer": 0,
      "byteLength": 103824,
      "byteOffset": 371472,
      "byteStride": 8,
      "name": "floatBufferViews",
      "target": 34962
    },
    {
      "buffer": 0,
      "byteLength": 311472,
      "byteOffset": 475296,
      "byteStride": 12,
      "name": "floatBufferViews",
      "target": 34962
    },
    {
      "buffer": 0,
      "byteLength": 319792,
      "byteOffset": 786768,
      "byteStride": 16,
      "name": "floatBufferViews",
      "target": 34962
    },
    {
      "buffer": 0,
      "byteLength": 4352,
      "byteOffset": 1106560,
      "name": "floatBufferViews"
    }
  ],
  "buffers": [
    {
      "byteLength": 1110912,
      "uri": "scene.bin"
    }
  ],
  "extensionsUsed": [
    "KHR_materials_specular"
  ],
  "images": [
    {
      "uri": "textures/Wolf3D_Eye_baseColor.jpeg"
    },
    {
      "uri": "textures/Wolf3D_Skin_baseColor.jpeg"
    },
    {
      "uri": "textures/Wolf3D_Teeth_baseColor.jpeg"
    },
    {
      "uri": "textures/Wolf3D_Teeth_specularf0.png"
    },
    {
      "uri": "textures/Wolf3D_Hair_baseColor.jpeg"
    },
    {
      "uri": "textures/Wolf3D_Hair_normal.jpeg"
    },
    {
      "uri": "textures/Wolf3D_Outfit_Top_baseColor.jpeg"
    },
    {
      "uri": "textures/Wolf3D_Outfit_Top_metallicRoughness.png"
    },
    {
      "uri": "textures/Wolf3D_Outfit_Top_normal.jpeg"
    },
    {
      "uri": "textures/Wolf3D_Outfit_Bottom_baseColor.jpeg"
    },
    {
      "uri": "textures/Wolf3D_Outfit_Bottom_metallicRoughness.png"
    },
    {
      "uri": "textures/Wolf3D_Outfit_Bottom_normal.jpeg"
    },
    {
      "uri": "textures/Wolf3D_Outfit_Footwear_baseColor.jpeg"
    },
    {
      "uri": "textures/Wolf3D_Outfit_Footwear_metallicRoughness.png"
    },
    {
      "uri": "textures/Wolf3D_Outfit_Footwear_normal.jpeg"
    },
    {
      "uri": "textures/Wolf3D_Body_baseColor.jpeg"
    }
  ],
  "materials": [
    {
      "name": "Wolf3D_Eye",
      "pbrMetallicRoughness": {
        "baseColorTexture": {
          "index": 0
        },
        "metallicFactor": 0.0
      }
    },
    {
      "name": "Wolf3D_Skin",
      "pbrMetallicRoughness": {
        "baseColorTexture": {
          "index": 1
        },
        "metallicFactor": 0.0,
        "roughnessFactor": 0.7
      }
    },
    {
      "doubleSided": true,
      "extensions": {
        "KHR_materials_specular": {
          "specularColorFactor": [
            1.0,
            1.0,
            1.0
          ],
          "specularFactor": 1.0,
          "specularTexture": {
            "index": 3
          }
        }
      },
      "name": "Wolf3D_Teeth",
      "pbrMetallicRoughness": {
        "baseColorTexture": {
          "index": 2
        },
        "metallicFactor": 0.0
      }
    },
    {
      "doubleSided": true,
      "name": "Wolf3D_Hair",
      "normalTexture": {
        "index": 5
      },
      "pbrMetallicRoughness": {
        "baseColorTexture": {
          "index": 4
        },
        "metallicFactor": 0.0,
        "roughnessFactor": 0.782837
      }
    },
    {
      "name": "Wolf3D_Outfit_Top",
      "normalTexture": {
        "index": 8
      },
      "pbrMetallicRoughness": {
        "baseColorTexture": {
          "index": 6
        },
        "metallicFactor": 0.5,
        "metallicRoughnessTexture": {
          "index": 7
        }
      }
    },
    {
      "name": "Wolf3D_Outfit_Bottom",
      "normalTexture": {
        "index": 11
      },
      "pbrMetallicRoughness": {
        "baseColorTexture": {
          "index": 9
        },
        "metallicRoughnessTexture": {
          "index": 10
        }
      }
    },
    {
      "name": "Wolf3D_Outfit_Footwear",
      "normalTexture": {
        "index": 14
      },
      "pbrMetallicRoughness": {
        "baseColorTexture": {
          "index": 12
        },
        "metallicRoughnessTexture": {
          "index": 13
        }
      }
    },
    {
      "doubleSided": true,
      "extensions": {
        "KHR_materials_specular": {
          "specularColorFactor": [
            1.0,
            1.0,
            1.0
          ],
          "specularFactor": 1.0
        }
      },
      "name": "Wolf3D_Body",
      "pbrMetallicRoughness": {
        "baseColorTexture": {
          "index": 15
        },
        "metallicFactor": 0.0,
        "roughnessFactor": 0.552786
      }
    }
  ],
  "meshes": [
    {
      "name": "mesh_0",
      "primitives": [
        {
          "attributes": {
            "JOINTS_0": 41,
            "NORMAL": 1,
            "POSITION": 0,
            "TEXCOORD_0": 2,
            "WEIGHTS_0": 42
          },
          "indices": 3,
          "material": 0,
          "mode": 4
        }
      ]
    },
    {
      "name": "mesh_1",
      "primitives": [
        {
          "attributes": {
            "JOINTS_0": 43,
            "NORMAL": 5,
            "POSITION": 4,
            "TEXCOORD_0": 6,
            "WEIGHTS_0": 44
          },
          "indices": 7,
          "material": 0,
          "mode": 4
        }
      ]
    },
    {
      "name": "mesh_2",
      "primitives": [
        {
          "attributes": {
            "JOINTS_0": 45,
            "NORMAL": 9,
            "POSITION": 8,
            "TEXCOORD_0": 10,
            "WEIGHTS_0": 46
          },
          "indices": 11,
          "material": 1,
          "mode": 4
        }
      ]
    },
    {
      "name": "mesh_3",
      "primitives": [
        {
          "attributes": {
            "JOINTS_0": 47,
            "NORMAL": 13,
            "POSITION": 12,
            "TEXCOORD_0": 14,
            "WEIGHTS_0": 48
          },
          "indices": 15,
          "material": 2,
          "mode": 4
        }
      ]
    },
    {
      "name": "Object_4",
      "primitives": [
        {
          "attributes": {
            "JOINTS_0": 49,
            "NORMAL": 17,
            "POSITION": 16,
            "TANGENT": 18,
            "TEXCOORD_0": 19,
            "TEXCOORD_1": 19,
            "WEIGHTS_0": 50
          },
          "indices": 20,
          "material": 3,
          "mode": 4
        }
      ]
    },
    {
      "name": "Object_5",
      "primitives": [
        {
          "attributes": {
            "JOINTS_0": 51,
            "NORMAL": 22,
            "POSITION": 21,
            "TANGENT": 23,
            "TEXCOORD_0": 24,
            "TEXCOORD_1": 24,
            "TEXCOORD_2": 24,
            "TEXCOORD_3": 24,
            "WEIGHTS_0": 52
          },
          "indices": 25,
          "material": 4,
          "mode": 4
        }
      ]
    },
    {
      "name": "Object_6",
      "primitives": [
        {
          "attributes": {
            "JOINTS_0": 53,
            "NORMAL": 27,
            "POSITION": 26,
            "TANGENT": 28,
            "TEXCOORD_0": 29,
            "TEXCOORD_1": 29,
            "TEXCOORD_2": 29,
            "TEXCOORD_3": 29,
            "WEIGHTS_0": 54
          },
          "indices": 30,
          "material": 5,
          "mode": 4
        }
      ]
    },
    {
      "name": "Object_7",
      "primitives": [
        {
          "attributes": {
            "JOINTS_0": 55,
            "NORMAL": 32,
            "POSITION": 31,
            "TANGENT": 33,
            "TEXCOORD_0": 34,
            "TEXCOORD_1": 34,
            "TEXCOORD_2": 34,
            "TEXCOORD_3": 34,
            "WEIGHTS_0": 56
          },
          "indices": 35,
          "material": 6,
          "mode": 4
        }
      ]
    },
    {
      "name": "Object_8",
      "primitives": [
        {
          "attributes": {
            "JOINTS_0": 57,
            "NORMAL": 37,
            "POSITION": 36,
            "TEXCOORD_0": 38,
            "WEIGHTS_0": 58
          },
          "indices": 39,
          "material": 7,
          "mode": 4
        }
      ]
    }
  ],
  "nodes": [
    {
      "children": [
        1
      ],
      "matrix": [
        1.0,
        0.0,
        0.0,
        0.0,
        0.0,
        2.220446049250313e-16,
        -1.0,
        0.0,
        0.0,
        1.0,
        2.220446049250313e-16,
        0.0,
        0.0,
        0.0,
        0.0,
        1.0
      ],
      "name": "Sketchfab_model"
    },
    {
      "children": [
        2
      ],
      "name": "root"
    },
    {
      "children": [
        3
      ],
      "matrix": [
        1.0,
        0.0,
        0.0,
        0.0,
        0.0,
        2.220446049250313e-16,
        1.0,
        0.0,
        0.0,
        -1.0,
        2.220446049250313e-16,
        0.0,
        0.0,
        0.0,
        0.0,
        1.0
      ],
      "name": "GLTF_SceneRootNode"
    },
    {
      "children": [
        4
      ],
      "name": "Armature_71"
    },
    {
      "children": [
        5,
        7,
        9,
        11,
        13,
        15,
        17,
        19,
        21,
        23,
        6,
        8,
        10,
        12,
        14,
        16,
        18,
        20,
        22
      ],
      "name": "GLTF_created_0"
    },
    {
      "children": [
        24
      ],
      "name": "GLTF_created_0_rootJoint"
    },
    {
      "name": "EyeLeft_67"
    },
    {
      "mesh": 0,
      "name": "Object_7",
      "skin": 0
    },
    {
      "name": "EyeRight_68"
    },
    {
      "mesh": 1,
      "name": "Object_9",
      "skin": 0
    },
    {
      "name": "Wolf3D_Head_69"
    },
    {
      "mesh": 2,
      "name": "Object_11",
      "skin": 0
    },
    {
      "name": "Wolf3D_Teeth_70"
    },
    {
      "mesh": 3,
      "name": "Object_13",
      "skin": 0
    },
    {
      "name": "Wolf3D_Hair_72"
    },
    {
      "mesh": 4,
      "name": "Object_15",
      "skin": 0
    },
    {
      "name": "Wolf3D_Outfit_Top_73"
    },
    {
      "mesh": 5,
      "name": "Object_17",
      "skin": 0
    },
    {
      "name": "Wolf3D_Outfit_Bottom_74"
    },
    {
      "mesh": 6,
      "name": "Object_19",
      "skin": 0
    },
    {
      "name": "Wolf3D_Outfit_Footwear_75"
    },
    {
      "mesh": 7,
      "name": "Object_21",
      "skin": 0
    },
    {
      "name": "Wolf3D_Body_76"
    },
    {
      "mesh": 8,
      "name": "Object_23",
      "skin": 0
    },
    {
      "children": [
        25,
        81,
        86
      ],
      "name": "Hips_66",
      "rotation": [
        -0.02997763827443123,
        -2.613988363009412e-05,
        7.83971017881413e-07,
        0.9995505809783936
      ],
      "translation": [
        -3.8782453810892736e-14,
        1.0369641780853271,
        0.04042892903089523
      ]
    },
    {
      "children": [
        26
      ],
      "name": "Spine_55",
      "rotation": [
        -0.01378575898706913,
        2.6295949282939546e-05,
        3.5855734381584625e-07,
        0.999904990196228
      ],
      "translation": [
        2.371583181573489e-12,
        0.09636257588863373,
        4.842877388000488e-08
      ]
    },
    {
      "children": [
        27
      ],
      "name": "Spine1_54",
      "rotation": [
        -0.036357007920742035,
        1.0713144860119428e-07,
        9.714353410572585e-08,
        0.9993388652801514
      ],
      "translation": [
        -1.61034380274927e-14,
        0.09147483110427856,
        5.587935447692871e-09
      ]
    },
    {
      "children": [
        28,
        33,
        57
      ],
      "name": "Spine2_53",
      "rotation": [
        0.06359203904867172,
        -1.4132849912584788e-07,
        -8.81900064086949e-08,
        0.9979760050773621
      ],
      "translation": [
        4.75175454539567e-14,
        0.12162108719348907,
        3.492458233722573e-08
      ]
    },
    {
      "children": [
        29
      ],
      "name": "Neck_4",
      "rotation": [
        0.13964606821537018,
        3.194485387325585e-08,
        -1.0857819887633013e-07,
        0.9902015328407288
      ],
      "translation": [
        9.547918011776346e-15,
        0.12444116920232773,
        -5.33182245021635e-08
      ]
    },
    {
      "children": [
        30,
        31,
        32
      ],
      "name": "Head_3",
      "rotation": [
        -0.053361568599939346,
        4.920717699974375e-08,
        1.2379730662814836e-07,
        0.9985752701759338
      ],
      "translation": [
        -7.904787935331115e-14,
        0.09079491347074509,
        4.6566128730773926e-08
      ]
    },
    {
      "name": "HeadTop_End_0",
      "rotation": [
        -0.07446524500846863,
        -4.348652637986561e-08,
        -2.0503229336554796e-08,
        0.9972236156463623
      ],
      "translation": [
        1.8936241463762826e-14,
        0.18131649494171143,
        1.1175870895385742e-08
      ]
    },
    {
      "name": "LeftEye_1",
      "rotation": [
        -0.07016068696975708,
        -4.531622010972569e-08,
        -2.9391362232900065e-08,
        0.9975357055664063
      ],
      "translation": [
        0.03412298485636711,
        0.0873832181096077,
        0.0659482404589653
      ]
    },
    {
      "name": "RightEye_2",
      "rotation": [
        -0.07016068696975708,
        -4.5316234320580406e-08,
        -2.9391360456543225e-08,
        0.9975357055664063
      ],
      "translation": [
        -0.03412284702062607,
        0.08732408285140991,
        0.06595654785633087
      ]
    },
    {
      "children": [
        34
      ],
      "name": "LeftShoulder_28",
      "rotation": [
        0.41956812143325806,
        0.5679278373718262,
        -0.5267448425292969,
        0.47324466705322266
      ],
      "translation": [
        0.06222344934940338,
        0.10491080582141876,
        -0.012486676685512066
      ]
    },
    {
      "children": [
        35
      ],
      "name": "LeftArm_27",
      "rotation": [
        0.04449058696627617,
        0.03386690095067024,
        0.10194098204374313,
        0.9932178258895874
      ],
      "translation": [
        4.842877388000488e-08,
        0.06534256041049957,
        -1.1338852345943451e-07
      ]
    },
    {
      "children": [
        36
      ],
      "name": "LeftForeArm_26",
      "rotation": [
        0.017206577584147453,
        -0.00530537124723196,
        0.0005573615781031549,
        0.9998377561569214
      ],
      "translation": [
        2.0881998352706432e-08,
        0.2688444256782532,
        1.3809767551720142e-07
      ]
    },
    {
      "children": [
        37,
        41,
        45,
        49,
        53
      ],
      "name": "LeftHand_25",
      "rotation": [
        -0.05960969254374504,
        -0.08858368545770645,
        -0.032778169959783554,
        0.9937430620193481
      ],
      "translation": [
        2.1903542801737785e-07,
        0.25737640261650085,
        2.769229467958212e-07
      ]
    },
    {
      "children": [
        38
      ],
      "name": "LeftHandThumb1_8",
      "rotation": [
        0.30044713616371155,
        0.07509937882423401,
        0.2504822611808777,
        0.9172515273094177
      ],
      "translation": [
        -0.016604572534561157,
        0.014298760332167149,
        0.01593269221484661
      ]
    },
    {
      "children": [
        39
      ],
      "name": "LeftHandThumb2_7",
      "rotation": [
        0.004878836218267679,
        -0.02007760852575302,
        0.004869207739830017,
        0.999774694442749
      ],
      "translation": [
        -2.905726432800293e-07,
        0.034079138189554214,
        -1.685693860054016e-07
      ]
    },
    {
      "children": [
        40
      ],
      "name": "LeftHandThumb3_6",
      "rotation": [
        8.740308840060607e-05,
        0.0026031050365418196,
        0.00010614503116812557,
        0.9999966025352478
      ],
      "translation": [
        1.9744038581848145e-07,
        0.031169474124908447,
        3.273598849773407e-07
      ]
    },
    {
      "name": "LeftHandThumb4_5",
      "rotation": [
        -0.032718971371650696,
        0.02971002086997032,
        0.04319825395941734,
        0.998088538646698
      ],
      "translation": [
        -5.699694156646729e-07,
        0.03377922624349594,
        -3.003515303134918e-08
      ]
    },
    {
      "children": [
        42
      ],
      "name": "LeftHandIndex1_12",
      "rotation": [
        0.06044154241681099,
        -0.01126523781567812,
        0.025709256529808044,
        0.9977770447731018
      ],
      "translation": [
        -0.021300284191966057,
        0.08553483337163925,
        0.014612231403589249
      ]
    },
    {
      "children": [
        43
      ],
      "name": "LeftHandIndex2_11",
      "rotation": [
        0.00212187715806067,
        0.033491358160972595,
        0.0009771963814273477,
        0.9994363784790039
      ],
      "translation": [
        5.168840289115906e-08,
        0.032220494002103806,
        2.1117739379405975e-07
      ]
    },
    {
      "children": [
        44
      ],
      "name": "LeftHandIndex3_10",
      "rotation": [
        4.938197889714502e-05,
        -0.046992670744657516,
        2.0104007489862852e-05,
        0.9988952875137329
      ],
      "translation": [
        -1.7206184566020966e-07,
        0.02831680327653885,
        -3.7427525967359543e-07
      ]
    },
    {
      "name": "LeftHandIndex4_9",
      "rotation": [
        -0.06403238326311111,
        0.04265811666846275,
        -0.030693860724568367,
        0.9965631365776062
      ],
      "translation": [
        -1.0803341865539551e-07,
        0.025588413700461388,
        -8.777715265750885e-08
      ]
    },
    {
      "children": [
        46
      ],
      "name": "LeftHandMiddle1_16",
      "rotation": [
        0.06066953390836716,
        -0.004673078190535307,
        0.026287538930773735,
        0.9978007674217224
      ],
      "translation": [
        -0.004846017807722092,
        0.084062859416008,
        0.010732166469097137
      ]
    },
    {
      "children": [
        47
      ],
      "name": "LeftHandMiddle2_15",
      "rotation": [
        0.001744536217302084,
        0.023169446736574173,
        0.000796812935732305,
        0.9997297525405884
      ],
      "translation": [
        -1.695007085800171e-07,
        0.03819398581981659,
        2.9802322387695313e-08
      ]
    },
    {
      "children": [
        48
      ],
      "name": "LeftHandMiddle3_14",
      "rotation": [
        4.584435737342574e-05,
        -0.0072566550225019455,
        2.0184914319543168e-05,
        0.9999736547470093
      ],
      "translation": [
        3.9814040064811707e-08,
        0.03219451755285263,
        -4.4191256165504456e-07
      ]
    },
    {
      "name": "LeftHandMiddle4_13",
      "rotation": [
        -0.0793355330824852,
        0.002267745789140463,
        -0.02302393689751625,
        0.9965794682502747
      ],
      "translation": [
        3.026798367500305e-08,
        0.024585094302892685,
        9.895302355289459e-08
      ]
    },
    {
      "children": [
        50
      ],
      "name": "LeftHandRing1_20",
      "rotation": [
        0.05966517701745033,
        0.014867359772324562,
        0.027253203094005585,
        0.9977356791496277
      ],
      "translation": [
        0.01677119731903076,
        0.08656328171491623,
        0.008758013136684895
      ]
    },
    {
      "children": [
        51
      ],
      "name": "LeftHandRing2_19",
      "rotation": [
        0.002163692843168974,
        0.01963147334754467,
        0.0010895093437284231,
        0.9998043775558472
      ],
      "translation": [
        -7.450580596923828e-08,
        0.03037935309112072,
        -2.2957101464271545e-07
      ]
    },
    {
      "children": [
        52
      ],
      "name": "LeftHandRing3_18",
      "rotation": [
        6.099471283960156e-05,
        -0.013065379112958908,
        2.774215317913331e-05,
        0.9999146461486816
      ],
      "translation": [
        -7.799826562404633e-08,
        0.02831633761525154,
        5.4016709327697754e-08
      ]
    },
    {
      "name": "LeftHandRing4_17",
      "rotation": [
        -0.015983331948518753,
        0.003182608401402831,
        0.02055629901587963,
        0.9996559619903564
      ],
      "translation": [
        3.702007234096527e-08,
        0.02125087007880211,
        8.847564458847046e-08
      ]
    },
    {
      "children": [
        54
      ],
      "name": "LeftHandPinky1_24",
      "rotation": [
        0.05988634005188942,
        0.007872079499065876,
        0.02685397118330002,
        0.9978128671646118
      ],
      "translation": [
        0.03258342295885086,
        0.07914780080318451,
        0.005490422248840332
      ]
    },
    {
      "children": [
        55
      ],
      "name": "LeftHandPinky2_23",
      "rotation": [
        0.0020976318046450615,
        0.03420943394303322,
        0.001055801403708756,
        0.999411940574646
      ],
      "translation": [
        3.4458935260772705e-08,
        0.027637658640742302,
        -1.7974525690078735e-07
      ]
    },
    {
      "children": [
        56
      ],
      "name": "LeftHandPinky3_22",
      "rotation": [
        7.992260361788794e-05,
        -0.03482900187373161,
        4.5970893552294e-05,
        0.9993932843208313
      ],
      "translation": [
        6.845220923423767e-08,
        0.01765657588839531,
        2.5797635316848755e-07
      ]
    },
    {
      "name": "LeftHandPinky4_21",
      "rotation": [
        -0.03942339867353439,
        0.021943140774965286,
        0.010463153012096882,
        0.9989269375801086
      ],
      "translation": [
        -3.259629011154175e-08,
        0.013380663469433784,
        6.239861249923706e-08
      ]
    },
    {
      "children": [
        58
      ],
      "name": "RightShoulder_52",
      "rotation": [
        0.4195707440376282,
        -0.5679253339767456,
        0.5267477035522461,
        0.47324225306510925
      ],
      "translation": [
        -0.06222335621714592,
        0.10491140186786652,
        -0.012486684136092663
      ]
    },
    {
      "children": [
        59
      ],
      "name": "RightArm_51",
      "rotation": [
        0.04448465257883072,
        -0.03386678174138069,
        -0.10194085538387299,
        0.9932181239128113
      ],
      "translation": [
        -7.82310962677002e-08,
        0.06534302234649658,
        5.281181074678898e-07
      ]
    },
    {
      "children": [
        60
      ],
      "name": "RightForeArm_50",
      "rotation": [
        0.017206020653247833,
        0.005305686499923468,
        -0.0005564551684074104,
        0.9998377561569214
      ],
      "translation": [
        1.0634539648890495e-07,
        0.2688441574573517,
        -9.071663953363895e-08
      ]
    },
    {
      "children": [
        61,
        65,
        69,
        73,
        77
      ],
      "name": "RightHand_49",
      "rotation": [
        -0.05960160121321678,
        0.0885852798819542,
        0.03277930989861488,
        0.993743360042572
      ],
      "translation": [
        1.3614771887660027e-07,
        0.25737500190734863,
        1.31258275359869e-08
      ]
    },
    {
      "children": [
        62
      ],
      "name": "RightHandThumb1_32",
      "rotation": [
        0.3004336953163147,
        -0.07510114461183548,
        -0.2504674196243286,
        0.9172598123550415
      ],
      "translation": [
        0.01660488173365593,
        0.014299130998551846,
        0.01593298278748989
      ]
    },
    {
      "children": [
        63
      ],
      "name": "RightHandThumb2_31",
      "rotation": [
        0.004885483533143997,
        0.020073967054486275,
        -0.004885789472609758,
        0.999774694442749
      ],
      "translation": [
        -2.7567148208618164e-07,
        0.034079041332006454,
        9.383074939250946e-08
      ]
    },
    {
      "children": [
        64
      ],
      "name": "RightHandThumb3_30",
      "rotation": [
        7.567674038000405e-05,
        -0.0025994025636464357,
        -9.393909567734227e-05,
        0.9999966025352478
      ],
      "translation": [
        1.993030309677124e-07,
        0.031169304624199867,
        -2.4423934519290924e-07
      ]
    },
    {
      "name": "RightHandThumb4_29",
      "rotation": [
        -0.03271646425127983,
        -0.029702596366405487,
        -0.043205685913562775,
        0.9980885982513428
      ],
      "translation": [
        9.797513484954834e-07,
        0.03377941995859146,
        3.306195139884949e-08
      ]
    },
    {
      "children": [
        66
      ],
      "name": "RightHandIndex1_36",
      "rotation": [
        0.06042523309588432,
        0.011264828033745289,
        -0.025718262419104576,
        0.9977777600288391
      ],
      "translation": [
        0.02130039595067501,
        0.08553498238325119,
        0.014612482860684395
      ]
    },
    {
      "children": [
        67
      ],
      "name": "RightHandIndex2_35",
      "rotation": [
        0.002136209048330784,
        -0.03350275009870529,
        -0.0009613459114916623,
        0.9994359016418457
      ],
      "translation": [
        -4.470348358154297e-08,
        0.032221175730228424,
        -1.51805579662323e-07
      ]
    },
    {
      "children": [
        68
      ],
      "name": "RightHandIndex3_34",
      "rotation": [
        5.0729504437185824e-05,
        0.04700654000043869,
        -2.427306753816083e-05,
        0.9988946318626404
      ],
      "translation": [
        7.12461769580841e-08,
        0.028316248208284378,
        -9.14442352950573e-08
      ]
    },
    {
      "name": "RightHandIndex4_33",
      "rotation": [
        -0.06403391808271408,
        -0.04265895485877991,
        0.030688758939504623,
        0.9965631365776062
      ],
      "translation": [
        1.6065314412117004e-07,
        0.025588342919945717,
        -1.30385160446167e-08
      ]
    },
    {
      "children": [
        70
      ],
      "name": "RightHandMiddle1_40",
      "rotation": [
        0.06065606325864792,
        0.004672406706959009,
        -0.026290936395525932,
        0.9978014826774597
      ],
      "translation": [
        0.004850717261433601,
        0.08382298052310944,
        0.010623376816511154
      ]
    },
    {
      "children": [
        71
      ],
      "name": "RightHandMiddle2_39",
      "rotation": [
        0.0017315098084509373,
        -0.02317381277680397,
        -0.0007930968422442675,
        0.9997296333312988
      ],
      "translation": [
        2.561137080192566e-07,
        0.03819400444626808,
        -1.6740523278713226e-07
      ]
    },
    {
      "children": [
        72
      ],
      "name": "RightHandMiddle3_38",
      "rotation": [
        6.796553498134017e-05,
        0.007259827572852373,
        -2.33463870245032e-05,
        0.9999736547470093
      ],
      "translation": [
        -1.8649734556674957e-07,
        0.03219400718808174,
        -2.093147486448288e-07
      ]
    },
    {
      "name": "RightHandMiddle4_37",
      "rotation": [
        -0.0793367475271225,
        -0.0022692198399454355,
        0.02302481047809124,
        0.9965793490409851
      ],
      "translation": [
        -7.450580596923828e-08,
        0.024584835395216942,
        1.8533319234848022e-07
      ]
    },
    {
      "children": [
        74
      ],
      "name": "RightHandRing1_44",
      "rotation": [
        0.05965268984436989,
        -0.014867675490677357,
        -0.02726534567773342,
        0.9977360367774963
      ],
      "translation": [
        -0.016713496297597885,
        0.08634713292121887,
        0.008878912776708603
      ]
    },
    {
      "children": [
        75
      ],
      "name": "RightHandRing2_43",
      "rotation": [
        0.002179895993322134,
        -0.019633015617728233,
        -0.0010710813803598285,
        0.9998043179512024
      ],
      "translation": [
        5.3085386753082275e-08,
        0.03037954308092594,
        3.543682396411896e-07
      ]
    },
    {
      "children": [
        76
      ],
      "name": "RightHandRing3_42",
      "rotation": [
        3.343890784890391e-05,
        0.01305409986525774,
        -3.591911809053272e-05,
        0.9999148845672607
      ],
      "translation": [
        -1.026783138513565e-07,
        0.028316887095570564,
        -2.9709190130233765e-07
      ]
    },
    {
      "name": "RightHandRing4_41",
      "rotation": [
        -0.015972601249814034,
        -0.0031685959547758102,
        -0.02056013233959675,
        0.9996560215950012
      ],
      "translation": [
        2.3050233721733093e-07,
        0.021251503378152847,
        4.1443854570388794e-08
      ]
    },
    {
      "children": [
        78
      ],
      "name": "RightHandPinky1_48",
      "rotation": [
        0.05985673889517784,
        -0.00787842832505703,
        -0.0268578939139843,
        0.9978145360946655
      ],
      "translation": [
        -0.032604821026325226,
        0.07897959649562836,
        0.005533745512366295
      ]
    },
    {
      "children": [
        79
      ],
      "name": "RightHandPinky2_47",
      "rotation": [
        0.002117936033755541,
        -0.034217290580272675,
        -0.0010480026248842478,
        0.9994116425514221
      ],
      "translation": [
        1.6298145055770874e-08,
        0.02763848379254341,
        7.729977369308472e-08
      ]
    },
    {
      "children": [
        80
      ],
      "name": "RightHandPinky3_46",
      "rotation": [
        0.00011236878344789147,
        0.03483818098902702,
        -3.8692407542839646e-05,
        0.9993929862976074
      ],
      "translation": [
        9.569339454174042e-08,
        0.017655571922659874,
        -3.1990930438041687e-07
      ]
    },
    {
      "name": "RightHandPinky4_45",
      "rotation": [
        -0.039431143552064896,
        -0.021952494978904724,
        -0.010463407263159752,
        0.9989263415336609
      ],
      "translation": [
        -6.612390279769897e-08,
        0.013381497003138065,
        1.2665987014770508e-07
      ]
    },
    {
      "children": [
        82
      ],
      "name": "LeftUpLeg_60",
      "rotation": [
        0.0009422435541637242,
        0.029493577778339386,
        -0.999564528465271,
        0.0004390727845020592
      ],
      "scale": [
        0.9999781847000122,
        0.9999979734420776,
        0.9999402165412903
      ],
      "translation": [
        0.09545622020959854,
        -0.019579347223043442,
        0.002779647009447217
      ]
    },
    {
      "children": [
        83
      ],
      "name": "LeftLeg_59",
      "rotation": [
        -0.03493078425526619,
        0.00033850211184471846,
        -0.0010139942169189453,
        0.9993891716003418
      ],
      "translation": [
        2.7408532332628965e-08,
        0.44750872254371643,
        -7.0285750553011894e-09
      ]
    },
    {
      "children": [
        84
      ],
      "name": "LeftFoot_58",
      "rotation": [
        0.47702905535697937,
        -0.023216666653752327,
        -0.014647341333329678,
        0.8784587383270264
      ],
      "translation": [
        2.663000486791134e-09,
        0.4495605230331421,
        -3.8708094507455826e-09
      ]
    },
    {
      "children": [
        85
      ],
      "name": "LeftToeBase_57",
      "rotation": [
        0.3294900357723236,
        -0.00500469421967864,
        0.01090314518660307,
        0.9440828561782837
      ],
      "scale": [
        0.9999992251396179,
        1.0000860691070557,
        0.9999152421951294
      ],
      "translation": [
        2.584420144557953e-08,
        0.15657489001750946,
        -6.239861249923706e-08
      ]
    },
    {
      "name": "LeftToe_End_56",
      "rotation": [
        0.010869155637919903,
        0.7238346934318542,
        -0.030556101351976395,
        0.689210832118988
      ],
      "translation": [
        -5.3085386753082275e-08,
        0.08319719135761261,
        -8.381903171539307e-09
      ]
    },
    {
      "children": [
        87
      ],
      "name": "RightUpLeg_65",
      "rotation": [
        0.0009991213446483016,
        -0.02946508675813675,
        0.9995653033256531,
        0.00043958137393929064
      ],
      "scale": [
        0.9999939799308777,
        1.0000001192092896,
        0.9999813437461853
      ],
      "translation": [
        -0.09545597434043884,
        -0.019579941406846046,
        0.0027895874809473753
      ]
    },
    {
      "children": [
        88
      ],
      "name": "RightLeg_64",
      "rotation": [
        -0.03493073210120201,
        -0.0003391744685359299,
        0.0010142290266230702,
        0.9993891716003418
      ],
      "translation": [
        7.092603482306004e-08,
        0.4475090503692627,
        -1.9717845134437084e-08
      ]
    },
    {
      "children": [
        89
      ],
      "name": "RightFoot_63",
      "rotation": [
        0.4770490229129791,
        0.02321893349289894,
        0.014639829285442829,
        0.878447949886322
      ],
      "translation": [
        -7.205017027445138e-08,
        0.44955936074256897,
        2.6659108698368073e-08
      ]
    },
    {
      "children": [
        90
      ],
      "name": "RightToeBase_62",
      "rotation": [
        0.32949355244636536,
        0.0051020486280322075,
        -0.010896689258515835,
        0.94408118724823
      ],
      "scale": [
        0.9999998211860657,
        1.0000277757644653,
        0.9999726414680481
      ],
      "translation": [
        2.9336661100387573e-08,
        0.1565721333026886,
        -2.3748725652694702e-08
      ]
    },
    {
      "name": "RightToe_End_61",
      "rotation": [
        0.01627291925251484,
        -0.7089110016822815,
        0.02442040666937828,
        0.704687237739563
      ],
      "translation": [
        -2.922024577856064e-08,
        0.0831959918141365,
        -1.1641532182693481e-08
      ]
    }
  ],
  "samplers": [
    {
      "magFilter": 9729,
      "minFilter": 9729,
      "wrapS": 10497,
      "wrapT": 10497
    },
    {
      "magFilter": 9729,
      "minFilter": 9987,
      "wrapS": 10497,
      "wrapT": 10497
    },
    {
      "magFilter": 9729,
      "minFilter": 9987,
      "wrapS": 33071,
      "wrapT": 33071
    }
  ],
  "scene": 0,
  "scenes": [
    {
      "name": "Sketchfab_Scene",
      "nodes": [
        0
      ]
    }
  ],
  "skins": [
    {
      "inverseBindMatrices": 40,
      "joints": [
        5,
        24,
        25,
        26,
        27,
        28,
        29,
        30,
        31,
        32,
        33,
        34,
        35,
        36,
        37,
        38,
        39,
        40,
        41,
        42,
        43,
        44,
        45,
        46,
        47,
        48,
        49,
        50,
        51,
        52,
        53,
        54,
        55,
        56,
        57,
        58,
        59,
        60,
        61,
        62,
        63,
        64,
        65,
        66,
        67,
        68,
        69,
        70,
        71,
        72,
        73,
        74,
        75,
        76,
        77,
        78,
        79,
        80,
        81,
        82,
        83,
        84,
        85,
        86,
        87,
        88,
        89,
        90
      ],
      "skeleton": 5
    }
  ],
  "textures": [
    {
      "sampler": 0,
      "source": 0
    },
    {
      "sampler": 0,
      "source": 1
    },
    {
      "sampler": 1,
      "source": 2
    },
    {
      "sampler": 1,
      "source": 3
    },
    {
      "sampler": 0,
      "source": 4
    },
    {
      "sampler": 1,
      "source": 5
    },
    {
      "sampler": 2,
      "source": 6
    },
    {
      "sampler": 2,
      "source": 7
    },
    {
      "sampler": 2,
      "source": 8
    },
    {
      "sampler": 2,
      "source": 9
    },
    {
      "sampler": 2,
      "source": 10
    },
    {
      "sampler": 2,
      "source": 11
    },
    {
      "sampler": 2,
      "source": 12
    },
    {
      "sampler": 2,
      "source": 13
    },
    {
      "sampler": 2,
      "source": 14
    },
    {
      "sampler": 0,
      "source": 15
    }
  ]
}
