{
  "accessors": [
    {
      "bufferView": 2,
      "componentType": 5126,
      "count": 180,
      "max": [
        0.22478100657463074,
        -0.21381600201129913,
        0.9791669845581055
      ],
      "min": [
        0.17872799932956696,
        -0.25986799597740173,
        0.9682019948959351
      ],
      "type": "VEC3"
    },
    {
      "bufferView": 2,
      "byteOffset": 2160,
      "componentType": 5126,
      "count": 180,
      "max": [
        1.0,
        1.0,
        1.0
      ],
      "min": [
        -1.0,
        -1.0,
        0.0
      ],
      "type": "VEC3"
    },
    {
      "bufferView": 1,
      "componentType": 5126,
      "count": 180,
      "max": [
        0.4140619933605194,
        0.7109379768371582
      ],
      "min": [
        0.3945310115814209,
        0.6914060115814209
      ],
      "type": "VEC2"
    },
    {
      "bufferView": 0,
      "componentType": 5125,
      "count": 270,
      "type": "SCALAR"
    },
    {
      "bufferView": 2,
      "byteOffset": 4320,
      "componentType": 5126,
      "count": 40,
      "max": [
        0.2105260044336319,
        -0.33333298563957214,
        0.7817980051040649
      ],
      "min": [
        0.1929820030927658,
        -0.3684209883213043,
        0.7719299793243408
      ],
      "type": "VEC3"
    },
    {
      "bufferView": 2,
      "byteOffset": 4800,
      "componentType": 5126,
      "count": 40,
      "max": [
        1.0,
        1.0,
        1.0
      ],
      "min": [
        -1.0,
        -1.0,
        -1.0
      ],
      "type": "VEC3"
    },
    {
      "bufferView": 1,
      "byteOffset": 1440,
      "componentType": 5126,
      "count": 40,
      "max": [
        0.8417969942092896,
        0.9980469942092896
      ],
      "min": [
        0.14257800579071045,
        0.7910159826278687
      ],
      "type": "VEC2"
    },
    {
      "bufferView": 0,
      "byteOffset": 1080,
      "componentType": 5125,
      "count": 60,
      "type": "SCALAR"
    },
    {
      "bufferView": 2,
      "byteOffset": 5280,
      "componentType": 5126,
      "count": 3504,
      "max": [
        0.26315799355506897,
        -0.1754390001296997,
        0.7719299793243408
      ],
      "min": [
        0.14035099744796753,
        -0.29824599623680115,
        0.035087700933218
      ],
      "type": "VEC3"
    },
    {
      "bufferView": 2,
      "byteOffset": 47328,
      "componentType": 5126,
      "count": 3504,
      "max": [
        1.0,
        1.0,
        1.0
      ],
      "min": [
        -1.0,
        -1.0,
        -1.0
      ],
      "type": "VEC3"
    },
    {
      "bufferView": 1,
      "byteOffset": 1760,
      "componentType": 5126,
      "count": 3504,
      "max": [
        0.6660159826278687,
        0.7519530057907104
      ],
      "min": [
        0.6347659826278687,
        0.7207030057907104
      ],
      "type": "VEC2"
    },
    {
      "bufferView": 0,
      "byteOffset": 1320,
      "componentType": 5125,
      "count": 5490,
      "type": "SCALAR"
    },
    {
      "bufferView": 2,
      "byteOffset": 89376,
      "componentType": 5126,
      "count": 36,
      "max": [
        0.22807000577449799,
        -0.2105260044336319,
        0.9649119973182678
      ],
      "min": [
        0.1754390001296997,
        -0.26315799355506897,
        0.9649119973182678
      ],
      "type": "VEC3"
    },
    {
      "bufferView": 2,
      "byteOffset": 89808,
      "componentType": 5126,
      "count": 36,
      "max": [
        0.0,
        -0.0,
        1.0
      ],
      "min": [
        0.0,
        -0.0,
        1.0
      ],
      "type": "VEC3"
    },
    {
      "bufferView": 1,
      "byteOffset": 29792,
      "componentType": 5126,
      "count": 36,
      "max": [
        0.8417969942092896,
        0.9980469942092896
      ],
      "min": [
        0.8105469942092896,
        0.9667969942092896
      ],
      "type": "VEC2"
    },
    {
      "bufferView": 0,
      "byteOffset": 23280,
      "componentType": 5125,
      "count": 54,
      "type": "SCALAR"
    },
    {
      "bufferView": 2,
      "byteOffset": 90240,
      "componentType": 5126,
      "count": 340,
      "max": [
        0.35087698698043823,
        -0.01754390075802803,
        0.8245609998703003
      ],
      "min": [
        0.05263160169124603,
        -0.28070199489593506,
        0.035087700933218
      ],
      "type": "VEC3"
    },
    {
      "bufferView": 2,
      "byteOffset": 94320,
      "componentType": 5126,
      "count": 340,
      "max": [
        1.0,
        1.0,
        1.0
      ],
      "min": [
        -1.0,
        -1.0,
        0.0
      ],
      "type": "VEC3"
    },
    {
      "bufferView": 1,
      "byteOffset": 30080,
      "componentType": 5126,
      "count": 340,
      "max": [
        0.27929699420928955,
        0.9980469942092896
      ],
      "min": [
        0.14257800579071045,
        0.9316409826278687
      ],
      "type": "VEC2"
    },
    {
      "bufferView": 0,
      "byteOffset": 23496,
      "componentType": 5125,
      "count": 510,
      "type": "SCALAR"
    },
    {
      "bufferView": 2,
      "byteOffset": 98400,
      "componentType": 5126,
      "count": 208,
      "max": [
        0.3859649896621704,
        -0.22916699945926666,
        0.29824599623680115
      ],
      "min": [
        0.019736800342798233,
        -0.2445179969072342,
        0.28070199489593506
      ],
      "type": "VEC3"
    },
    {
      "bufferView": 2,
      "byteOffset": 100896,
      "componentType": 5126,
      "count": 208,
      "max": [
        1.0,
        1.0,
        1.0
      ],
      "min": [
        -1.0,
        -1.0,
        0.0
      ],
      "type": "VEC3"
    },
    {
      "bufferView": 1,
      "byteOffset": 32800,
      "componentType": 5126,
      "count": 208,
      "max": [
        0.6308590173721313,
        0.8222659826278687
      ],
      "min": [
        0.5664060115814209,
        0.7910159826278687
      ],
      "type": "VEC2"
    },
    {
      "bufferView": 0,
      "byteOffset": 25536,
      "componentType": 5125,
      "count": 312,
      "type": "SCALAR"
    },
    {
      "bufferView": 2,
      "byteOffset": 103392,
      "componentType": 5126,
      "count": 32,
      "max": [
        0.27789199352264404,
        -0.09052909910678864,
        0.684211015701294
      ],
      "min": [
        0.16070400178432465,
        -0.11999700218439102,
        0.5307019948959351
      ],
      "type": "VEC3"
    },
    {
      "bufferView": 2,
      "byteOffset": 103776,
      "componentType": 5126,
      "count": 32,
      "max": [
        0.7071068286895752,
        0.7071068286895752,
        0.0
      ],
      "min": [
        -0.7071068286895752,
        -0.7071068286895752,
        0.0
      ],
      "type": "VEC3"
    },
    {
      "bufferView": 1,
      "byteOffset": 34464,
      "componentType": 5126,
      "count": 32,
      "max": [
        0.06835939735174179,
        0.9628909826278687
      ],
      "min": [
        0.03710940107703209,
        0.9316409826278687
      ],
      "type": "VEC2"
    },
    {
      "bufferView": 0,
      "byteOffset": 26784,
      "componentType": 5125,
      "count": 48,
      "type": "SCALAR"
    },
    {
      "bufferView": 2,
      "byteOffset": 104160,
      "componentType": 5126,
      "count": 60,
      "max": [
        0.32675400376319885,
        -0.1995609998703003,
        0.807017982006073
      ],
      "min": [
        0.26973700523376465,
        -0.36184200644493103,
        0.532895028591156
      ],
      "type": "VEC3"
    },
    {
      "bufferView": 2,
      "byteOffset": 104880,
      "componentType": 5126,
      "count": 60,
      "max": [
        1.0,
        1.0,
        1.0
      ],
      "min": [
        -1.0,
        -1.0,
        0.0
      ],
      "type": "VEC3"
    },
    {
      "bufferView": 1,
      "byteOffset": 34720,
      "componentType": 5126,
      "count": 60,
      "max": [
        0.5136719942092896,
        0.9277340173721313
      ],
      "min": [
        0.5058590173721313,
        0.9082030057907104
      ],
      "type": "VEC2"
    },
    {
      "bufferView": 0,
      "byteOffset": 26976,
      "componentType": 5125,
      "count": 90,
      "type": "SCALAR"
    },
    {
      "bufferView": 2,
      "byteOffset": 105600,
      "componentType": 5126,
      "count": 3648,
      "max": [
        0.35087698698043823,
        -0.08771929889917374,
        0.7730259895324707
      ],
      "min": [
        0.05263160169124603,
        -0.3859649896621704,
        0.28070199489593506
      ],
      "type": "VEC3"
    },
    {
      "bufferView": 2,
      "byteOffset": 149376,
      "componentType": 5126,
      "count": 3648,
      "max": [
        1.0,
        1.0,
        1.0
      ],
      "min": [
        -1.0,
        -1.0,
        0.0
      ],
      "type": "VEC3"
    },
    {
      "bufferView": 1,
      "byteOffset": 35200,
      "componentType": 5126,
      "count": 3648,
      "max": [
        0.9121090173721313,
        0.8574219942092896
      ],
      "min": [
        0.35351601243019104,
        0.7558590173721313
      ],
      "type": "VEC2"
    },
    {
      "bufferView": 0,
      "byteOffset": 27336,
      "componentType": 5125,
      "count": 5472,
      "type": "SCALAR"
    },
    {
      "bufferView": 2,
      "byteOffset": 193152,
      "componentType": 5126,
      "count": 528,
      "max": [
        0.3859649896621704,
        -0.1929820030927658,
        0.29824599623680115
      ],
      "min": [
        0.01754390075802803,
        -0.28070199489593506,
        0.28070199489593506
      ],
      "type": "VEC3"
    },
    {
      "bufferView": 2,
      "byteOffset": 199488,
      "componentType": 5126,
      "count": 528,
      "max": [
        1.0,
        1.0,
        1.0
      ],
      "min": [
        -1.0,
        -1.0,
        -1.0
      ],
      "type": "VEC3"
    },
    {
      "bufferView": 1,
      "byteOffset": 64384,
      "componentType": 5126,
      "count": 528,
      "max": [
        0.9824219942092896,
        0.8574219942092896
      ],
      "min": [
        0.49414101243019104,
        0.7910159826278687
      ],
      "type": "VEC2"
    },
    {
      "bufferView": 0,
      "byteOffset": 49224,
      "componentType": 5125,
      "count": 960,
      "type": "SCALAR"
    },
    {
      "bufferView": 2,
      "byteOffset": 205824,
      "componentType": 5126,
      "count": 1984,
      "max": [
        0.38486799597740173,
        -0.10636000335216522,
        0.8223680257797241
      ],
      "min": [
        0.01864040084183216,
        -0.3673250079154968,
        0.28070199489593506
      ],
      "type": "VEC3"
    },
    {
      "bufferView": 2,
      "byteOffset": 229632,
      "componentType": 5126,
      "count": 1984,
      "max": [
        1.0,
        1.0,
        1.0
      ],
      "min": [
        -1.0,
        -1.0,
        -1.0
      ],
      "type": "VEC3"
    },
    {
      "bufferView": 1,
      "byteOffset": 68608,
      "componentType": 5126,
      "count": 1984,
      "max": [
        0.9804689884185791,
        0.9960939884185791
      ],
      "min": [
        0.0390625,
        0.6875
      ],
      "type": "VEC2"
    },
    {
      "bufferView": 0,
      "byteOffset": 53064,
      "componentType": 5125,
      "count": 2976,
      "type": "SCALAR"
    },
    {
      "bufferView": 2,
      "byteOffset": 253440,
      "componentType": 5126,
      "count": 12400,
      "max": [
        0.5438600182533264,
        0.10526300221681595,
        0.7719299793243408
      ],
      "min": [
        -0.14035099744796753,
        -0.5789470076560974,
        0.0
      ],
      "type": "VEC3"
    },
    {
      "bufferView": 2,
      "byteOffset": 402240,
      "componentType": 5126,
      "count": 12400,
      "max": [
        1.0,
        1.0,
        1.0
      ],
      "min": [
        -1.0,
        -1.0,
        -1.0
      ],
      "type": "VEC3"
    },
    {
      "bufferView": 1,
      "byteOffset": 84480,
      "componentType": 5126,
      "count": 12400,
      "max": [
        0.6660159826278687,
        0.6816409826278687
      ],
      "min": [
        0.24804699420928955,
        0.6503909826278687
      ],
      "type": "VEC2"
    },
    {
      "bufferView": 0,
      "byteOffset": 64968,
      "componentType": 5125,
      "count": 18600,
      "type": "SCALAR"
    },
    {
      "bufferView": 2,
      "byteOffset": 551040,
      "componentType": 5126,
      "count": 8,
      "max": [
        0.35087698698043823,
        -0.22807000577449799,
        0.6666669845581055
      ],
      "min": [
        0.33333298563957214,
        -0.24561400711536407,
        0.6491230130195618
      ],
      "type": "VEC3"
    },
    {
      "bufferView": 2,
      "byteOffset": 551136,
      "componentType": 5126,
      "count": 8,
      "max": [
        0.0,
        -0.0,
        1.0
      ],
      "min": [
        -1.0,
        -0.0,
        0.0
      ],
      "type": "VEC3"
    },
    {
      "bufferView": 1,
      "byteOffset": 183680,
      "componentType": 5126,
      "count": 8,
      "max": [
        0.5605469942092896,
        0.9628909826278687
      ],
      "min": [
        0.14257800579071045,
        0.8964840173721313
      ],
      "type": "VEC2"
    },
    {
      "bufferView": 0,
      "byteOffset": 139368,
      "componentType": 5125,
      "count": 12,
      "type": "SCALAR"
    },
    {
      "bufferView": 2,
      "byteOffset": 551232,
      "componentType": 5126,
      "count": 16,
      "max": [
        0.3305239975452423,
        -0.30105501413345337,
        0.5438600182533264
      ],
      "min": [
        0.31859898567199707,
        -0.3129799962043762,
        0.5307019948959351
      ],
      "type": "VEC3"
    },
    {
      "bufferView": 2,
      "byteOffset": 551424,
      "componentType": 5126,
      "count": 16,
      "max": [
        0.7071068286895752,
        0.7071068286895752,
        0.0
      ],
      "min": [
        -0.7071068286895752,
        -0.7071068286895752,
        0.0
      ],
      "type": "VEC3"
    },
    {
      "bufferView": 1,
      "byteOffset": 183744,
      "componentType": 5126,
      "count": 16,
      "max": [
        0.49023398756980896,
        0.9980469942092896
      ],
      "min": [
        0.45898398756980896,
        0.9667969942092896
      ],
      "type": "VEC2"
    },
    {
      "bufferView": 0,
      "byteOffset": 139416,
      "componentType": 5125,
      "count": 24,
      "type": "SCALAR"
    },
    {
      "bufferView": 2,
      "byteOffset": 551616,
      "componentType": 5126,
      "count": 6116,
      "max": [
        0.6140350103378296,
        0.1754390001296997,
        0.035087700933218
      ],
      "min": [
        -0.2105260044336319,
        -0.6491230130195618,
        0.0
      ],
      "type": "VEC3"
    },
    {
      "bufferView": 2,
      "byteOffset": 625008,
      "componentType": 5126,
      "count": 6116,
      "max": [
        1.0,
        1.0,
        1.0
      ],
      "min": [
        -1.0,
        -1.0,
        -1.0
      ],
      "type": "VEC3"
    },
    {
      "bufferView": 1,
      "byteOffset": 183872,
      "componentType": 5126,
      "count": 6116,
      "max": [
        0.10351599752902985,
        0.9980469942092896
      ],
      "min": [
        0.07226560264825821,
        0.9667969942092896
      ],
      "type": "VEC2"
    },
    {
      "bufferView": 0,
      "byteOffset": 139512,
      "componentType": 5125,
      "count": 12450,
      "type": "SCALAR"
    },
    {
      "bufferView": 2,
      "byteOffset": 698400,
      "componentType": 5126,
      "count": 20,
      "max": [
        0.2105260044336319,
        -0.05263160169124603,
        0.04824560135602951
      ],
      "min": [
        0.1929820030927658,
        -0.070175401866436,
        0.035087700933218
      ],
      "type": "VEC3"
    },
    {
      "bufferView": 2,
      "byteOffset": 698640,
      "componentType": 5126,
      "count": 20,
      "max": [
        1.0,
        1.0,
        1.0
      ],
      "min": [
        -1.0,
        -1.0,
        0.0
      ],
      "type": "VEC3"
    },
    {
      "bufferView": 1,
      "byteOffset": 232800,
      "componentType": 5126,
      "count": 20,
      "max": [
        0.9472659826278687,
        0.8222659826278687
      ],
      "min": [
        0.49414101243019104,
        0.7558590173721313
      ],
      "type": "VEC2"
    },
    {
      "bufferView": 0,
      "byteOffset": 189312,
      "componentType": 5125,
      "count": 30,
      "type": "SCALAR"
    },
    {
      "bufferView": 2,
      "byteOffset": 698880,
      "componentType": 5126,
      "count": 48,
      "max": [
        0.20942999422550201,
        -0.08881580084562302,
        0.6644740104675293
      ],
      "min": [
        0.19407899677753448,
        -0.10526300221681595,
        0.6491230130195618
      ],
      "type": "VEC3"
    },
    {
      "bufferView": 2,
      "byteOffset": 699456,
      "componentType": 5126,
      "count": 48,
      "max": [
        1.0,
        1.0,
        1.0
      ],
      "min": [
        -1.0,
        -1.0,
        -1.0
      ],
      "type": "VEC3"
    },
    {
      "bufferView": 1,
      "byteOffset": 232960,
      "componentType": 5126,
      "count": 48,
      "max": [
        0.875,
        0.7519530057907104
      ],
      "min": [
        0.7402340173721313,
        0.7207030057907104
      ],
      "type": "VEC2"
    },
    {
      "bufferView": 0,
      "byteOffset": 189432,
      "componentType": 5125,
      "count": 72,
      "type": "SCALAR"
    },
    {
      "bufferView": 2,
      "byteOffset": 700032,
      "componentType": 5126,
      "count": 744,
      "max": [
        0.4210529923439026,
        -0.21710500121116638,
        0.05263160169124603
      ],
      "min": [
        -0.01754390075802803,
        -0.2565790116786957,
        0.035087700933218
      ],
      "type": "VEC3"
    },
    {
      "bufferView": 2,
      "byteOffset": 708960,
      "componentType": 5126,
      "count": 744,
      "max": [
        1.0,
        1.0,
        1.0
      ],
      "min": [
        -1.0,
        -1.0,
        -1.0
      ],
      "type": "VEC3"
    },
    {
      "bufferView": 1,
      "byteOffset": 233344,
      "componentType": 5126,
      "count": 744,
      "max": [
        0.17382800579071045,
        0.9980469942092896
      ],
      "min": [
        0.14257800579071045,
        0.9667969942092896
      ],
      "type": "VEC2"
    },
    {
      "bufferView": 0,
      "byteOffset": 189720,
      "componentType": 5125,
      "count": 1116,
      "type": "SCALAR"
    },
    {
      "bufferView": 2,
      "byteOffset": 717888,
      "componentType": 5126,
      "count": 96,
      "max": [
        0.11513199657201767,
        -0.22807000577449799,
        0.6666669845581055
      ],
      "min": [
        0.11293900012969971,
        -0.24561400711536407,
        0.654604971408844
      ],
      "type": "VEC3"
    },
    {
      "bufferView": 2,
      "byteOffset": 719040,
      "componentType": 5126,
      "count": 96,
      "max": [
        1.0,
        1.0,
        1.0
      ],
      "min": [
        -1.0,
        -1.0,
        -1.0
      ],
      "type": "VEC3"
    },
    {
      "bufferView": 1,
      "byteOffset": 239296,
      "componentType": 5126,
      "count": 96,
      "max": [
        0.17382800579071045,
        0.9980469942092896
      ],
      "min": [
        0.14257800579071045,
        0.9667969942092896
      ],
      "type": "VEC2"
    },
    {
      "bufferView": 0,
      "byteOffset": 194184,
      "componentType": 5125,
      "count": 144,
      "type": "SCALAR"
    },
    {
      "bufferView": 2,
      "byteOffset": 720192,
      "componentType": 5126,
      "count": 1088,
      "max": [
        0.4210529923439026,
        -0.01754390075802803,
        0.6666669845581055
      ],
      "min": [
        -0.01754390075802803,
        -0.45614001154899597,
        0.05263160169124603
      ],
      "type": "VEC3"
    },
    {
      "bufferView": 2,
      "byteOffset": 733248,
      "componentType": 5126,
      "count": 1088,
      "max": [
        1.0,
        1.0,
        0.3420199155807495
      ],
      "min": [
        -1.0,
        -1.0,
        -0.34202200174331665
      ],
      "type": "VEC3"
    },
    {
      "bufferView": 1,
      "byteOffset": 240064,
      "componentType": 5126,
      "count": 1088,
      "max": [
        0.13867199420928955,
        0.9628909826278687
      ],
      "min": [
        0.10742200165987015,
        0.9316409826278687
      ],
      "type": "VEC2"
    },
    {
      "bufferView": 0,
      "byteOffset": 194760,
      "componentType": 5125,
      "count": 1632,
      "type": "SCALAR"
    },
    {
      "bufferView": 2,
      "byteOffset": 746304,
      "componentType": 5126,
      "count": 788,
      "max": [
        0.32785099744796753,
        -0.09320180118083954,
        0.7960529923439026
      ],
      "min": [
        0.07565789669752121,
        -0.3629390001296997,
        0.5263159871101379
      ],
      "type": "VEC3"
    },
    {
      "bufferView": 2,
      "byteOffset": 755760,
      "componentType": 5126,
      "count": 788,
      "max": [
        1.0,
        1.0,
        1.0
      ],
      "min": [
        -1.0,
        -1.0,
        -1.0
      ],
      "type": "VEC3"
    },
    {
      "bufferView": 1,
      "byteOffset": 248768,
      "componentType": 5126,
      "count": 788,
      "max": [
        0.65625,
        0.9882810115814209
      ],
      "min": [
        0.08203119784593582,
        0.7558590173721313
      ],
      "type": "VEC2"
    },
    {
      "bufferView": 0,
      "byteOffset": 201288,
      "componentType": 5125,
      "count": 1566,
      "type": "SCALAR"
    },
    {
      "bufferView": 2,
      "byteOffset": 765216,
      "componentType": 5126,
      "count": 48,
      "max": [
        0.35087698698043823,
        -0.1929820030927658,
        0.7017539739608765
      ],
      "min": [
        0.33333298563957214,
        -0.28070199489593506,
        0.6491230130195618
      ],
      "type": "VEC3"
    },
    {
      "bufferView": 2,
      "byteOffset": 765792,
      "componentType": 5126,
      "count": 48,
      "max": [
        0.0,
        1.0,
        1.0
      ],
      "min": [
        -1.0,
        -1.0,
        0.0
      ],
      "type": "VEC3"
    },
    {
      "bufferView": 1,
      "byteOffset": 255072,
      "componentType": 5126,
      "count": 48,
      "max": [
        0.6308590173721313,
        0.9628909826278687
      ],
      "min": [
        0.21289099752902985,
        0.8964840173721313
      ],
      "type": "VEC2"
    },
    {
      "bufferView": 0,
      "byteOffset": 207552,
      "componentType": 5125,
      "count": 72,
      "type": "SCALAR"
    },
    {
      "bufferView": 2,
      "byteOffset": 766368,
      "componentType": 5126,
      "count": 132,
      "max": [
        0.22807000577449799,
        -0.2105260044336319,
        0.9824560284614563
      ],
      "min": [
        0.1754390001296997,
        -0.26315799355506897,
        0.9649119973182678
      ],
      "type": "VEC3"
    },
    {
      "bufferView": 2,
      "byteOffset": 767952,
      "componentType": 5126,
      "count": 132,
      "max": [
        1.0,
        1.0,
        1.0
      ],
      "min": [
        -1.0,
        -1.0,
        0.0
      ],
      "type": "VEC3"
    },
    {
      "bufferView": 1,
      "byteOffset": 255456,
      "componentType": 5126,
      "count": 132,
      "max": [
        0.7714840173721313,
        0.9628909826278687
      ],
      "min": [
        0.7402340173721313,
        0.9316409826278687
      ],
      "type": "VEC2"
    },
    {
      "bufferView": 0,
      "byteOffset": 207840,
      "componentType": 5125,
      "count": 198,
      "type": "SCALAR"
    },
    {
      "bufferView": 2,
      "byteOffset": 769536,
      "componentType": 5126,
      "count": 1536,
      "max": [
        0.35087698698043823,
        -0.08771929889917374,
        0.8947370052337646
      ],
      "min": [
        0.05263160169124603,
        -0.3859649896621704,
        0.10526300221681595
      ],
      "type": "VEC3"
    },
    {
      "bufferView": 2,
      "byteOffset": 787968,
      "componentType": 5126,
      "count": 1536,
      "max": [
        1.0,
        1.0,
        1.0
      ],
      "min": [
        -1.0,
        -1.0,
        -1.0
      ],
      "type": "VEC3"
    },
    {
      "bufferView": 1,
      "byteOffset": 256512,
      "componentType": 5126,
      "count": 1536,
      "max": [
        0.7714840173721313,
        0.8925780057907104
      ],
      "min": [
        0.7402340173721313,
        0.8613280057907104
      ],
      "type": "VEC2"
    },
    {
      "bufferView": 0,
      "byteOffset": 208632,
      "componentType": 5125,
      "count": 2304,
      "type": "SCALAR"
    },
    {
      "bufferView": 2,
      "byteOffset": 806400,
      "componentType": 5126,
      "count": 32,
      "max": [
        0.3305239975452423,
        -0.16070400178432465,
        0.5438600182533264
      ],
      "min": [
        0.12561699748039246,
        -0.3656109869480133,
        0.5307019948959351
      ],
      "type": "VEC3"
    },
    {
      "bufferView": 2,
      "byteOffset": 806784,
      "componentType": 5126,
      "count": 32,
      "max": [
        0.7071068286895752,
        0.7071068286895752,
        0.0
      ],
      "min": [
        -0.7071068286895752,
        -0.7071068286895752,
        0.0
      ],
      "type": "VEC3"
    },
    {
      "bufferView": 1,
      "byteOffset": 268800,
      "componentType": 5126,
      "count": 32,
      "max": [
        0.9824219942092896,
        0.9628909826278687
      ],
      "min": [
        0.0019531199941411614,
        0.8964840173721313
      ],
      "type": "VEC2"
    },
    {
      "bufferView": 0,
      "byteOffset": 217848,
      "componentType": 5125,
      "count": 48,
      "type": "SCALAR"
    },
    {
      "bufferView": 2,
      "byteOffset": 807168,
      "componentType": 5126,
      "count": 2615,
      "max": [
        0.6140350103378296,
        0.1754390001296997,
        0.035087700933218
      ],
      "min": [
        -0.2105260044336319,
        -0.6491230130195618,
        0.01754390075802803
      ],
      "type": "VEC3"
    },
    {
      "bufferView": 2,
      "byteOffset": 838548,
      "componentType": 5126,
      "count": 2615,
      "max": [
        1.0,
        1.0,
        1.0
      ],
      "min": [
        -1.0,
        -1.0,
        0.0
      ],
      "type": "VEC3"
    },
    {
      "bufferView": 1,
      "byteOffset": 269056,
      "componentType": 5126,
      "count": 2615,
      "max": [
        0.38476601243019104,
        0.9980469942092896
      ],
      "min": [
        0.0019531199941411614,
        0.9316409826278687
      ],
      "type": "VEC2"
    },
    {
      "bufferView": 0,
      "byteOffset": 218040,
      "componentType": 5125,
      "count": 4878,
      "type": "SCALAR"
    },
    {
      "bufferView": 2,
      "byteOffset": 869928,
      "componentType": 5126,
      "count": 1552,
      "max": [
        0.5964909791946411,
        0.15789499878883362,
        0.035087700933218
      ],
      "min": [
        -0.1929820030927658,
        -0.6315789818763733,
        0.035087700933218
      ],
      "type": "VEC3"
    },
    {
      "bufferView": 2,
      "byteOffset": 888552,
      "componentType": 5126,
      "count": 1552,
      "max": [
        0.0,
        -0.0,
        1.0
      ],
      "min": [
        0.0,
        -0.0,
        1.0
      ],
      "type": "VEC3"
    },
    {
      "bufferView": 1,
      "byteOffset": 289976,
      "componentType": 5126,
      "count": 1552,
      "max": [
        0.7011719942092896,
        0.9980469942092896
      ],
      "min": [
        0.6699219942092896,
        0.9667969942092896
      ],
      "type": "VEC2"
    },
    {
      "bufferView": 0,
      "byteOffset": 237552,
      "componentType": 5125,
      "count": 2328,
      "type": "SCALAR"
    },
    {
      "bufferView": 2,
      "byteOffset": 907176,
      "componentType": 5126,
      "count": 4688,
      "max": [
        0.4309209883213043,
        -0.007675440050661564,
        0.8245609998703003
      ],
      "min": [
        -0.027412300929427147,
        -0.4660089910030365,
        0.05263160169124603
      ],
      "type": "VEC3"
    },
    {
      "bufferView": 2,
      "byteOffset": 963432,
      "componentType": 5126,
      "count": 4688,
      "max": [
        1.0,
        1.0,
        1.0
      ],
      "min": [
        -1.0,
        -1.0,
        -1.0
      ],
      "type": "VEC3"
    },
    {
      "bufferView": 1,
      "byteOffset": 302392,
      "componentType": 5126,
      "count": 4688,
      "max": [
        0.06835939735174179,
        0.8925780057907104
      ],
      "min": [
        0.03710940107703209,
        0.8613280057907104
      ],
      "type": "VEC2"
    },
    {
      "bufferView": 0,
      "byteOffset": 246864,
      "componentType": 5125,
      "count": 7032,
      "type": "SCALAR"
    },
    {
      "bufferView": 2,
      "byteOffset": 1019688,
      "componentType": 5126,
      "count": 252,
      "max": [
        0.33333298563957214,
        -0.08771929889917374,
        0.7894740104675293
      ],
      "min": [
        0.15789499878883362,
        -0.3859649896621704,
        0.5263159871101379
      ],
      "type": "VEC3"
    },
    {
      "bufferView": 2,
      "byteOffset": 1022712,
      "componentType": 5126,
      "count": 252,
      "max": [
        1.0,
        1.0,
        1.0
      ],
      "min": [
        -1.0,
        -1.0,
        -1.0
      ],
      "type": "VEC3"
    },
    {
      "bufferView": 1,
      "byteOffset": 339896,
      "componentType": 5126,
      "count": 252,
      "max": [
        0.13867199420928955,
        0.7519530057907104
      ],
      "min": [
        0.10742200165987015,
        0.7207030057907104
      ],
      "type": "VEC2"
    },
    {
      "bufferView": 0,
      "byteOffset": 274992,
      "componentType": 5125,
      "count": 408,
      "type": "SCALAR"
    },
    {
      "bufferView": 2,
      "byteOffset": 1025736,
      "componentType": 5126,
      "count": 15920,
      "max": [
        0.4385960102081299,
        -0.0,
        0.9824560284614563
      ],
      "min": [
        -0.035087700933218,
        -0.47368401288986206,
        0.035087700933218
      ],
      "type": "VEC3"
    },
    {
      "bufferView": 2,
      "byteOffset": 1216776,
      "componentType": 5126,
      "count": 15920,
      "max": [
        1.0,
        1.0,
        1.0
      ],
      "min": [
        -1.0,
        -1.0,
        -1.0
      ],
      "type": "VEC3"
    },
    {
      "bufferView": 1,
      "byteOffset": 341912,
      "componentType": 5126,
      "count": 15920,
      "max": [
        0.03320309892296791,
        0.7167969942092896
      ],
      "min": [
        0.0019531199941411614,
        0.6855469942092896
      ],
      "type": "VEC2"
    },
    {
      "bufferView": 0,
      "byteOffset": 276624,
      "componentType": 5125,
      "count": 23880,
      "type": "SCALAR"
    },
    {
      "bufferView": 2,
      "byteOffset": 1407816,
      "componentType": 5126,
      "count": 65532,
      "max": [
        0.4671050012111664,
        0.028508799150586128,
        0.9298250079154968
      ],
      "min": [
        -0.06359650194644928,
        -0.5021929740905762,
        0.070175401866436
      ],
      "type": "VEC3"
    },
    {
      "bufferView": 2,
      "byteOffset": 2194200,
      "componentType": 5126,
      "count": 65532,
      "max": [
        1.0,
        1.0,
        1.0
      ],
      "min": [
        -1.0,
        -1.0,
        -1.0
      ],
      "type": "VEC3"
    },
    {
      "bufferView": 1,
      "byteOffset": 469272,
      "componentType": 5126,
      "count": 65532,
      "max": [
        0.03320309892296791,
        0.7167969942092896
      ],
      "min": [
        0.0019531199941411614,
        0.6855469942092896
      ],
      "type": "VEC2"
    },
    {
      "bufferView": 0,
      "byteOffset": 372144,
      "componentType": 5125,
      "count": 98298,
      "type": "SCALAR"
    },
    {
      "bufferView": 2,
      "byteOffset": 2980584,
      "componentType": 5126,
      "count": 9608,
      "max": [
        0.3684209883213043,
        0.010964900255203247,
        0.807017982006073
      ],
      "min": [
        0.29824599623680115,
        -0.48464900255203247,
        0.070175401866436
      ],
      "type": "VEC3"
    },
    {
      "bufferView": 2,
      "byteOffset": 3095880,
      "componentType": 5126,
      "count": 9608,
      "max": [
        1.0,
        1.0,
        1.0
      ],
      "min": [
        -1.0,
        -1.0,
        -1.0
      ],
      "type": "VEC3"
    },
    {
      "bufferView": 1,
      "byteOffset": 993528,
      "componentType": 5126,
      "count": 9608,
      "max": [
        0.03320309892296791,
        0.7167969942092896
      ],
      "min": [
        0.0019531199941411614,
        0.6855469942092896
      ],
      "type": "VEC2"
    },
    {
      "bufferView": 0,
      "byteOffset": 765336,
      "componentType": 5125,
      "count": 14412,
      "type": "SCALAR"
    },
    {
      "bufferView": 2,
      "byteOffset": 3211176,
      "componentType": 5126,
      "count": 6717,
      "max": [
        0.4035089910030365,
        -0.035087700933218,
        0.9122809767723083
      ],
      "min": [
        0.0,
        -0.47368401288986206,
        0.05263160169124603
      ],
      "type": "VEC3"
    },
    {
      "bufferView": 2,
      "byteOffset": 3291780,
      "componentType": 5126,
      "count": 6717,
      "max": [
        1.0,
        1.0,
        1.0
      ],
      "min": [
        -1.0,
        -1.0,
        -1.0
      ],
      "type": "VEC3"
    },
    {
      "bufferView": 1,
      "byteOffset": 1070392,
      "componentType": 5126,
      "count": 6717,
      "max": [
        0.03320309892296791,
        0.7167969942092896
      ],
      "min": [
        0.0019531199941411614,
        0.6855469942092896
      ],
      "type": "VEC2"
    },
    {
      "bufferView": 0,
      "byteOffset": 822984,
      "componentType": 5125,
      "count": 10536,
      "type": "SCALAR"
    },
    {
      "bufferView": 2,
      "byteOffset": 3372384,
      "componentType": 5126,
      "count": 68,
      "max": [
        0.4210529923439026,
        -0.01754390075802803,
        0.6491230130195618
      ],
      "min": [
        -0.01754390075802803,
        -0.45614001154899597,
        0.05263160169124603
      ],
      "type": "VEC3"
    },
    {
      "bufferView": 2,
      "byteOffset": 3373200,
      "componentType": 5126,
      "count": 68,
      "max": [
        0.0,
        -0.0,
        1.0
      ],
      "min": [
        0.0,
        -0.0,
        1.0
      ],
      "type": "VEC3"
    },
    {
      "bufferView": 1,
      "byteOffset": 1124128,
      "componentType": 5126,
      "count": 68,
      "max": [
        0.7011719942092896,
        0.8925780057907104
      ],
      "min": [
        0.6699219942092896,
        0.8613280057907104
      ],
      "type": "VEC2"
    },
    {
      "bufferView": 0,
      "byteOffset": 865128,
      "componentType": 5125,
      "count": 102,
      "type": "SCALAR"
    },
    {
      "bufferView": 2,
      "byteOffset": 3374016,
      "componentType": 5126,
      "count": 72,
      "max": [
        0.35087698698043823,
        -0.08771929889917374,
        0.6666669845581055
      ],
      "min": [
        0.14035099744796753,
        -0.26315799355506897,
        0.035087700933218
      ],
      "type": "VEC3"
    },
    {
      "bufferView": 2,
      "byteOffset": 3374880,
      "componentType": 5126,
      "count": 72,
      "max": [
        1.0,
        1.0,
        1.0
      ],
      "min": [
        -1.0,
        -1.0,
        0.0
      ],
      "type": "VEC3"
    },
    {
      "bufferView": 1,
      "byteOffset": 1124672,
      "componentType": 5126,
      "count": 72,
      "max": [
        0.17382800579071045,
        0.9980469942092896
      ],
      "min": [
        0.10742200165987015,
        0.7207030057907104
      ],
      "type": "VEC2"
    },
    {
      "bufferView": 0,
      "byteOffset": 865536,
      "componentType": 5125,
      "count": 108,
      "type": "SCALAR"
    },
    {
      "bufferView": 2,
      "byteOffset": 3375744,
      "componentType": 5126,
      "count": 144,
      "max": [
        0.4199559986591339,
        -0.21162299811840057,
        0.053728099912405014
      ],
      "min": [
        -0.0164474006742239,
        -0.2620609998703003,
        0.05263160169124603
      ],
      "type": "VEC3"
    },
    {
      "bufferView": 2,
      "byteOffset": 3377472,
      "componentType": 5126,
      "count": 144,
      "max": [
        1.0,
        1.0,
        1.0
      ],
      "min": [
        -1.0,
        -1.0,
        -1.0
      ],
      "type": "VEC3"
    },
    {
      "bufferView": 1,
      "byteOffset": 1125248,
      "componentType": 5126,
      "count": 144,
      "max": [
        0.171875,
        0.9960939884185791
      ],
      "min": [
        0.1445309966802597,
        0.9667969942092896
      ],
      "type": "VEC2"
    },
    {
      "bufferView": 0,
      "byteOffset": 865968,
      "componentType": 5125,
      "count": 216,
      "type": "SCALAR"
    },
    {
      "bufferView": 2,
      "byteOffset": 3379200,
      "componentType": 5126,
      "count": 4396,
      "max": [
        0.33333298563957214,
        -0.08771929889917374,
        0.7894740104675293
      ],
      "min": [
        0.14035099744796753,
        -0.3859649896621704,
        0.04385960102081299
      ],
      "type": "VEC3"
    },
    {
      "bufferView": 2,
      "byteOffset": 3431952,
      "componentType": 5126,
      "count": 4396,
      "max": [
        1.0,
        1.0,
        1.0
      ],
      "min": [
        -1.0,
        -1.0,
        -1.0
      ],
      "type": "VEC3"
    },
    {
      "bufferView": 1,
      "byteOffset": 1126400,
      "componentType": 5126,
      "count": 4396,
      "max": [
        0.6660159826278687,
        0.7519530057907104
      ],
      "min": [
        0.10742200165987015,
        0.7207030057907104
      ],
      "type": "VEC2"
    },
    {
      "bufferView": 0,
      "byteOffset": 866832,
      "componentType": 5125,
      "count": 6594,
      "type": "SCALAR"
    },
    {
      "bufferView": 2,
      "byteOffset": 3484704,
      "componentType": 5126,
      "count": 284,
      "max": [
        0.4210529923439026,
        -0.1754390001296997,
        0.05263160169124603
      ],
      "min": [
        -0.01754390075802803,
        -0.29824599623680115,
        0.035087700933218
      ],
      "type": "VEC3"
    },
    {
      "bufferView": 2,
      "byteOffset": 3488112,
      "componentType": 5126,
      "count": 284,
      "max": [
        1.0,
        1.0,
        1.0
      ],
      "min": [
        -1.0,
        -1.0,
        0.0
      ],
      "type": "VEC3"
    },
    {
      "bufferView": 1,
      "byteOffset": 1161568,
      "componentType": 5126,
      "count": 284,
      "max": [
        0.17382800579071045,
        0.9980469942092896
      ],
      "min": [
        0.14257800579071045,
        0.9667969942092896
      ],
      "type": "VEC2"
    },
    {
      "bufferView": 0,
      "byteOffset": 893208,
      "componentType": 5125,
      "count": 456,
      "type": "SCALAR"
    },
    {
      "bufferView": 2,
      "byteOffset": 3491520,
      "componentType": 5126,
      "count": 480,
      "max": [
        0.22587700188159943,
        -0.1754390001296997,
        0.9682019948959351
      ],
      "min": [
        0.05263160169124603,
        -0.29824599623680115,
        0.6491230130195618
      ],
      "type": "VEC3"
    },
    {
      "bufferView": 2,
      "byteOffset": 3497280,
      "componentType": 5126,
      "count": 480,
      "max": [
        1.0,
        1.0,
        1.0
      ],
      "min": [
        -1.0,
        -1.0,
        -1.0
      ],
      "type": "VEC3"
    },
    {
      "bufferView": 1,
      "byteOffset": 1163840,
      "componentType": 5126,
      "count": 480,
      "max": [
        0.34960898756980896,
        0.9628909826278687
      ],
      "min": [
        0.31835898756980896,
        0.9316409826278687
      ],
      "type": "VEC2"
    },
    {
      "bufferView": 0,
      "byteOffset": 895032,
      "componentType": 5125,
      "count": 720,
      "type": "SCALAR"
    },
    {
      "bufferView": 2,
      "byteOffset": 3503040,
      "componentType": 5126,
      "count": 16,
      "max": [
        0.08490949869155884,
        -0.16070400178432465,
        0.5438600182533264
      ],
      "min": [
        0.0729852020740509,
        -0.1726289987564087,
        0.5307019948959351
      ],
      "type": "VEC3"
    },
    {
      "bufferView": 2,
      "byteOffset": 3503232,
      "componentType": 5126,
      "count": 16,
      "max": [
        0.7071068286895752,
        0.7071068286895752,
        0.0
      ],
      "min": [
        -0.7071068286895752,
        -0.7071068286895752,
        0.0
      ],
      "type": "VEC3"
    },
    {
      "bufferView": 1,
      "byteOffset": 1167680,
      "componentType": 5126,
      "count": 16,
      "max": [
        0.45507800579071045,
        0.9980469942092896
      ],
      "min": [
        0.42382800579071045,
        0.9667969942092896
      ],
      "type": "VEC2"
    },
    {
      "bufferView": 0,
      "byteOffset": 897912,
      "componentType": 5125,
      "count": 24,
      "type": "SCALAR"
    },
    {
      "bufferView": 2,
      "byteOffset": 3503424,
      "componentType": 5126,
      "count": 32,
      "max": [
        0.24280400574207306,
        -0.09052909910678864,
        0.684211015701294
      ],
      "min": [
        0.0729852020740509,
        -0.3129799962043762,
        0.5307019948959351
      ],
      "type": "VEC3"
    },
    {
      "bufferView": 2,
      "byteOffset": 3503808,
      "componentType": 5126,
      "count": 32,
      "max": [
        0.7071068286895752,
        0.7071068286895752,
        0.0
      ],
      "min": [
        -0.7071068286895752,
        -0.7071068286895752,
        0.0
      ],
      "type": "VEC3"
    },
    {
      "bufferView": 1,
      "byteOffset": 1167808,
      "componentType": 5126,
      "count": 32,
      "max": [
        0.03320309892296791,
        0.9628909826278687
      ],
      "min": [
        0.0019531199941411614,
        0.9316409826278687
      ],
      "type": "VEC2"
    },
    {
      "bufferView": 0,
      "byteOffset": 898008,
      "componentType": 5125,
      "count": 48,
      "type": "SCALAR"
    },
    {
      "bufferView": 2,
      "byteOffset": 3504192,
      "componentType": 5126,
      "count": 4,
      "max": [
        0.1754390001296997,
        -0.14035099744796753,
        0.0
      ],
      "min": [
        0.15789499878883362,
        -0.15789499878883362,
        0.0
      ],
      "type": "VEC3"
    },
    {
      "bufferView": 2,
      "byteOffset": 3504240,
      "componentType": 5126,
      "count": 4,
      "max": [
        0.0,
        -0.0,
        -1.0
      ],
      "min": [
        0.0,
        -0.0,
        -1.0
      ],
      "type": "VEC3"
    },
    {
      "bufferView": 1,
      "byteOffset": 1168064,
      "componentType": 5126,
      "count": 4,
      "max": [
        0.45507800579071045,
        0.7519530057907104
      ],
      "min": [
        0.42382800579071045,
        0.7207030057907104
      ],
      "type": "VEC2"
    },
    {
      "bufferView": 0,
      "byteOffset": 898200,
      "componentType": 5125,
      "count": 6,
      "type": "SCALAR"
    },
    {
      "bufferView": 2,
      "byteOffset": 3504288,
      "componentType": 5126,
      "count": 64,
      "max": [
        0.3129799962043762,
        -0.12561699748039246,
        0.5438600182533264
      ],
      "min": [
        0.09052909910678864,
        -0.3480669856071472,
        0.5307019948959351
      ],
      "type": "VEC3"
    },
    {
      "bufferView": 2,
      "byteOffset": 3505056,
      "componentType": 5126,
      "count": 64,
      "max": [
        0.7071068286895752,
        0.7071068286895752,
        0.0
      ],
      "min": [
        -0.7071068286895752,
        -0.7071068286895752,
        0.0
      ],
      "type": "VEC3"
    },
    {
      "bufferView": 1,
      "byteOffset": 1168096,
      "componentType": 5126,
      "count": 64,
      "max": [
        0.8417969942092896,
        0.9980469942092896
      ],
      "min": [
        0.07226560264825821,
        0.8964840173721313
      ],
      "type": "VEC2"
    },
    {
      "bufferView": 0,
      "byteOffset": 898224,
      "componentType": 5125,
      "count": 96,
      "type": "SCALAR"
    },
    {
      "bufferView": 2,
      "byteOffset": 3505824,
      "componentType": 5126,
      "count": 2032,
      "max": [
        0.3859649896621704,
        -0.05263160169124603,
        0.5068230032920837
      ],
      "min": [
        0.01754390075802803,
        -0.4210529923439026,
        0.28070199489593506
      ],
      "type": "VEC3"
    },
    {
      "bufferView": 2,
      "byteOffset": 3530208,
      "componentType": 5126,
      "count": 2032,
      "max": [
        1.0,
        1.0,
        1.0
      ],
      "min": [
        -1.0,
        -1.0,
        0.0
      ],
      "type": "VEC3"
    },
    {
      "bufferView": 1,
      "byteOffset": 1168608,
      "componentType": 5126,
      "count": 2032,
      "max": [
        0.20898400247097015,
        0.6816409826278687
      ],
      "min": [
        0.10742200165987015,
        0.43945300579071045
      ],
      "type": "VEC2"
    },
    {
      "bufferView": 0,
      "byteOffset": 898608,
      "componentType": 5125,
      "count": 3048,
      "type": "SCALAR"
    },
    {
      "bufferView": 2,
      "byteOffset": 3554592,
      "componentType": 5126,
      "count": 3900,
      "max": [
        0.5263159871101379,
        0.08771929889917374,
        0.7699800133705139
      ],
      "min": [
        -0.12280700355768204,
        -0.5614039897918701,
        0.03313840180635452
      ],
      "type": "VEC3"
    },
    {
      "bufferView": 2,
      "byteOffset": 3601392,
      "componentType": 5126,
      "count": 3900,
      "max": [
        1.0,
        1.0,
        1.0
      ],
      "min": [
        -1.0,
        -1.0,
        0.0
      ],
      "type": "VEC3"
    },
    {
      "bufferView": 1,
      "byteOffset": 1184864,
      "componentType": 5126,
      "count": 3900,
      "max": [
        0.9824219942092896,
        0.7519530057907104
      ],
      "min": [
        0.14257800579071045,
        0.43945300579071045
      ],
      "type": "VEC2"
    },
    {
      "bufferView": 0,
      "byteOffset": 910800,
      "componentType": 5125,
      "count": 5850,
      "type": "SCALAR"
    },
    {
      "bufferView": 2,
      "byteOffset": 3648192,
      "componentType": 5126,
      "count": 30257,
      "max": [
        0.47368401288986206,
        0.035087700933218,
        0.7894740104675293
      ],
      "min": [
        -0.070175401866436,
        -0.5087720155715942,
        0.035087700933218
      ],
      "type": "VEC3"
    },
    {
      "bufferView": 2,
      "byteOffset": 4011276,
      "componentType": 5126,
      "count": 30257,
      "max": [
        1.0,
        1.0,
        1.0
      ],
      "min": [
        -1.0,
        -1.0,
        -1.0
      ],
      "type": "VEC3"
    },
    {
      "bufferView": 1,
      "byteOffset": 1216064,
      "componentType": 5126,
      "count": 30257,
      "max": [
        0.9472659826278687,
        0.9628909826278687
      ],
      "min": [
        0.9160159826278687,
        0.9316409826278687
      ],
      "type": "VEC2"
    },
    {
      "bufferView": 0,
      "byteOffset": 934200,
      "componentType": 5125,
      "count": 47016,
      "type": "SCALAR"
    },
    {
      "bufferView": 2,
      "byteOffset": 4374360,
      "componentType": 5126,
      "count": 19232,
      "max": [
        0.45614001154899597,
        0.01754390075802803,
        0.7719299793243408
      ],
      "min": [
        -0.05263160169124603,
        -0.49122801423072815,
        0.035087700933218
      ],
      "type": "VEC3"
    },
    {
      "bufferView": 2,
      "byteOffset": 4605144,
      "componentType": 5126,
      "count": 19232,
      "max": [
        1.0,
        1.0,
        1.0
      ],
      "min": [
        -1.0,
        -1.0,
        -1.0
      ],
      "type": "VEC3"
    },
    {
      "bufferView": 1,
      "byteOffset": 1458120,
      "componentType": 5126,
      "count": 19232,
      "max": [
        0.9472659826278687,
        0.9628909826278687
      ],
      "min": [
        0.9160159826278687,
        0.9316409826278687
      ],
      "type": "VEC2"
    },
    {
      "bufferView": 0,
      "byteOffset": 1122264,
      "componentType": 5125,
      "count": 28848,
      "type": "SCALAR"
    },
    {
      "bufferView": 2,
      "byteOffset": 4835928,
      "componentType": 5126,
      "count": 2944,
      "max": [
        0.4035089910030365,
        -0.035087700933218,
        0.807017982006073
      ],
      "min": [
        0.0,
        -0.4385960102081299,
        0.6754390001296997
      ],
      "type": "VEC3"
    },
    {
      "bufferView": 2,
      "byteOffset": 4871256,
      "componentType": 5126,
      "count": 2944,
      "max": [
        1.0,
        1.0,
        1.0
      ],
      "min": [
        -1.0,
        -1.0,
        -1.0
      ],
      "type": "VEC3"
    },
    {
      "bufferView": 1,
      "byteOffset": 1611976,
      "componentType": 5126,
      "count": 2944,
      "max": [
        0.9472659826278687,
        0.9628909826278687
      ],
      "min": [
        0.0019531199941411614,
        0.6855469942092896
      ],
      "type": "VEC2"
    },
    {
      "bufferView": 0,
      "byteOffset": 1237656,
      "componentType": 5125,
      "count": 4416,
      "type": "SCALAR"
    },
    {
      "bufferView": 2,
      "byteOffset": 4906584,
      "componentType": 5126,
      "count": 1320,
      "max": [
        0.4495609998703003,
        0.010964900255203247,
        0.8232679963111877
      ],
      "min": [
        -0.04605260118842125,
        -0.48464900255203247,
        0.0560481995344162
      ],
      "type": "VEC3"
    },
    {
      "bufferView": 2,
      "byteOffset": 4922424,
      "componentType": 5126,
      "count": 1320,
      "max": [
        1.0,
        1.0,
        0.9538492560386658
      ],
      "min": [
        -1.0,
        -1.0,
        -0.9396971464157104
      ],
      "type": "VEC3"
    },
    {
      "bufferView": 1,
      "byteOffset": 1635528,
      "componentType": 5126,
      "count": 1320,
      "max": [
        0.8652340173721313,
        0.9179689884185791
      ],
      "min": [
        0.8574219942092896,
        0.8964840173721313
      ],
      "type": "VEC2"
    },
    {
      "bufferView": 0,
      "byteOffset": 1255320,
      "componentType": 5125,
      "count": 1980,
      "type": "SCALAR"
    }
  ],
  "asset": {
    "extras": {
      "author": "madexc (https://sketchfab.com/madexc)",
      "license": "CC-BY-4.0 (http://creativecommons.org/licenses/by/4.0/)",
      "source": "https://sketchfab.com/3d-models/water-lava-tower-b649740657684d4d817dfa7d39b78482",
      "title": "water-lava-tower"
    },
    "generator": "Sketchfab-15.15.0",
    "version": "2.0"
  },
  "bufferViews": [
    {
      "buffer": 0,
      "byteLength": 1263240,
      "name": "floatBufferViews",
      "target": 34963
    },
    {
      "buffer": 0,
      "byteLength": 1646088,
      "byteOffset": 1263240,
      "byteStride": 8,
      "name": "floatBufferViews",
      "target": 34962
    },
    {
      "buffer": 0,
      "byteLength": 4938264,
      "byteOffset": 2909328,
      "byteStride": 12,
      "name": "floatBufferViews",
      "target": 34962
    }
  ],
  "buffers": [
    {
      "byteLength": 7847592,
      "uri": "scene.bin"
    }
  ],
  "extensionsUsed": [
    "KHR_materials_specular"
  ],
  "images": [
    {
      "uri": "textures/Beacon_baseColor.png"
    },
    {
      "uri": "textures/Beacon_emissive.png"
    }
  ],
  "materials": [
    {
      "alphaMode": "BLEND",
      "emissiveFactor": [
        1.0,
        1.0,
        1.0
      ],
      "emissiveTexture": {
        "index": 1
      },
      "extensions": {
        "KHR_materials_specular": {
          "specularColorFactor": [
            1.0,
            1.0,
            1.0
          ],
          "specularFactor": 0.0
        }
      },
      "name": "Beacon",
      "pbrMetallicRoughness": {
        "baseColorTexture": {
          "index": 0
        },
        "metallicFactor": 0.0
      }
    },
    {
      "alphaMode": "BLEND",
      "emissiveFactor": [
        0.1,
        0.1,
        0.1
      ],
      "emissiveTexture": {
        "index": 1
      },
      "extensions": {
        "KHR_materials_specular": {
          "specularColorFactor": [
            1.0,
            1.0,
            1.0
          ],
          "specularFactor": 0.0
        }
      },
      "name": "material",
      "pbrMetallicRoughness": {
        "baseColorTexture": {
          "index": 0
        },
        "metallicFactor": 0.0
      }
    },
    {
      "doubleSided": true,
      "emissiveFactor": [
        0.1,
        0.1,
        0.1
      ],
      "emissiveTexture": {
        "index": 1
      },
      "extensions": {
        "KHR_materials_specular": {
          "specularColorFactor": [
            1.0,
            1.0,
            1.0
          ],
          "specularFactor": 0.0
        }
      },
      "name": "Birch_Stairs",
      "pbrMetallicRoughness": {
        "baseColorTexture": {
          "index": 1
        },
        "metallicFactor": 0.0
      }
    },
    {
      "doubleSided": true,
      "emissiveFactor": [
        0.1,
        0.1,
        0.1
      ],
      "emissiveTexture": {
        "index": 1
      },
      "extensions": {
        "KHR_materials_specular": {
          "specularColorFactor": [
            1.0,
            1.0,
            1.0
          ],
          "specularFactor": 0.0
        }
      },
      "name": "Block_of_Gold",
      "pbrMetallicRoughness": {
        "baseColorTexture": {
          "index": 1
        },
        "metallicFactor": 0.0
      }
    },
    {
      "doubleSided": true,
      "emissiveFactor": [
        0.1,
        0.1,
        0.1
      ],
      "emissiveTexture": {
        "index": 1
      },
      "extensions": {
        "KHR_materials_specular": {
          "specularColorFactor": [
            1.0,
            1.0,
            1.0
          ],
          "specularFactor": 0.0
        }
      },
      "name": "Bookshelf",
      "pbrMetallicRoughness": {
        "baseColorTexture": {
          "index": 1
        },
        "metallicFactor": 0.0
      }
    },
    {
      "alphaMode": "BLEND",
      "emissiveFactor": [
        0.1,
        0.1,
        0.1
      ],
      "emissiveTexture": {
        "index": 1
      },
      "extensions": {
        "KHR_materials_specular": {
          "specularColorFactor": [
            1.0,
            1.0,
            1.0
          ],
          "specularFactor": 0.0
        }
      },
      "name": "Brewing_Stand",
      "pbrMetallicRoughness": {
        "baseColorTexture": {
          "index": 0
        },
        "metallicFactor": 0.0
      }
    },
    {
      "alphaMode": "BLEND",
      "emissiveFactor": [
        0.1,
        0.1,
        0.1
      ],
      "emissiveTexture": {
        "index": 1
      },
      "extensions": {
        "KHR_materials_specular": {
          "specularColorFactor": [
            1.0,
            1.0,
            1.0
          ],
          "specularFactor": 0.0
        }
      },
      "name": "Brown_Mushroom",
      "pbrMetallicRoughness": {
        "baseColorTexture": {
          "index": 0
        },
        "metallicFactor": 0.0
      }
    },
    {
      "alphaMode": "BLEND",
      "emissiveFactor": [
        0.1,
        0.1,
        0.1
      ],
      "emissiveTexture": {
        "index": 1
      },
      "extensions": {
        "KHR_materials_specular": {
          "specularColorFactor": [
            1.0,
            1.0,
            1.0
          ],
          "specularFactor": 0.0
        }
      },
      "name": "Cactus",
      "pbrMetallicRoughness": {
        "baseColorTexture": {
          "index": 0
        },
        "metallicFactor": 0.0
      }
    },
    {
      "doubleSided": true,
      "emissiveFactor": [
        0.1,
        0.1,
        0.1
      ],
      "emissiveTexture": {
        "index": 1
      },
      "extensions": {
        "KHR_materials_specular": {
          "specularColorFactor": [
            1.0,
            1.0,
            1.0
          ],
          "specularFactor": 0.0
        }
      },
      "name": "Carpet",
      "pbrMetallicRoughness": {
        "baseColorTexture": {
          "index": 1
        },
        "metallicFactor": 0.0
      }
    },
    {
      "alphaMode": "BLEND",
      "emissiveFactor": [
        0.1,
        0.1,
        0.1
      ],
      "emissiveTexture": {
        "index": 1
      },
      "extensions": {
        "KHR_materials_specular": {
          "specularColorFactor": [
            1.0,
            1.0,
            1.0
          ],
          "specularFactor": 0.0
        }
      },
      "name": "Cauldron",
      "pbrMetallicRoughness": {
        "baseColorTexture": {
          "index": 0
        },
        "metallicFactor": 0.0
      }
    },
    {
      "doubleSided": true,
      "emissiveFactor": [
        0.1,
        0.1,
        0.1
      ],
      "emissiveTexture": {
        "index": 1
      },
      "extensions": {
        "KHR_materials_specular": {
          "specularColorFactor": [
            1.0,
            1.0,
            1.0
          ],
          "specularFactor": 0.0
        }
      },
      "name": "Chest",
      "pbrMetallicRoughness": {
        "baseColorTexture": {
          "index": 1
        },
        "metallicFactor": 0.0
      }
    },
    {
      "doubleSided": true,
      "emissiveFactor": [
        0.1,
        0.1,
        0.1
      ],
      "emissiveTexture": {
        "index": 1
      },
      "extensions": {
        "KHR_materials_specular": {
          "specularColorFactor": [
            1.0,
            1.0,
            1.0
          ],
          "specularFactor": 0.0
        }
      },
      "name": "Colored_Terracotta",
      "pbrMetallicRoughness": {
        "baseColorTexture": {
          "index": 1
        },
        "metallicFactor": 0.0
      }
    },
    {
      "doubleSided": true,
      "emissiveFactor": [
        0.1,
        0.1,
        0.1
      ],
      "emissiveTexture": {
        "index": 1
      },
      "extensions": {
        "KHR_materials_specular": {
          "specularColorFactor": [
            1.0,
            1.0,
            1.0
          ],
          "specularFactor": 0.0
        }
      },
      "name": "Crafting_Table",
      "pbrMetallicRoughness": {
        "baseColorTexture": {
          "index": 1
        },
        "metallicFactor": 0.0
      }
    },
    {
      "alphaMode": "BLEND",
      "emissiveFactor": [
        0.1,
        0.1,
        0.1
      ],
      "emissiveTexture": {
        "index": 1
      },
      "extensions": {
        "KHR_materials_specular": {
          "specularColorFactor": [
            1.0,
            1.0,
            1.0
          ],
          "specularFactor": 0.0
        }
      },
      "name": "Dandelion",
      "pbrMetallicRoughness": {
        "baseColorTexture": {
          "index": 0
        },
        "metallicFactor": 0.0
      }
    },
    {
      "doubleSided": true,
      "emissiveFactor": [
        0.1,
        0.1,
        0.1
      ],
      "emissiveTexture": {
        "index": 1
      },
      "extensions": {
        "KHR_materials_specular": {
          "specularColorFactor": [
            1.0,
            1.0,
            1.0
          ],
          "specularFactor": 0.0
        }
      },
      "name": "Dirt",
      "pbrMetallicRoughness": {
        "baseColorTexture": {
          "index": 1
        },
        "metallicFactor": 0.0
      }
    },
    {
      "doubleSided": true,
      "emissiveFactor": [
        0.1,
        0.1,
        0.1
      ],
      "emissiveTexture": {
        "index": 1
      },
      "extensions": {
        "KHR_materials_specular": {
          "specularColorFactor": [
            1.0,
            1.0,
            1.0
          ],
          "specularFactor": 0.0
        }
      },
      "name": "Enchanting_Table",
      "pbrMetallicRoughness": {
        "baseColorTexture": {
          "index": 1
        },
        "metallicFactor": 0.0
      }
    },
    {
      "doubleSided": true,
      "emissiveFactor": [
        0.1,
        0.1,
        0.1
      ],
      "emissiveTexture": {
        "index": 1
      },
      "extensions": {
        "KHR_materials_specular": {
          "specularColorFactor": [
            1.0,
            1.0,
            1.0
          ],
          "specularFactor": 0.0
        }
      },
      "name": "Ender_Chest",
      "pbrMetallicRoughness": {
        "baseColorTexture": {
          "index": 1
        },
        "metallicFactor": 0.0
      }
    },
    {
      "doubleSided": true,
      "emissiveFactor": [
        0.1,
        0.1,
        0.1
      ],
      "emissiveTexture": {
        "index": 1
      },
      "extensions": {
        "KHR_materials_specular": {
          "specularColorFactor": [
            1.0,
            1.0,
            1.0
          ],
          "specularFactor": 0.0
        }
      },
      "name": "Fence",
      "pbrMetallicRoughness": {
        "baseColorTexture": {
          "index": 1
        },
        "metallicFactor": 0.0
      }
    },
    {
      "doubleSided": true,
      "emissiveFactor": [
        0.1,
        0.1,
        0.1
      ],
      "emissiveTexture": {
        "index": 1
      },
      "extensions": {
        "KHR_materials_specular": {
          "specularColorFactor": [
            1.0,
            1.0,
            1.0
          ],
          "specularFactor": 0.0
        }
      },
      "name": "Fence_Gate",
      "pbrMetallicRoughness": {
        "baseColorTexture": {
          "index": 1
        },
        "metallicFactor": 0.0
      }
    },
    {
      "alphaMode": "BLEND",
      "emissiveFactor": [
        1.0,
        1.0,
        1.0
      ],
      "emissiveTexture": {
        "index": 1
      },
      "extensions": {
        "KHR_materials_specular": {
          "specularColorFactor": [
            1.0,
            1.0,
            1.0
          ],
          "specularFactor": 0.0
        }
      },
      "name": "Fire",
      "pbrMetallicRoughness": {
        "baseColorTexture": {
          "index": 0
        },
        "metallicFactor": 0.0
      }
    },
    {
      "doubleSided": true,
      "emissiveFactor": [
        0.1,
        0.1,
        0.1
      ],
      "emissiveTexture": {
        "index": 1
      },
      "extensions": {
        "KHR_materials_specular": {
          "specularColorFactor": [
            1.0,
            1.0,
            1.0
          ],
          "specularFactor": 0.0
        }
      },
      "name": "Flower_Pot",
      "pbrMetallicRoughness": {
        "baseColorTexture": {
          "index": 1
        },
        "metallicFactor": 0.0
      }
    },
    {
      "doubleSided": true,
      "emissiveFactor": [
        0.1,
        0.1,
        0.1
      ],
      "emissiveTexture": {
        "index": 1
      },
      "extensions": {
        "KHR_materials_specular": {
          "specularColorFactor": [
            1.0,
            1.0,
            1.0
          ],
          "specularFactor": 0.0
        }
      },
      "name": "Furnace",
      "pbrMetallicRoughness": {
        "baseColorTexture": {
          "index": 1
        },
        "metallicFactor": 0.0
      }
    },
    {
      "alphaMode": "BLEND",
      "emissiveFactor": [
        0.1,
        0.1,
        0.1
      ],
      "emissiveTexture": {
        "index": 1
      },
      "extensions": {
        "KHR_materials_specular": {
          "specularColorFactor": [
            1.0,
            1.0,
            1.0
          ],
          "specularFactor": 0.0
        }
      },
      "name": "Glass",
      "pbrMetallicRoughness": {
        "baseColorTexture": {
          "index": 0
        },
        "metallicFactor": 0.0
      }
    },
    {
      "doubleSided": true,
      "emissiveFactor": [
        1.0,
        1.0,
        1.0
      ],
      "emissiveTexture": {
        "index": 1
      },
      "extensions": {
        "KHR_materials_specular": {
          "specularColorFactor": [
            1.0,
            1.0,
            1.0
          ],
          "specularFactor": 0.0
        }
      },
      "name": "Glowstone",
      "pbrMetallicRoughness": {
        "baseColorTexture": {
          "index": 1
        },
        "metallicFactor": 0.0
      }
    },
    {
      "alphaMode": "BLEND",
      "emissiveFactor": [
        0.1,
        0.1,
        0.1
      ],
      "emissiveTexture": {
        "index": 1
      },
      "extensions": {
        "KHR_materials_specular": {
          "specularColorFactor": [
            1.0,
            1.0,
            1.0
          ],
          "specularFactor": 0.0
        }
      },
      "name": "Grass",
      "pbrMetallicRoughness": {
        "baseColorTexture": {
          "index": 0
        },
        "metallicFactor": 0.0
      }
    },
    {
      "doubleSided": true,
      "emissiveFactor": [
        0.1,
        0.1,
        0.1
      ],
      "emissiveTexture": {
        "index": 1
      },
      "extensions": {
        "KHR_materials_specular": {
          "specularColorFactor": [
            1.0,
            1.0,
            1.0
          ],
          "specularFactor": 0.0
        }
      },
      "name": "Grass_Block",
      "pbrMetallicRoughness": {
        "baseColorTexture": {
          "index": 1
        },
        "metallicFactor": 0.0
      }
    },
    {
      "doubleSided": true,
      "emissiveFactor": [
        0.1,
        0.1,
        0.1
      ],
      "emissiveTexture": {
        "index": 1
      },
      "extensions": {
        "KHR_materials_specular": {
          "specularColorFactor": [
            1.0,
            1.0,
            1.0
          ],
          "specularFactor": 0.0
        }
      },
      "name": "Gravel",
      "pbrMetallicRoughness": {
        "baseColorTexture": {
          "index": 1
        },
        "metallicFactor": 0.0
      }
    },
    {
      "alphaMode": "BLEND",
      "emissiveFactor": [
        0.1,
        0.1,
        0.1
      ],
      "emissiveTexture": {
        "index": 1
      },
      "extensions": {
        "KHR_materials_specular": {
          "specularColorFactor": [
            1.0,
            1.0,
            1.0
          ],
          "specularFactor": 0.0
        }
      },
      "name": "Iron_Bars",
      "pbrMetallicRoughness": {
        "baseColorTexture": {
          "index": 0
        },
        "metallicFactor": 0.0
      }
    },
    {
      "doubleSided": true,
      "emissiveFactor": [
        0.1,
        0.1,
        0.1
      ],
      "emissiveTexture": {
        "index": 1
      },
      "extensions": {
        "KHR_materials_specular": {
          "specularColorFactor": [
            1.0,
            1.0,
            1.0
          ],
          "specularFactor": 0.0
        }
      },
      "name": "Jungle_Stairs",
      "pbrMetallicRoughness": {
        "baseColorTexture": {
          "index": 1
        },
        "metallicFactor": 0.0
      }
    },
    {
      "doubleSided": true,
      "emissiveFactor": [
        0.1,
        0.1,
        0.1
      ],
      "emissiveTexture": {
        "index": 1
      },
      "extensions": {
        "KHR_materials_specular": {
          "specularColorFactor": [
            1.0,
            1.0,
            1.0
          ],
          "specularFactor": 0.0
        }
      },
      "name": "Nether_Brick",
      "pbrMetallicRoughness": {
        "baseColorTexture": {
          "index": 1
        },
        "metallicFactor": 0.0
      }
    },
    {
      "doubleSided": true,
      "emissiveFactor": [
        0.1,
        0.1,
        0.1
      ],
      "emissiveTexture": {
        "index": 1
      },
      "extensions": {
        "KHR_materials_specular": {
          "specularColorFactor": [
            1.0,
            1.0,
            1.0
          ],
          "specularFactor": 0.0
        }
      },
      "name": "Nether_Brick_Fence",
      "pbrMetallicRoughness": {
        "baseColorTexture": {
          "index": 1
        },
        "metallicFactor": 0.0
      }
    },
    {
      "doubleSided": true,
      "emissiveFactor": [
        0.1,
        0.1,
        0.1
      ],
      "emissiveTexture": {
        "index": 1
      },
      "extensions": {
        "KHR_materials_specular": {
          "specularColorFactor": [
            1.0,
            1.0,
            1.0
          ],
          "specularFactor": 0.0
        }
      },
      "name": "Nether_Brick_Stairs",
      "pbrMetallicRoughness": {
        "baseColorTexture": {
          "index": 1
        },
        "metallicFactor": 0.0
      }
    },
    {
      "doubleSided": true,
      "emissiveFactor": [
        0.1,
        0.1,
        0.1
      ],
      "emissiveTexture": {
        "index": 1
      },
      "extensions": {
        "KHR_materials_specular": {
          "specularColorFactor": [
            1.0,
            1.0,
            1.0
          ],
          "specularFactor": 0.0
        }
      },
      "name": "Netherrack",
      "pbrMetallicRoughness": {
        "baseColorTexture": {
          "index": 1
        },
        "metallicFactor": 0.0
      }
    },
    {
      "doubleSided": true,
      "emissiveFactor": [
        0.1,
        0.1,
        0.1
      ],
      "emissiveTexture": {
        "index": 1
      },
      "extensions": {
        "KHR_materials_specular": {
          "specularColorFactor": [
            1.0,
            1.0,
            1.0
          ],
          "specularFactor": 0.0
        }
      },
      "name": "Oak_Planks",
      "pbrMetallicRoughness": {
        "baseColorTexture": {
          "index": 1
        },
        "metallicFactor": 0.0
      }
    },
    {
      "doubleSided": true,
      "emissiveFactor": [
        0.1,
        0.1,
        0.1
      ],
      "emissiveTexture": {
        "index": 1
      },
      "extensions": {
        "KHR_materials_specular": {
          "specularColorFactor": [
            1.0,
            1.0,
            1.0
          ],
          "specularFactor": 0.0
        }
      },
      "name": "Oak_Pressure_Plate",
      "pbrMetallicRoughness": {
        "baseColorTexture": {
          "index": 1
        },
        "metallicFactor": 0.0
      }
    },
    {
      "doubleSided": true,
      "emissiveFactor": [
        0.1,
        0.1,
        0.1
      ],
      "emissiveTexture": {
        "index": 1
      },
      "extensions": {
        "KHR_materials_specular": {
          "specularColorFactor": [
            1.0,
            1.0,
            1.0
          ],
          "specularFactor": 0.0
        }
      },
      "name": "Oak_Slab",
      "pbrMetallicRoughness": {
        "baseColorTexture": {
          "index": 1
        },
        "metallicFactor": 0.0
      }
    },
    {
      "doubleSided": true,
      "emissiveFactor": [
        0.1,
        0.1,
        0.1
      ],
      "emissiveTexture": {
        "index": 1
      },
      "extensions": {
        "KHR_materials_specular": {
          "specularColorFactor": [
            1.0,
            1.0,
            1.0
          ],
          "specularFactor": 0.0
        }
      },
      "name": "Oak_Stairs",
      "pbrMetallicRoughness": {
        "baseColorTexture": {
          "index": 1
        },
        "metallicFactor": 0.0
      }
    },
    {
      "doubleSided": true,
      "emissiveFactor": [
        0.1,
        0.1,
        0.1
      ],
      "emissiveTexture": {
        "index": 1
      },
      "extensions": {
        "KHR_materials_specular": {
          "specularColorFactor": [
            1.0,
            1.0,
            1.0
          ],
          "specularFactor": 0.0
        }
      },
      "name": "Obsidian",
      "pbrMetallicRoughness": {
        "baseColorTexture": {
          "index": 1
        },
        "metallicFactor": 0.0
      }
    },
    {
      "alphaMode": "BLEND",
      "emissiveFactor": [
        0.1,
        0.1,
        0.1
      ],
      "emissiveTexture": {
        "index": 1
      },
      "extensions": {
        "KHR_materials_specular": {
          "specularColorFactor": [
            1.0,
            1.0,
            1.0
          ],
          "specularFactor": 0.0
        }
      },
      "name": "Poppy",
      "pbrMetallicRoughness": {
        "baseColorTexture": {
          "index": 0
        },
        "metallicFactor": 0.0
      }
    },
    {
      "alphaMode": "BLEND",
      "emissiveFactor": [
        0.1,
        0.1,
        0.1
      ],
      "emissiveTexture": {
        "index": 1
      },
      "extensions": {
        "KHR_materials_specular": {
          "specularColorFactor": [
            1.0,
            1.0,
            1.0
          ],
          "specularFactor": 0.0
        }
      },
      "name": "Red_Mushroom",
      "pbrMetallicRoughness": {
        "baseColorTexture": {
          "index": 0
        },
        "metallicFactor": 0.0
      }
    },
    {
      "doubleSided": true,
      "emissiveFactor": [
        0.1,
        0.1,
        0.1
      ],
      "emissiveTexture": {
        "index": 1
      },
      "extensions": {
        "KHR_materials_specular": {
          "specularColorFactor": [
            1.0,
            1.0,
            1.0
          ],
          "specularFactor": 0.0
        }
      },
      "name": "Sandstone",
      "pbrMetallicRoughness": {
        "baseColorTexture": {
          "index": 1
        },
        "metallicFactor": 0.0
      }
    },
    {
      "alphaMode": "BLEND",
      "emissiveFactor": [
        0.1,
        0.1,
        0.1
      ],
      "emissiveTexture": {
        "index": 1
      },
      "extensions": {
        "KHR_materials_specular": {
          "specularColorFactor": [
            1.0,
            1.0,
            1.0
          ],
          "specularFactor": 0.0
        }
      },
      "name": "Sapling",
      "pbrMetallicRoughness": {
        "baseColorTexture": {
          "index": 0
        },
        "metallicFactor": 0.0
      }
    },
    {
      "doubleSided": true,
      "emissiveFactor": [
        1.0,
        1.0,
        1.0
      ],
      "emissiveTexture": {
        "index": 1
      },
      "extensions": {
        "KHR_materials_specular": {
          "specularColorFactor": [
            1.0,
            1.0,
            1.0
          ],
          "specularFactor": 0.0
        }
      },
      "name": "Stationary_Lava",
      "pbrMetallicRoughness": {
        "baseColorTexture": {
          "index": 1
        },
        "metallicFactor": 0.0
      }
    },
    {
      "alphaMode": "BLEND",
      "emissiveFactor": [
        0.1,
        0.1,
        0.1
      ],
      "emissiveTexture": {
        "index": 1
      },
      "extensions": {
        "KHR_materials_specular": {
          "specularColorFactor": [
            1.0,
            1.0,
            1.0
          ],
          "specularFactor": 0.0
        }
      },
      "name": "Stationary_Water",
      "pbrMetallicRoughness": {
        "baseColorTexture": {
          "index": 0
        },
        "metallicFactor": 0.0
      }
    },
    {
      "doubleSided": true,
      "emissiveFactor": [
        0.1,
        0.1,
        0.1
      ],
      "emissiveTexture": {
        "index": 1
      },
      "extensions": {
        "KHR_materials_specular": {
          "specularColorFactor": [
            1.0,
            1.0,
            1.0
          ],
          "specularFactor": 0.0
        }
      },
      "name": "Stone_Brick_Stairs",
      "pbrMetallicRoughness": {
        "baseColorTexture": {
          "index": 1
        },
        "metallicFactor": 0.0
      }
    },
    {
      "doubleSided": true,
      "emissiveFactor": [
        0.1,
        0.1,
        0.1
      ],
      "emissiveTexture": {
        "index": 1
      },
      "extensions": {
        "KHR_materials_specular": {
          "specularColorFactor": [
            1.0,
            1.0,
            1.0
          ],
          "specularFactor": 0.0
        }
      },
      "name": "Stone_Bricks",
      "pbrMetallicRoughness": {
        "baseColorTexture": {
          "index": 1
        },
        "metallicFactor": 0.0
      }
    },
    {
      "doubleSided": true,
      "emissiveFactor": [
        0.1,
        0.1,
        0.1
      ],
      "emissiveTexture": {
        "index": 1
      },
      "extensions": {
        "KHR_materials_specular": {
          "specularColorFactor": [
            1.0,
            1.0,
            1.0
          ],
          "specularFactor": 0.0
        }
      },
      "name": "Stone_Slab",
      "pbrMetallicRoughness": {
        "baseColorTexture": {
          "index": 1
        },
        "metallicFactor": 0.0
      }
    },
    {
      "alphaMode": "BLEND",
      "emissiveFactor": [
        1.0,
        1.0,
        1.0
      ],
      "emissiveTexture": {
        "index": 1
      },
      "extensions": {
        "KHR_materials_specular": {
          "specularColorFactor": [
            1.0,
            1.0,
            1.0
          ],
          "specularFactor": 0.0
        }
      },
      "name": "Torch",
      "pbrMetallicRoughness": {
        "baseColorTexture": {
          "index": 0
        },
        "metallicFactor": 0.0
      }
    }
  ],
  "meshes": [
    {
      "name": "Object_0",
      "primitives": [
        {
          "attributes": {
            "NORMAL": 1,
            "POSITION": 0,
            "TEXCOORD_0": 2
          },
          "indices": 3,
          "material": 0,
          "mode": 4
        }
      ]
    },
    {
      "name": "Object_1",
      "primitives": [
        {
          "attributes": {
            "NORMAL": 5,
            "POSITION": 4,
            "TEXCOORD_0": 6
          },
          "indices": 7,
          "material": 1,
          "mode": 4
        }
      ]
    },
    {
      "name": "Object_2",
      "primitives": [
        {
          "attributes": {
            "NORMAL": 9,
            "POSITION": 8,
            "TEXCOORD_0": 10
          },
          "indices": 11,
          "material": 2,
          "mode": 4
        }
      ]
    },
    {
      "name": "Object_3",
      "primitives": [
        {
          "attributes": {
            "NORMAL": 13,
            "POSITION": 12,
            "TEXCOORD_0": 14
          },
          "indices": 15,
          "material": 3,
          "mode": 4
        }
      ]
    },
    {
      "name": "Object_4",
      "primitives": [
        {
          "attributes": {
            "NORMAL": 17,
            "POSITION": 16,
            "TEXCOORD_0": 18
          },
          "indices": 19,
          "material": 4,
          "mode": 4
        }
      ]
    },
    {
      "name": "Object_5",
      "primitives": [
        {
          "attributes": {
            "NORMAL": 21,
            "POSITION": 20,
            "TEXCOORD_0": 22
          },
          "indices": 23,
          "material": 5,
          "mode": 4
        }
      ]
    },
    {
      "name": "Object_6",
      "primitives": [
        {
          "attributes": {
            "NORMAL": 25,
            "POSITION": 24,
            "TEXCOORD_0": 26
          },
          "indices": 27,
          "material": 6,
          "mode": 4
        }
      ]
    },
    {
      "name": "Object_7",
      "primitives": [
        {
          "attributes": {
            "NORMAL": 29,
            "POSITION": 28,
            "TEXCOORD_0": 30
          },
          "indices": 31,
          "material": 7,
          "mode": 4
        }
      ]
    },
    {
      "name": "Object_8",
      "primitives": [
        {
          "attributes": {
            "NORMAL": 33,
            "POSITION": 32,
            "TEXCOORD_0": 34
          },
          "indices": 35,
          "material": 8,
          "mode": 4
        }
      ]
    },
    {
      "name": "Object_9",
      "primitives": [
        {
          "attributes": {
            "NORMAL": 37,
            "POSITION": 36,
            "TEXCOORD_0": 38
          },
          "indices": 39,
          "material": 9,
          "mode": 4
        }
      ]
    },
    {
      "name": "Object_10",
      "primitives": [
        {
          "attributes": {
            "NORMAL": 41,
            "POSITION": 40,
            "TEXCOORD_0": 42
          },
          "indices": 43,
          "material": 10,
          "mode": 4
        }
      ]
    },
    {
      "name": "Object_11",
      "primitives": [
        {
          "attributes": {
            "NORMAL": 45,
            "POSITION": 44,
            "TEXCOORD_0": 46
          },
          "indices": 47,
          "material": 11,
          "mode": 4
        }
      ]
    },
    {
      "name": "Object_12",
      "primitives": [
        {
          "attributes": {
            "NORMAL": 49,
            "POSITION": 48,
            "TEXCOORD_0": 50
          },
          "indices": 51,
          "material": 12,
          "mode": 4
        }
      ]
    },
    {
      "name": "Object_13",
      "primitives": [
        {
          "attributes": {
            "NORMAL": 53,
            "POSITION": 52,
            "TEXCOORD_0": 54
          },
          "indices": 55,
          "material": 13,
          "mode": 4
        }
      ]
    },
    {
      "name": "Object_14",
      "primitives": [
        {
          "attributes": {
            "NORMAL": 57,
            "POSITION": 56,
            "TEXCOORD_0": 58
          },
          "indices": 59,
          "material": 14,
          "mode": 4
        }
      ]
    },
    {
      "name": "Object_15",
      "primitives": [
        {
          "attributes": {
            "NORMAL": 61,
            "POSITION": 60,
            "TEXCOORD_0": 62
          },
          "indices": 63,
          "material": 15,
          "mode": 4
        }
      ]
    },
    {
      "name": "Object_16",
      "primitives": [
        {
          "attributes": {
            "NORMAL": 65,
            "POSITION": 64,
            "TEXCOORD_0": 66
          },
          "indices": 67,
          "material": 16,
          "mode": 4
        }
      ]
    },
    {
      "name": "Object_17",
      "primitives": [
        {
          "attributes": {
            "NORMAL": 69,
            "POSITION": 68,
            "TEXCOORD_0": 70
          },
          "indices": 71,
          "material": 17,
          "mode": 4
        }
      ]
    },
    {
      "name": "Object_18",
      "primitives": [
        {
          "attributes": {
            "NORMAL": 73,
            "POSITION": 72,
            "TEXCOORD_0": 74
          },
          "indices": 75,
          "material": 18,
          "mode": 4
        }
      ]
    },
    {
      "name": "Object_19",
      "primitives": [
        {
          "attributes": {
            "NORMAL": 77,
            "POSITION": 76,
            "TEXCOORD_0": 78
          },
          "indices": 79,
          "material": 19,
          "mode": 4
        }
      ]
    },
    {
      "name": "Object_20",
      "primitives": [
        {
          "attributes": {
            "NORMAL": 81,
            "POSITION": 80,
            "TEXCOORD_0": 82
          },
          "indices": 83,
          "material": 20,
          "mode": 4
        }
      ]
    },
    {
      "name": "Object_21",
      "primitives": [
        {
          "attributes": {
            "NORMAL": 85,
            "POSITION": 84,
            "TEXCOORD_0": 86
          },
          "indices": 87,
          "material": 21,
          "mode": 4
        }
      ]
    },
    {
      "name": "Object_22",
      "primitives": [
        {
          "attributes": {
            "NORMAL": 89,
            "POSITION": 88,
            "TEXCOORD_0": 90
          },
          "indices": 91,
          "material": 22,
          "mode": 4
        }
      ]
    },
    {
      "name": "Object_23",
      "primitives": [
        {
          "attributes": {
            "NORMAL": 93,
            "POSITION": 92,
            "TEXCOORD_0": 94
          },
          "indices": 95,
          "material": 23,
          "mode": 4
        }
      ]
    },
    {
      "name": "Object_24",
      "primitives": [
        {
          "attributes": {
            "NORMAL": 97,
            "POSITION": 96,
            "TEXCOORD_0": 98
          },
          "indices": 99,
          "material": 24,
          "mode": 4
        }
      ]
    },
    {
      "name": "Object_25",
      "primitives": [
        {
          "attributes": {
            "NORMAL": 101,
            "POSITION": 100,
            "TEXCOORD_0": 102
          },
          "indices": 103,
          "material": 25,
          "mode": 4
        }
      ]
    },
    {
      "name": "Object_26",
      "primitives": [
        {
          "attributes": {
            "NORMAL": 105,
            "POSITION": 104,
            "TEXCOORD_0": 106
          },
          "indices": 107,
          "material": 26,
          "mode": 4
        }
      ]
    },
    {
      "name": "Object_27",
      "primitives": [
        {
          "attributes": {
            "NORMAL": 109,
            "POSITION": 108,
            "TEXCOORD_0": 110
          },
          "indices": 111,
          "material": 27,
          "mode": 4
        }
      ]
    },
    {
      "name": "Object_28",
      "primitives": [
        {
          "attributes": {
            "NORMAL": 113,
            "POSITION": 112,
            "TEXCOORD_0": 114
          },
          "indices": 115,
          "material": 28,
          "mode": 4
        }
      ]
    },
    {
      "name": "Object_29",
      "primitives": [
        {
          "attributes": {
            "NORMAL": 117,
            "POSITION": 116,
            "TEXCOORD_0": 118
          },
          "indices": 119,
          "material": 29,
          "mode": 4
        }
      ]
    },
    {
      "name": "Object_30",
      "primitives": [
        {
          "attributes": {
            "NORMAL": 121,
            "POSITION": 120,
            "TEXCOORD_0": 122
          },
          "indices": 123,
          "material": 30,
          "mode": 4
        }
      ]
    },
    {
      "name": "Object_31",
      "primitives": [
        {
          "attributes": {
            "NORMAL": 125,
            "POSITION": 124,
            "TEXCOORD_0": 126
          },
          "indices": 127,
          "material": 30,
          "mode": 4
        }
      ]
    },
    {
      "name": "Object_32",
      "primitives": [
        {
          "attributes": {
            "NORMAL": 129,
            "POSITION": 128,
            "TEXCOORD_0": 130
          },
          "indices": 131,
          "material": 31,
          "mode": 4
        }
      ]
    },
    {
      "name": "Object_33",
      "primitives": [
        {
          "attributes": {
            "NORMAL": 133,
            "POSITION": 132,
            "TEXCOORD_0": 134
          },
          "indices": 135,
          "material": 32,
          "mode": 4
        }
      ]
    },
    {
      "name": "Object_34",
      "primitives": [
        {
          "attributes": {
            "NORMAL": 137,
            "POSITION": 136,
            "TEXCOORD_0": 138
          },
          "indices": 139,
          "material": 33,
          "mode": 4
        }
      ]
    },
    {
      "name": "Object_35",
      "primitives": [
        {
          "attributes": {
            "NORMAL": 141,
            "POSITION": 140,
            "TEXCOORD_0": 142
          },
          "indices": 143,
          "material": 34,
          "mode": 4
        }
      ]
    },
    {
      "name": "Object_36",
      "primitives": [
        {
          "attributes": {
            "NORMAL": 145,
            "POSITION": 144,
            "TEXCOORD_0": 146
          },
          "indices": 147,
          "material": 35,
          "mode": 4
        }
      ]
    },
    {
      "name": "Object_37",
      "primitives": [
        {
          "attributes": {
            "NORMAL": 149,
            "POSITION": 148,
            "TEXCOORD_0": 150
          },
          "indices": 151,
          "material": 36,
          "mode": 4
        }
      ]
    },
    {
      "name": "Object_38",
      "primitives": [
        {
          "attributes": {
            "NORMAL": 153,
            "POSITION": 152,
            "TEXCOORD_0": 154
          },
          "indices": 155,
          "material": 37,
          "mode": 4
        }
      ]
    },
    {
      "name": "Object_39",
      "primitives": [
        {
          "attributes": {
            "NORMAL": 157,
            "POSITION": 156,
            "TEXCOORD_0": 158
          },
          "indices": 159,
          "material": 38,
          "mode": 4
        }
      ]
    },
    {
      "name": "Object_40",
      "primitives": [
        {
          "attributes": {
            "NORMAL": 161,
            "POSITION": 160,
            "TEXCOORD_0": 162
          },
          "indices": 163,
          "material": 39,
          "mode": 4
        }
      ]
    },
    {
      "name": "Object_41",
      "primitives": [
        {
          "attributes": {
            "NORMAL": 165,
            "POSITION": 164,
            "TEXCOORD_0": 166
          },
          "indices": 167,
          "material": 40,
          "mode": 4
        }
      ]
    },
    {
      "name": "Object_42",
      "primitives": [
        {
          "attributes": {
            "NORMAL": 169,
            "POSITION": 168,
            "TEXCOORD_0": 170
          },
          "indices": 171,
          "material": 41,
          "mode": 4
        }
      ]
    },
    {
      "name": "Object_43",
      "primitives": [
        {
          "attributes": {
            "NORMAL": 173,
            "POSITION": 172,
            "TEXCOORD_0": 174
          },
          "indices": 175,
          "material": 42,
          "mode": 4
        }
      ]
    },
    {
      "name": "Object_44",
      "primitives": [
        {
          "attributes": {
            "NORMAL": 177,
            "POSITION": 176,
            "TEXCOORD_0": 178
          },
          "indices": 179,
          "material": 43,
          "mode": 4
        }
      ]
    },
    {
      "name": "Object_45",
      "primitives": [
        {
          "attributes": {
            "NORMAL": 181,
            "POSITION": 180,
            "TEXCOORD_0": 182
          },
          "indices": 183,
          "material": 44,
          "mode": 4
        }
      ]
    },
    {
      "name": "Object_46",
      "primitives": [
        {
          "attributes": {
            "NORMAL": 185,
            "POSITION": 184,
            "TEXCOORD_0": 186
          },
          "indices": 187,
          "material": 45,
          "mode": 4
        }
      ]
    },
    {
      "name": "Object_47",
      "primitives": [
        {
          "attributes": {
            "NORMAL": 189,
            "POSITION": 188,
            "TEXCOORD_0": 190
          },
          "indices": 191,
          "material": 46,
          "mode": 4
        }
      ]
    },
    {
      "name": "Object_48",
      "primitives": [
        {
          "attributes": {
            "NORMAL": 193,
            "POSITION": 192,
            "TEXCOORD_0": 194
          },
          "indices": 195,
          "material": 47,
          "mode": 4
        }
      ]
    }
  ],
  "nodes": [
    {
      "children": [
        1
      ],
      "matrix": [
        1.0,
        0.0,
        0.0,
        0.0,
        0.0,
        2.220446049250313e-16,
        -1.0,
        0.0,
        0.0,
        1.0,
        2.220446049250313e-16,
        0.0,
        0.0,
        0.0,
        0.0,
        1.0
      ],
      "name": "Sketchfab_model"
    },
    {
      "children": [
        2,
        3,
        4,
        5,
        6,
        7,
        8,
        9,
        10,
        11,
        12,
        13,
        14,
        15,
        16,
        17,
        18,
        19,
        20,
        21,
        22,
        23,
        24,
        25,
        26,
        27,
        28,
        29,
        30,
        31,
        32,
        33,
        34,
        35,
        36,
        37,
        38,
        39,
        40,
        41,
        42,
        43,
        44,
        45,
        46,
        47,
        48,
        49,
        50
      ],
      "name": "Mineways2Skfb.obj.minecraft.cleaner.materialmerger.gles"
    },
    {
      "mesh": 0,
      "name": "Object_2"
    },
    {
      "mesh": 1,
      "name": "Object_3"
    },
    {
      "mesh": 2,
      "name": "Object_4"
    },
    {
      "mesh": 3,
      "name": "Object_5"
    },
    {
      "mesh": 4,
      "name": "Object_6"
    },
    {
      "mesh": 5,
      "name": "Object_7"
    },
    {
      "mesh": 6,
      "name": "Object_8"
    },
    {
      "mesh": 7,
      "name": "Object_9"
    },
    {
      "mesh": 8,
      "name": "Object_10"
    },
    {
      "mesh": 9,
      "name": "Object_11"
    },
    {
      "mesh": 10,
      "name": "Object_12"
    },
    {
      "mesh": 11,
      "name": "Object_13"
    },
    {
      "mesh": 12,
      "name": "Object_14"
    },
    {
      "mesh": 13,
      "name": "Object_15"
    },
    {
      "mesh": 14,
      "name": "Object_16"
    },
    {
      "mesh": 15,
      "name": "Object_17"
    },
    {
      "mesh": 16,
      "name": "Object_18"
    },
    {
      "mesh": 17,
      "name": "Object_19"
    },
    {
      "mesh": 18,
      "name": "Object_20"
    },
    {
      "mesh": 19,
      "name": "Object_21"
    },
    {
      "mesh": 20,
      "name": "Object_22"
    },
    {
      "mesh": 21,
      "name": "Object_23"
    },
    {
      "mesh": 22,
      "name": "Object_24"
    },
    {
      "mesh": 23,
      "name": "Object_25"
    },
    {
      "mesh": 24,
      "name": "Object_26"
    },
    {
      "mesh": 25,
      "name": "Object_27"
    },
    {
      "mesh": 26,
      "name": "Object_28"
    },
    {
      "mesh": 27,
      "name": "Object_29"
    },
    {
      "mesh": 28,
      "name": "Object_30"
    },
    {
      "mesh": 29,
      "name": "Object_31"
    },
    {
      "mesh": 30,
      "name": "Object_32"
    },
    {
      "mesh": 31,
      "name": "Object_33"
    },
    {
      "mesh": 32,
      "name": "Object_34"
    },
    {
      "mesh": 33,
      "name": "Object_35"
    },
    {
      "mesh": 34,
      "name": "Object_36"
    },
    {
      "mesh": 35,
      "name": "Object_37"
    },
    {
      "mesh": 36,
      "name": "Object_38"
    },
    {
      "mesh": 37,
      "name": "Object_39"
    },
    {
      "mesh": 38,
      "name": "Object_40"
    },
    {
      "mesh": 39,
      "name": "Object_41"
    },
    {
      "mesh": 40,
      "name": "Object_42"
    },
    {
      "mesh": 41,
      "name": "Object_43"
    },
    {
      "mesh": 42,
      "name": "Object_44"
    },
    {
      "mesh": 43,
      "name": "Object_45"
    },
    {
      "mesh": 44,
      "name": "Object_46"
    },
    {
      "mesh": 45,
      "name": "Object_47"
    },
    {
      "mesh": 46,
      "name": "Object_48"
    },
    {
      "mesh": 47,
      "name": "Object_49"
    },
    {
      "mesh": 48,
      "name": "Object_50"
    }
  ],
  "samplers": [
    {
      "magFilter": 9728,
      "minFilter": 9986,
      "wrapS": 10497,
      "wrapT": 10497
    }
  ],
  "scene": 0,
  "scenes": [
    {
      "name": "Sketchfab_Scene",
      "nodes": [
        0
      ]
    }
  ],
  "textures": [
    {
      "sampler": 0,
      "source": 0
    },
    {
      "sampler": 0,
      "source": 1
    }
  ]
}
