{
  "accessors": [
    {
      "bufferView": 2,
      "componentType": 5126,
      "count": 3415,
      "max": [
        0.7561938762664795,
        0.3715580701828003,
        0.9770861268043518
      ],
      "min": [
        -0.7561938762664795,
        -1.928830623626709,
        -2.9131603240966797
      ],
      "type": "VEC3"
    },
    {
      "bufferView": 2,
      "byteOffset": 40980,
      "componentType": 5126,
      "count": 3415,
      "max": [
        1.0,
        0.9999930262565613,
        0.9992936849594116
      ],
      "min": [
        -1.0,
        -1.0,
        -0.997870683670044
      ],
      "type": "VEC3"
    },
    {
      "bufferView": 1,
      "componentType": 5126,
      "count": 3415,
      "max": [
        0.875,
        1.0
      ],
      "min": [
        0.0,
        0.0
      ],
      "type": "VEC2"
    },
    {
      "bufferView": 0,
      "componentType": 5125,
      "count": 6672,
      "type": "SCALAR"
    },
    {
      "bufferView": 2,
      "byteOffset": 81960,
      "componentType": 5126,
      "count": 3968,
      "max": [
        0.38684022426605225,
        0.14955198764801025,
        -2.3913419246673584
      ],
      "min": [
        -0.38684022426605225,
        0.0644075870513916,
        -2.4764864444732666
      ],
      "type": "VEC3"
    },
    {
      "bufferView": 2,
      "byteOffset": 129576,
      "componentType": 5126,
      "count": 3968,
      "max": [
        0.9904394745826721,
        0.9951400756835938,
        0.9904395937919617
      ],
      "min": [
        -0.9904394745826721,
        -0.9951400756835938,
        -0.9904376864433289
      ],
      "type": "VEC3"
    },
    {
      "bufferView": 1,
      "byteOffset": 27320,
      "componentType": 5126,
      "count": 3968,
      "max": [
        1.0,
        1.0
      ],
      "min": [
        0.0,
        0.0
      ],
      "type": "VEC2"
    },
    {
      "bufferView": 0,
      "byteOffset": 26688,
      "componentType": 5125,
      "count": 5760,
      "type": "SCALAR"
    },
    {
      "bufferView": 2,
      "byteOffset": 177192,
      "componentType": 5126,
      "count": 56,
      "max": [
        0.41485172510147095,
        0.2666641175746918,
        -2.0679006576538086
      ],
      "min": [
        -0.41485172510147095,
        0.15198124945163727,
        -2.2737669944763184
      ],
      "type": "VEC3"
    },
    {
      "bufferView": 2,
      "byteOffset": 177864,
      "componentType": 5126,
      "count": 56,
      "max": [
        1.0,
        0.9930986166000366,
        0.39892593026161194
      ],
      "min": [
        -1.0,
        -0.9957447052001953,
        -0.9995849132537842
      ],
      "type": "VEC3"
    },
    {
      "bufferView": 1,
      "byteOffset": 59064,
      "componentType": 5126,
      "count": 56,
      "max": [
        0.595105767250061,
        0.5
      ],
      "min": [
        0.5624999403953552,
        0.49999991059303284
      ],
      "type": "VEC2"
    },
    {
      "bufferView": 0,
      "byteOffset": 49728,
      "componentType": 5125,
      "count": 84,
      "type": "SCALAR"
    },
    {
      "bufferView": 2,
      "byteOffset": 178536,
      "componentType": 5126,
      "count": 10,
      "max": [
        0.10833373665809631,
        -0.03443966805934906,
        -2.911125659942627
      ],
      "min": [
        -0.10833373665809631,
        -0.08317418396472931,
        -2.9131603240966797
      ],
      "type": "VEC3"
    },
    {
      "bufferView": 2,
      "byteOffset": 178656,
      "componentType": 5126,
      "count": 10,
      "max": [
        0.0,
        0.041712719947099686,
        -0.9991297125816345
      ],
      "min": [
        0.0,
        0.041712719947099686,
        -0.9991297125816345
      ],
      "type": "VEC3"
    },
    {
      "bufferView": 1,
      "byteOffset": 59512,
      "componentType": 5126,
      "count": 10,
      "max": [
        0.7812500596046448,
        0.5
      ],
      "min": [
        0.71875,
        0.5
      ],
      "type": "VEC2"
    },
    {
      "bufferView": 0,
      "byteOffset": 50064,
      "componentType": 5125,
      "count": 24,
      "type": "SCALAR"
    },
    {
      "bufferView": 2,
      "byteOffset": 178776,
      "componentType": 5126,
      "count": 2016,
      "max": [
        0.7209987640380859,
        0.5931975841522217,
        0.7209978103637695
      ],
      "min": [
        -0.7209968566894531,
        -0.5875321626663208,
        -0.7209978103637695
      ],
      "type": "VEC3"
    },
    {
      "bufferView": 2,
      "byteOffset": 202968,
      "componentType": 5126,
      "count": 2016,
      "max": [
        0.9904379844665527,
        0.9990419149398804,
        0.9904386401176453
      ],
      "min": [
        -0.9904386401176453,
        -0.9999955892562866,
        -0.9904386401176453
      ],
      "type": "VEC3"
    },
    {
      "bufferView": 1,
      "byteOffset": 59592,
      "componentType": 5126,
      "count": 2016,
      "max": [
        1.0,
        1.0
      ],
      "min": [
        0.0,
        0.06249988079071045
      ],
      "type": "VEC2"
    },
    {
      "bufferView": 0,
      "byteOffset": 50160,
      "componentType": 5125,
      "count": 2976,
      "type": "SCALAR"
    },
    {
      "bufferView": 2,
      "byteOffset": 227160,
      "componentType": 5126,
      "count": 649,
      "max": [
        0.1074327602982521,
        0.6790486574172974,
        0.11586025357246399
      ],
      "min": [
        -0.1894047111272812,
        0.5578200817108154,
        -0.10560454428195953
      ],
      "type": "VEC3"
    },
    {
      "bufferView": 2,
      "byteOffset": 234948,
      "componentType": 5126,
      "count": 649,
      "max": [
        0.9200426936149597,
        0.9086316227912903,
        0.9517732858657837
      ],
      "min": [
        -0.8598289489746094,
        -0.9951387047767639,
        -0.9671716690063477
      ],
      "type": "VEC3"
    },
    {
      "bufferView": 1,
      "byteOffset": 75720,
      "componentType": 5126,
      "count": 649,
      "max": [
        1.0,
        0.06249994784593582
      ],
      "min": [
        0.0,
        0.0
      ],
      "type": "VEC2"
    },
    {
      "bufferView": 0,
      "byteOffset": 62064,
      "componentType": 5125,
      "count": 927,
      "type": "SCALAR"
    },
    {
      "bufferView": 2,
      "byteOffset": 242736,
      "componentType": 5126,
      "count": 649,
      "max": [
        0.1074327602982521,
        0.6790486574172974,
        0.11586025357246399
      ],
      "min": [
        -0.1894047111272812,
        0.5578200817108154,
        -0.10560454428195953
      ],
      "type": "VEC3"
    },
    {
      "bufferView": 2,
      "byteOffset": 250524,
      "componentType": 5126,
      "count": 649,
      "max": [
        0.9200426936149597,
        0.9086316227912903,
        0.9517732858657837
      ],
      "min": [
        -0.8598289489746094,
        -0.9951387047767639,
        -0.9671716690063477
      ],
      "type": "VEC3"
    },
    {
      "bufferView": 1,
      "byteOffset": 80912,
      "componentType": 5126,
      "count": 649,
      "max": [
        1.0,
        0.06249994784593582
      ],
      "min": [
        0.0,
        0.0
      ],
      "type": "VEC2"
    },
    {
      "bufferView": 0,
      "byteOffset": 65772,
      "componentType": 5125,
      "count": 927,
      "type": "SCALAR"
    },
    {
      "bufferView": 2,
      "byteOffset": 258312,
      "componentType": 5126,
      "count": 2016,
      "max": [
        0.7209987640380859,
        0.5931975841522217,
        0.7209978103637695
      ],
      "min": [
        -0.7209968566894531,
        -0.5875321626663208,
        -0.7209978103637695
      ],
      "type": "VEC3"
    },
    {
      "bufferView": 2,
      "byteOffset": 282504,
      "componentType": 5126,
      "count": 2016,
      "max": [
        0.9904379844665527,
        0.9990419149398804,
        0.9904386401176453
      ],
      "min": [
        -0.9904386401176453,
        -0.9999955892562866,
        -0.9904386401176453
      ],
      "type": "VEC3"
    },
    {
      "bufferView": 1,
      "byteOffset": 86104,
      "componentType": 5126,
      "count": 2016,
      "max": [
        1.0,
        1.0
      ],
      "min": [
        0.0,
        0.06249988079071045
      ],
      "type": "VEC2"
    },
    {
      "bufferView": 0,
      "byteOffset": 69480,
      "componentType": 5125,
      "count": 2976,
      "type": "SCALAR"
    },
    {
      "bufferView": 2,
      "byteOffset": 306696,
      "componentType": 5126,
      "count": 2016,
      "max": [
        0.7209987640380859,
        0.5931975841522217,
        0.7209978103637695
      ],
      "min": [
        -0.7209968566894531,
        -0.5875321626663208,
        -0.7209978103637695
      ],
      "type": "VEC3"
    },
    {
      "bufferView": 2,
      "byteOffset": 330888,
      "componentType": 5126,
      "count": 2016,
      "max": [
        0.9904379844665527,
        0.9990419149398804,
        0.9904386401176453
      ],
      "min": [
        -0.9904386401176453,
        -0.9999955892562866,
        -0.9904386401176453
      ],
      "type": "VEC3"
    },
    {
      "bufferView": 1,
      "byteOffset": 102232,
      "componentType": 5126,
      "count": 2016,
      "max": [
        1.0,
        1.0
      ],
      "min": [
        0.0,
        0.06249988079071045
      ],
      "type": "VEC2"
    },
    {
      "bufferView": 0,
      "byteOffset": 81384,
      "componentType": 5125,
      "count": 2976,
      "type": "SCALAR"
    },
    {
      "bufferView": 2,
      "byteOffset": 355080,
      "componentType": 5126,
      "count": 649,
      "max": [
        0.1074327602982521,
        0.6790486574172974,
        0.11586025357246399
      ],
      "min": [
        -0.1894047111272812,
        0.5578200817108154,
        -0.10560454428195953
      ],
      "type": "VEC3"
    },
    {
      "bufferView": 2,
      "byteOffset": 362868,
      "componentType": 5126,
      "count": 649,
      "max": [
        0.9200426936149597,
        0.9086316227912903,
        0.9517732858657837
      ],
      "min": [
        -0.8598289489746094,
        -0.9951387047767639,
        -0.9671716690063477
      ],
      "type": "VEC3"
    },
    {
      "bufferView": 1,
      "byteOffset": 118360,
      "componentType": 5126,
      "count": 649,
      "max": [
        1.0,
        0.06249994784593582
      ],
      "min": [
        0.0,
        0.0
      ],
      "type": "VEC2"
    },
    {
      "bufferView": 0,
      "byteOffset": 93288,
      "componentType": 5125,
      "count": 927,
      "type": "SCALAR"
    },
    {
      "bufferView": 2,
      "byteOffset": 370656,
      "componentType": 5126,
      "count": 649,
      "max": [
        0.1074327602982521,
        0.6790486574172974,
        0.11586025357246399
      ],
      "min": [
        -0.1894047111272812,
        0.5578200817108154,
        -0.10560454428195953
      ],
      "type": "VEC3"
    },
    {
      "bufferView": 2,
      "byteOffset": 378444,
      "componentType": 5126,
      "count": 649,
      "max": [
        0.9200426936149597,
        0.9086316227912903,
        0.9517732858657837
      ],
      "min": [
        -0.8598289489746094,
        -0.9951387047767639,
        -0.9671716690063477
      ],
      "type": "VEC3"
    },
    {
      "bufferView": 1,
      "byteOffset": 123552,
      "componentType": 5126,
      "count": 649,
      "max": [
        1.0,
        0.06249994784593582
      ],
      "min": [
        0.0,
        0.0
      ],
      "type": "VEC2"
    },
    {
      "bufferView": 0,
      "byteOffset": 96996,
      "componentType": 5125,
      "count": 927,
      "type": "SCALAR"
    },
    {
      "bufferView": 2,
      "byteOffset": 386232,
      "componentType": 5126,
      "count": 2016,
      "max": [
        0.7209987640380859,
        0.5931975841522217,
        0.7209978103637695
      ],
      "min": [
        -0.7209968566894531,
        -0.5875321626663208,
        -0.7209978103637695
      ],
      "type": "VEC3"
    },
    {
      "bufferView": 2,
      "byteOffset": 410424,
      "componentType": 5126,
      "count": 2016,
      "max": [
        0.9904379844665527,
        0.9990419149398804,
        0.9904386401176453
      ],
      "min": [
        -0.9904386401176453,
        -0.9999955892562866,
        -0.9904386401176453
      ],
      "type": "VEC3"
    },
    {
      "bufferView": 1,
      "byteOffset": 128744,
      "componentType": 5126,
      "count": 2016,
      "max": [
        1.0,
        1.0
      ],
      "min": [
        0.0,
        0.06249988079071045
      ],
      "type": "VEC2"
    },
    {
      "bufferView": 0,
      "byteOffset": 100704,
      "componentType": 5125,
      "count": 2976,
      "type": "SCALAR"
    }
  ],
  "asset": {
    "extras": {
      "author": "John3333D (https://sketchfab.com/john.....3333d)",
      "license": "CC-BY-4.0 (http://creativecommons.org/licenses/by/4.0/)",
      "source": "https://sketchfab.com/3d-models/capybara-855220ae786e433eb3d86abf7427d590",
      "title": "CAPYBARA"
    },
    "generator": "Sketchfab-15.30.0",
    "version": "2.0"
  },
  "bufferViews": [
    {
      "buffer": 0,
      "byteLength": 112608,
      "name": "floatBufferViews",
      "target": 34963
    },
    {
      "buffer": 0,
      "byteLength": 144872,
      "byteOffset": 112608,
      "byteStride": 8,
      "name": "floatBufferViews",
      "target": 34962
    },
    {
      "buffer": 0,
      "byteLength": 434616,
      "byteOffset": 257480,
      "byteStride": 12,
      "name": "floatBufferViews",
      "target": 34962
    }
  ],
  "buffers": [
    {
      "byteLength": 692096,
      "uri": "scene.bin"
    }
  ],
  "extensionsUsed": [
    "KHR_materials_unlit"
  ],
  "materials": [
    {
      "doubleSided": true,
      "extensions": {
        "KHR_materials_unlit": {}
      },
      "name": "Material",
      "pbrMetallicRoughness": {
        "baseColorFactor": [
          0.384375,
          0.11857,
          0.0186647,
          1.0
        ],
        "metallicFactor": 0.0
      }
    },
    {
      "doubleSided": true,
      "extensions": {
        "KHR_materials_unlit": {}
      },
      "name": "Material.001",
      "pbrMetallicRoughness": {
        "baseColorFactor": [
          0.0,
          0.0,
          0.0,
          1.0
        ],
        "metallicFactor": 0.0
      }
    },
    {
      "doubleSided": true,
      "extensions": {
        "KHR_materials_unlit": {}
      },
      "name": "Material.002",
      "pbrMetallicRoughness": {
        "baseColorFactor": [
          0.184475,
          0.0595112,
          0.0159963,
          1.0
        ],
        "metallicFactor": 0.0
      }
    },
    {
      "doubleSided": true,
      "extensions": {
        "KHR_materials_unlit": {}
      },
      "name": "Material.003",
      "pbrMetallicRoughness": {
        "baseColorFactor": [
          0.266356,
          0.0703601,
          0.0109601,
          1.0
        ],
        "metallicFactor": 0.0
      }
    },
    {
      "doubleSided": true,
      "extensions": {
        "KHR_materials_unlit": {}
      },
      "name": "Material.004",
      "pbrMetallicRoughness": {
        "baseColorFactor": [
          0.8,
          0.199632,
          0.0119188,
          1.0
        ],
        "metallicFactor": 0.0
      }
    },
    {
      "doubleSided": true,
      "extensions": {
        "KHR_materials_unlit": {}
      },
      "name": "Material.005",
      "pbrMetallicRoughness": {
        "baseColorFactor": [
          0.0119188,
          0.8,
          0.0742956,
          1.0
        ],
        "metallicFactor": 0.0
      }
    },
    {
      "doubleSided": true,
      "extensions": {
        "KHR_materials_unlit": {}
      },
      "name": "Material.006",
      "pbrMetallicRoughness": {
        "baseColorFactor": [
          0.0119188,
          0.8,
          0.0742956,
          1.0
        ],
        "metallicFactor": 0.0
      }
    },
    {
      "doubleSided": true,
      "extensions": {
        "KHR_materials_unlit": {}
      },
      "name": "Material.007",
      "pbrMetallicRoughness": {
        "baseColorFactor": [
          0.8,
          0.199632,
          0.0119188,
          1.0
        ],
        "metallicFactor": 0.0
      }
    },
    {
      "doubleSided": true,
      "extensions": {
        "KHR_materials_unlit": {}
      },
      "name": "Material.008",
      "pbrMetallicRoughness": {
        "baseColorFactor": [
          0.8,
          0.199632,
          0.0119188,
          1.0
        ],
        "metallicFactor": 0.0
      }
    },
    {
      "doubleSided": true,
      "extensions": {
        "KHR_materials_unlit": {}
      },
      "name": "Material.009",
      "pbrMetallicRoughness": {
        "baseColorFactor": [
          0.0119188,
          0.8,
          0.0742956,
          1.0
        ],
        "metallicFactor": 0.0
      }
    },
    {
      "doubleSided": true,
      "extensions": {
        "KHR_materials_unlit": {}
      },
      "name": "Material.010",
      "pbrMetallicRoughness": {
        "baseColorFactor": [
          0.0119188,
          0.8,
          0.0742956,
          1.0
        ],
        "metallicFactor": 0.0
      }
    },
    {
      "doubleSided": true,
      "extensions": {
        "KHR_materials_unlit": {}
      },
      "name": "Material.011",
      "pbrMetallicRoughness": {
        "baseColorFactor": [
          0.8,
          0.199632,
          0.0119188,
          1.0
        ],
        "metallicFactor": 0.0
      }
    }
  ],
  "meshes": [
    {
      "name": "Object_0",
      "primitives": [
        {
          "attributes": {
            "NORMAL": 1,
            "POSITION": 0,
            "TEXCOORD_0": 2
          },
          "indices": 3,
          "material": 0,
          "mode": 4
        }
      ]
    },
    {
      "name": "Object_1",
      "primitives": [
        {
          "attributes": {
            "NORMAL": 5,
            "POSITION": 4,
            "TEXCOORD_0": 6
          },
          "indices": 7,
          "material": 1,
          "mode": 4
        }
      ]
    },
    {
      "name": "Object_2",
      "primitives": [
        {
          "attributes": {
            "NORMAL": 9,
            "POSITION": 8,
            "TEXCOORD_0": 10
          },
          "indices": 11,
          "material": 2,
          "mode": 4
        }
      ]
    },
    {
      "name": "Object_3",
      "primitives": [
        {
          "attributes": {
            "NORMAL": 13,
            "POSITION": 12,
            "TEXCOORD_0": 14
          },
          "indices": 15,
          "material": 3,
          "mode": 4
        }
      ]
    },
    {
      "name": "Object_4",
      "primitives": [
        {
          "attributes": {
            "NORMAL": 17,
            "POSITION": 16,
            "TEXCOORD_0": 18
          },
          "indices": 19,
          "material": 4,
          "mode": 4
        }
      ]
    },
    {
      "name": "Object_5",
      "primitives": [
        {
          "attributes": {
            "NORMAL": 21,
            "POSITION": 20,
            "TEXCOORD_0": 22
          },
          "indices": 23,
          "material": 5,
          "mode": 4
        }
      ]
    },
    {
      "name": "Object_6",
      "primitives": [
        {
          "attributes": {
            "NORMAL": 25,
            "POSITION": 24,
            "TEXCOORD_0": 26
          },
          "indices": 27,
          "material": 6,
          "mode": 4
        }
      ]
    },
    {
      "name": "Object_7",
      "primitives": [
        {
          "attributes": {
            "NORMAL": 29,
            "POSITION": 28,
            "TEXCOORD_0": 30
          },
          "indices": 31,
          "material": 7,
          "mode": 4
        }
      ]
    },
    {
      "name": "Object_8",
      "primitives": [
        {
          "attributes": {
            "NORMAL": 33,
            "POSITION": 32,
            "TEXCOORD_0": 34
          },
          "indices": 35,
          "material": 8,
          "mode": 4
        }
      ]
    },
    {
      "name": "Object_9",
      "primitives": [
        {
          "attributes": {
            "NORMAL": 37,
            "POSITION": 36,
            "TEXCOORD_0": 38
          },
          "indices": 39,
          "material": 9,
          "mode": 4
        }
      ]
    },
    {
      "name": "Object_10",
      "primitives": [
        {
          "attributes": {
            "NORMAL": 41,
            "POSITION": 40,
            "TEXCOORD_0": 42
          },
          "indices": 43,
          "material": 10,
          "mode": 4
        }
      ]
    },
    {
      "name": "Object_11",
      "primitives": [
        {
          "attributes": {
            "NORMAL": 45,
            "POSITION": 44,
            "TEXCOORD_0": 46
          },
          "indices": 47,
          "material": 11,
          "mode": 4
        }
      ]
    }
  ],
  "nodes": [
    {
      "children": [
        1
      ],
      "matrix": [
        1.0,
        0.0,
        0.0,
        0.0,
        0.0,
        2.220446049250313e-16,
        -1.0,
        0.0,
        0.0,
        1.0,
        2.220446049250313e-16,
        0.0,
        0.0,
        0.0,
        0.0,
        1.0
      ],
      "name": "Sketchfab_model"
    },
    {
      "children": [
        2
      ],
      "name": "root"
    },
    {
      "children": [
        3,
        5,
        7,
        9,
        11,
        13,
        15,
        17,
        19,
        21,
        23,
        25
      ],
      "matrix": [
        1.0,
        0.0,
        0.0,
        0.0,
        0.0,
        2.220446049250313e-16,
        1.0,
        0.0,
        0.0,
        -1.0,
        2.220446049250313e-16,
        0.0,
        0.0,
        0.0,
        0.0,
        1.0
      ],
      "name": "GLTF_SceneRootNode"
    },
    {
      "children": [
        4
      ],
      "matrix": [
        1.0,
        0.0,
        0.0,
        0.0,
        0.0,
        1.0,
        0.0,
        0.0,
        0.0,
        0.0,
        1.0,
        0.0,
        0.0,
        0.9450693726539612,
        0.9734215140342712,
        1.0
      ],
      "name": "Cube_0"
    },
    {
      "mesh": 0,
      "name": "Object_4"
    },
    {
      "children": [
        6
      ],
      "matrix": [
        1.0,
        0.0,
        0.0,
        0.0,
        0.0,
        1.0,
        0.0,
        0.0,
        0.0,
        0.0,
        1.0,
        0.0,
        0.0,
        0.9450693726539612,
        0.9734215140342712,
        1.0
      ],
      "name": "Cube.001_4"
    },
    {
      "mesh": 1,
      "name": "Object_6"
    },
    {
      "children": [
        8
      ],
      "matrix": [
        1.0,
        0.0,
        0.0,
        0.0,
        0.0,
        1.0,
        0.0,
        0.0,
        0.0,
        0.0,
        1.0,
        0.0,
        0.0,
        0.9450693726539612,
        0.9734215140342712,
        1.0
      ],
      "name": "Cube.002_5"
    },
    {
      "mesh": 2,
      "name": "Object_8"
    },
    {
      "children": [
        10
      ],
      "matrix": [
        1.0,
        0.0,
        0.0,
        0.0,
        0.0,
        1.0,
        0.0,
        0.0,
        0.0,
        0.0,
        1.0,
        0.0,
        0.0,
        0.9450693726539612,
        0.9734215140342712,
        1.0
      ],
      "name": "Cube.003_6"
    },
    {
      "mesh": 3,
      "name": "Object_10"
    },
    {
      "children": [
        12
      ],
      "matrix": [
        0.10662585496902466,
        0.0,
        0.0,
        0.0,
        0.0,
        0.10662585496902466,
        0.0,
        0.0,
        0.0,
        0.0,
        0.10662585496902466,
        0.0,
        -0.022587716579437256,
        1.326589584350586,
        -1.1720871925354004,
        1.0
      ],
      "name": "Cube.004_7"
    },
    {
      "mesh": 4,
      "name": "Object_12"
    },
    {
      "children": [
        14
      ],
      "matrix": [
        0.10662585496902466,
        0.0,
        0.0,
        0.0,
        0.0,
        0.10662585496902466,
        0.0,
        0.0,
        0.0,
        0.0,
        0.10662585496902466,
        0.0,
        -0.022587716579437256,
        1.326589584350586,
        -1.1720871925354004,
        1.0
      ],
      "name": "Cube.005_8"
    },
    {
      "mesh": 5,
      "name": "Object_14"
    },
    {
      "children": [
        16
      ],
      "matrix": [
        0.10662585496902466,
        0.0,
        0.0,
        0.0,
        0.0,
        0.10662585496902466,
        0.0,
        0.0,
        0.0,
        0.0,
        0.10662585496902466,
        0.0,
        -0.022587716579437256,
        1.4314392805099487,
        -1.1720871925354004,
        1.0
      ],
      "name": "Cube.006_9"
    },
    {
      "mesh": 6,
      "name": "Object_16"
    },
    {
      "children": [
        18
      ],
      "matrix": [
        0.10662585496902466,
        0.0,
        0.0,
        0.0,
        0.0,
        0.10662585496902466,
        0.0,
        0.0,
        0.0,
        0.0,
        0.10662585496902466,
        0.0,
        -0.022587716579437256,
        1.4314392805099487,
        -1.1720871925354004,
        1.0
      ],
      "name": "Cube.007_10"
    },
    {
      "mesh": 7,
      "name": "Object_18"
    },
    {
      "children": [
        20
      ],
      "matrix": [
        0.10662585496902466,
        0.0,
        0.0,
        0.0,
        0.0,
        0.10662585496902466,
        0.0,
        0.0,
        0.0,
        0.0,
        0.10662585496902466,
        0.0,
        -0.022587716579437256,
        1.5415462255477905,
        -1.1720871925354004,
        1.0
      ],
      "name": "Cube.008_11"
    },
    {
      "mesh": 8,
      "name": "Object_20"
    },
    {
      "children": [
        22
      ],
      "matrix": [
        0.10662585496902466,
        0.0,
        0.0,
        0.0,
        0.0,
        0.10662585496902466,
        0.0,
        0.0,
        0.0,
        0.0,
        0.10662585496902466,
        0.0,
        -0.022587716579437256,
        1.5415462255477905,
        -1.1720871925354004,
        1.0
      ],
      "name": "Cube.009_12"
    },
    {
      "mesh": 9,
      "name": "Object_22"
    },
    {
      "children": [
        24
      ],
      "matrix": [
        0.10662585496902466,
        0.0,
        0.0,
        0.0,
        0.0,
        0.10662585496902466,
        0.0,
        0.0,
        0.0,
        0.0,
        0.10662585496902466,
        0.0,
        -0.022587716579437256,
        1.6343395709991455,
        -1.1720871925354004,
        1.0
      ],
      "name": "Cube.010_13"
    },
    {
      "mesh": 10,
      "name": "Object_24"
    },
    {
      "children": [
        26
      ],
      "matrix": [
        0.10662585496902466,
        0.0,
        0.0,
        0.0,
        0.0,
        0.10662585496902466,
        0.0,
        0.0,
        0.0,
        0.0,
        0.10662585496902466,
        0.0,
        -0.022587716579437256,
        1.6343395709991455,
        -1.1720871925354004,
        1.0
      ],
      "name": "Cube.011_14"
    },
    {
      "mesh": 11,
      "name": "Object_26"
    }
  ],
  "scene": 0,
  "scenes": [
    {
      "name": "Sketchfab_Scene",
      "nodes": [
        0
      ]
    }
  ]
}
