{
  "accessors": [
    {
      "bufferView": 2,
      "componentType": 5126,
      "count": 1799,
      "max": [
        10.100676536560059,
        7.7277631759643555,
        62.73430633544922
      ],
      "min": [
        -9.789945602416992,
        -8.009963035583496,
        -0.7175059914588928
      ],
      "type": "VEC3"
    },
    {
      "bufferView": 2,
      "byteOffset": 21588,
      "componentType": 5126,
      "count": 1799,
      "max": [
        0.9994001388549805,
        0.9993917942047119,
        0.9984021186828613
      ],
      "min": [
        -0.9994078874588013,
        -0.9980487823486328,
        -0.9995586276054382
      ],
      "type": "VEC3"
    },
    {
      "bufferView": 3,
      "componentType": 5126,
      "count": 1799,
      "max": [
        0.9997552633285522,
        0.9999586343765259,
        0.9987828135490417,
        1.0
      ],
      "min": [
        -0.9991908073425293,
        -0.9996422529220581,
        -0.999099612236023,
        -1.0
      ],
      "type": "VEC4"
    },
    {
      "bufferView": 1,
      "componentType": 5126,
      "count": 1799,
      "max": [
        1.0031009912490845,
        0.9960409998893738
      ],
      "min": [
        0.00279999990016222,
        -0.599399983882904
      ],
      "type": "VEC2"
    },
    {
      "bufferView": 0,
      "componentType": 5125,
      "count": 8478,
      "type": "SCALAR"
    },
    {
      "bufferView": 2,
      "byteOffset": 43176,
      "componentType": 5126,
      "count": 13,
      "max": [
        2.7119150161743164,
        -2.241313934326172,
        66.98279571533203
      ],
      "min": [
        1.8540780544281006,
        -2.6379220485687256,
        66.71703338623047
      ],
      "type": "VEC3"
    },
    {
      "bufferView": 2,
      "byteOffset": 43332,
      "componentType": 5126,
      "count": 13,
      "max": [
        0.6100984215736389,
        -0.7599513530731201,
        0.31181174516677856
      ],
      "min": [
        0.15679751336574554,
        -0.9737845659255981,
        -0.46533098816871643
      ],
      "type": "VEC3"
    },
    {
      "bufferView": 1,
      "byteOffset": 14392,
      "componentType": 5126,
      "count": 13,
      "max": [
        1.2767709493637085,
        0.6783279776573181
      ],
      "min": [
        0.14725099503993988,
        0.37098100781440735
      ],
      "type": "VEC2"
    },
    {
      "bufferView": 0,
      "byteOffset": 33912,
      "componentType": 5125,
      "count": 33,
      "type": "SCALAR"
    },
    {
      "bufferView": 2,
      "byteOffset": 43488,
      "componentType": 5126,
      "count": 13,
      "max": [
        -0.11333899945020676,
        -2.91607403755188,
        67.06761932373047
      ],
      "min": [
        -1.0550860166549683,
        -3.048607110977173,
        66.77963256835938
      ],
      "type": "VEC3"
    },
    {
      "bufferView": 2,
      "byteOffset": 43644,
      "componentType": 5126,
      "count": 13,
      "max": [
        0.16790471971035004,
        -0.8850955963134766,
        0.35850197076797485
      ],
      "min": [
        -0.2915968894958496,
        -0.9990070462226868,
        -0.465297669172287
      ],
      "type": "VEC3"
    },
    {
      "bufferView": 1,
      "byteOffset": 14496,
      "componentType": 5126,
      "count": 13,
      "max": [
        1.0513509511947632,
        0.6838420033454895
      ],
      "min": [
        -0.0749870017170906,
        0.35788100957870483
      ],
      "type": "VEC2"
    },
    {
      "bufferView": 0,
      "byteOffset": 34044,
      "componentType": 5125,
      "count": 33,
      "type": "SCALAR"
    },
    {
      "bufferView": 2,
      "byteOffset": 43800,
      "componentType": 5126,
      "count": 3879,
      "max": [
        3.887115955352783,
        4.8279571533203125,
        72.02156066894531
      ],
      "min": [
        -3.696249008178711,
        -4.198896884918213,
        59.9189567565918
      ],
      "type": "VEC3"
    },
    {
      "bufferView": 2,
      "byteOffset": 90348,
      "componentType": 5126,
      "count": 3879,
      "max": [
        0.9998504519462585,
        0.999416708946228,
        0.9994577765464783
      ],
      "min": [
        -0.9999676942825317,
        -0.9999988079071045,
        -0.9986022710800171
      ],
      "type": "VEC3"
    },
    {
      "bufferView": 1,
      "byteOffset": 14600,
      "componentType": 5126,
      "count": 3879,
      "max": [
        0.9999030232429504,
        0.9461780190467834
      ],
      "min": [
        9.699999645818025e-05,
        9.699999645818025e-05
      ],
      "type": "VEC2"
    },
    {
      "bufferView": 0,
      "byteOffset": 34176,
      "componentType": 5125,
      "count": 22650,
      "type": "SCALAR"
    },
    {
      "bufferView": 2,
      "byteOffset": 136896,
      "componentType": 5126,
      "count": 313,
      "max": [
        1.898833990097046,
        -0.6982200145721436,
        65.29269409179688
      ],
      "min": [
        -0.7286670207977295,
        -3.1900370121002197,
        63.139991760253906
      ],
      "type": "VEC3"
    },
    {
      "bufferView": 2,
      "byteOffset": 140652,
      "componentType": 5126,
      "count": 313,
      "max": [
        0.9993613958358765,
        0.8388752341270447,
        0.9992800951004028
      ],
      "min": [
        -0.9916964173316956,
        -0.9997180104255676,
        -0.9996936917304993
      ],
      "type": "VEC3"
    },
    {
      "bufferView": 1,
      "byteOffset": 45632,
      "componentType": 5126,
      "count": 313,
      "max": [
        0.9961000084877014,
        0.9817000031471252
      ],
      "min": [
        0.007600000128149986,
        0.004900000058114529
      ],
      "type": "VEC2"
    },
    {
      "bufferView": 0,
      "byteOffset": 124776,
      "componentType": 5125,
      "count": 1326,
      "type": "SCALAR"
    },
    {
      "bufferView": 2,
      "byteOffset": 144408,
      "componentType": 5126,
      "count": 422,
      "max": [
        3.8300399780273438,
        2.8307719230651855,
        67.37201690673828
      ],
      "min": [
        -3.7721869945526123,
        -3.857314109802246,
        66.2277603149414
      ],
      "type": "VEC3"
    },
    {
      "bufferView": 2,
      "byteOffset": 149472,
      "componentType": 5126,
      "count": 422,
      "max": [
        0.9943656325340271,
        0.9995677471160889,
        0.9887093901634216
      ],
      "min": [
        -0.9727718830108643,
        -0.9306158423423767,
        -0.9996870160102844
      ],
      "type": "VEC3"
    },
    {
      "bufferView": 1,
      "byteOffset": 48136,
      "componentType": 5126,
      "count": 422,
      "max": [
        0.8738229870796204,
        0.9356380105018616
      ],
      "min": [
        0.078186996281147,
        0.4182380139827728
      ],
      "type": "VEC2"
    },
    {
      "bufferView": 0,
      "byteOffset": 130080,
      "componentType": 5125,
      "count": 1317,
      "type": "SCALAR"
    },
    {
      "bufferView": 2,
      "byteOffset": 154536,
      "componentType": 5126,
      "count": 4699,
      "max": [
        4.415524959564209,
        5.6505961418151855,
        72.89276123046875
      ],
      "min": [
        -4.050014019012451,
        -4.012380123138428,
        61.93370056152344
      ],
      "type": "VEC3"
    },
    {
      "bufferView": 2,
      "byteOffset": 210924,
      "componentType": 5126,
      "count": 4699,
      "max": [
        0.9995952248573303,
        0.9993990659713745,
        0.9998515248298645
      ],
      "min": [
        -0.9999203681945801,
        -0.9998385310173035,
        -0.9993280172348022
      ],
      "type": "VEC3"
    },
    {
      "bufferView": 3,
      "byteOffset": 28784,
      "componentType": 5126,
      "count": 4699,
      "max": [
        0.9999890327453613,
        0.9999203085899353,
        0.9999692440032959,
        1.0
      ],
      "min": [
        -0.987594485282898,
        -0.9998736381530762,
        -0.9994425773620605,
        1.0
      ],
      "type": "VEC4"
    },
    {
      "bufferView": 1,
      "byteOffset": 51512,
      "componentType": 5126,
      "count": 4699,
      "max": [
        1.0100669860839844,
        0.9961619973182678
      ],
      "min": [
        0.0074430000968277454,
        0.014204000122845173
      ],
      "type": "VEC2"
    },
    {
      "bufferView": 0,
      "byteOffset": 135348,
      "componentType": 5125,
      "count": 27390,
      "type": "SCALAR"
    },
    {
      "bufferView": 2,
      "byteOffset": 267312,
      "componentType": 5126,
      "count": 84,
      "max": [
        3.97904896736145,
        4.798823833465576,
        70.0951919555664
      ],
      "min": [
        -3.775438070297241,
        -4.0289812088012695,
        61.124412536621094
      ],
      "type": "VEC3"
    },
    {
      "bufferView": 2,
      "byteOffset": 268320,
      "componentType": 5126,
      "count": 84,
      "max": [
        0.9891886711120605,
        0.8940042853355408,
        0.6430249810218811
      ],
      "min": [
        -0.9756330251693726,
        -0.9953060746192932,
        -0.41539040207862854
      ],
      "type": "VEC3"
    },
    {
      "bufferView": 1,
      "byteOffset": 89104,
      "componentType": 5126,
      "count": 84,
      "max": [
        0.9998999834060669,
        0.9998999834060669
      ],
      "min": [
        9.999999747378752e-05,
        9.999999747378752e-05
      ],
      "type": "VEC2"
    },
    {
      "bufferView": 0,
      "byteOffset": 244908,
      "componentType": 5125,
      "count": 132,
      "type": "SCALAR"
    },
    {
      "bufferView": 2,
      "byteOffset": 269328,
      "componentType": 5126,
      "count": 74,
      "max": [
        2.1338210105895996,
        -0.8402600288391113,
        65.1313247680664
      ],
      "min": [
        -0.7348700165748596,
        -3.525895118713379,
        63.46528244018555
      ],
      "type": "VEC3"
    },
    {
      "bufferView": 2,
      "byteOffset": 270216,
      "componentType": 5126,
      "count": 74,
      "max": [
        0.9970972537994385,
        0.48950886726379395,
        0.9621572494506836
      ],
      "min": [
        -0.945004940032959,
        -0.9928762316703796,
        -0.9778156280517578
      ],
      "type": "VEC3"
    },
    {
      "bufferView": 1,
      "byteOffset": 89776,
      "componentType": 5126,
      "count": 74,
      "max": [
        0.9994999766349792,
        0.5642780065536499
      ],
      "min": [
        0.0024969999212771654,
        0.44593799114227295
      ],
      "type": "VEC2"
    },
    {
      "bufferView": 0,
      "byteOffset": 245436,
      "componentType": 5125,
      "count": 336,
      "type": "SCALAR"
    }
  ],
  "asset": {
    "extras": {
      "author": "FiL0S0V (https://sketchfab.com/fil0s0v)",
      "license": "CC-BY-4.0 (http://creativecommons.org/licenses/by/4.0/)",
      "source": "https://sketchfab.com/3d-models/vitalya-6229931b96534d1cb3825949c93080bb",
      "title": "Vitalya"
    },
    "generator": "Sketchfab-12.68.0",
    "version": "2.0"
  },
  "bufferViews": [
    {
      "buffer": 0,
      "byteLength": 246780,
      "name": "floatBufferViews",
      "target": 34963
    },
    {
      "buffer": 0,
      "byteLength": 90368,
      "byteOffset": 246780,
      "byteStride": 8,
      "name": "floatBufferViews",
      "target": 34962
    },
    {
      "buffer": 0,
      "byteLength": 271104,
      "byteOffset": 337148,
      "byteStride": 12,
      "name": "floatBufferViews",
      "target": 34962
    },
    {
      "buffer": 0,
      "byteLength": 103968,
      "byteOffset": 608252,
      "byteStride": 16,
      "name": "floatBufferViews",
      "target": 34962
    }
  ],
  "buffers": [
    {
      "byteLength": 712220,
      "uri": "scene.bin"
    }
  ],
  "images": [
    {
      "uri": "textures/citizen_sheet_baseColor.jpeg"
    },
    {
      "uri": "textures/citizen_sheet_normal.png"
    },
    {
      "uri": "textures/eyeball_l_baseColor.jpeg"
    },
    {
      "uri": "textures/face_baseColor.png"
    },
    {
      "uri": "textures/genericmouth_colspec_baseColor.jpeg"
    },
    {
      "uri": "textures/glasses_baseColor.png"
    },
    {
      "uri": "textures/hair_baseColor.jpeg"
    },
    {
      "uri": "textures/hair_normal.png"
    },
    {
      "uri": "textures/hairbits_baseColor.png"
    }
  ],
  "materials": [
    {
      "doubleSided": true,
      "name": "citizen_sheet",
      "normalTexture": {
        "index": 1
      },
      "pbrMetallicRoughness": {
        "baseColorTexture": {
          "index": 0
        },
        "metallicFactor": 0.0,
        "roughnessFactor": 0.6
      }
    },
    {
      "doubleSided": true,
      "name": "eyeball_l",
      "pbrMetallicRoughness": {
        "baseColorTexture": {
          "index": 2
        },
        "metallicFactor": 0.0,
        "roughnessFactor": 0.6
      }
    },
    {
      "doubleSided": true,
      "name": "eyeball_r",
      "pbrMetallicRoughness": {
        "baseColorTexture": {
          "index": 2
        },
        "metallicFactor": 0.0,
        "roughnessFactor": 0.6
      }
    },
    {
      "doubleSided": true,
      "name": "face",
      "pbrMetallicRoughness": {
        "baseColorTexture": {
          "index": 3
        },
        "metallicFactor": 0.0,
        "roughnessFactor": 0.6
      }
    },
    {
      "doubleSided": true,
      "name": "genericmouth_colspec",
      "pbrMetallicRoughness": {
        "baseColorTexture": {
          "index": 4
        },
        "metallicFactor": 0.0,
        "roughnessFactor": 0.6
      }
    },
    {
      "doubleSided": true,
      "name": "glasses",
      "pbrMetallicRoughness": {
        "baseColorTexture": {
          "index": 5
        },
        "metallicFactor": 0.0,
        "roughnessFactor": 0.6
      }
    },
    {
      "doubleSided": true,
      "name": "hair",
      "normalTexture": {
        "index": 7
      },
      "pbrMetallicRoughness": {
        "baseColorTexture": {
          "index": 6
        },
        "metallicFactor": 0.0,
        "roughnessFactor": 0.6
      }
    },
    {
      "alphaMode": "BLEND",
      "doubleSided": true,
      "name": "hairbits",
      "pbrMetallicRoughness": {
        "baseColorTexture": {
          "index": 8
        },
        "metallicFactor": 0.0,
        "roughnessFactor": 0.6
      }
    },
    {
      "doubleSided": true,
      "name": "mouth",
      "pbrMetallicRoughness": {
        "baseColorFactor": [
          0.020313,
          0.002417,
          0.002015,
          1.0
        ],
        "metallicFactor": 0.0,
        "roughnessFactor": 0.6
      }
    }
  ],
  "meshes": [
    {
      "name": "Object_0",
      "primitives": [
        {
          "attributes": {
            "NORMAL": 1,
            "POSITION": 0,
            "TANGENT": 2,
            "TEXCOORD_0": 3
          },
          "indices": 4,
          "material": 0,
          "mode": 4
        }
      ]
    },
    {
      "name": "Object_1",
      "primitives": [
        {
          "attributes": {
            "NORMAL": 6,
            "POSITION": 5,
            "TEXCOORD_0": 7
          },
          "indices": 8,
          "material": 1,
          "mode": 4
        }
      ]
    },
    {
      "name": "Object_2",
      "primitives": [
        {
          "attributes": {
            "NORMAL": 10,
            "POSITION": 9,
            "TEXCOORD_0": 11
          },
          "indices": 12,
          "material": 2,
          "mode": 4
        }
      ]
    },
    {
      "name": "Object_3",
      "primitives": [
        {
          "attributes": {
            "NORMAL": 14,
            "POSITION": 13,
            "TEXCOORD_0": 15
          },
          "indices": 16,
          "material": 3,
          "mode": 4
        }
      ]
    },
    {
      "name": "Object_4",
      "primitives": [
        {
          "attributes": {
            "NORMAL": 18,
            "POSITION": 17,
            "TEXCOORD_0": 19
          },
          "indices": 20,
          "material": 4,
          "mode": 4
        }
      ]
    },
    {
      "name": "Object_5",
      "primitives": [
        {
          "attributes": {
            "NORMAL": 22,
            "POSITION": 21,
            "TEXCOORD_0": 23
          },
          "indices": 24,
          "material": 5,
          "mode": 4
        }
      ]
    },
    {
      "name": "Object_6",
      "primitives": [
        {
          "attributes": {
            "NORMAL": 26,
            "POSITION": 25,
            "TANGENT": 27,
            "TEXCOORD_0": 28
          },
          "indices": 29,
          "material": 6,
          "mode": 4
        }
      ]
    },
    {
      "name": "Object_7",
      "primitives": [
        {
          "attributes": {
            "NORMAL": 31,
            "POSITION": 30,
            "TEXCOORD_0": 32
          },
          "indices": 33,
          "material": 7,
          "mode": 4
        }
      ]
    },
    {
      "name": "Object_8",
      "primitives": [
        {
          "attributes": {
            "NORMAL": 35,
            "POSITION": 34,
            "TEXCOORD_0": 36
          },
          "indices": 37,
          "material": 8,
          "mode": 4
        }
      ]
    }
  ],
  "nodes": [
    {
      "children": [
        1
      ],
      "matrix": [
        0.02404516190290451,
        3.8667568828742056e-18,
        3.866756882874207e-18,
        0.0,
        3.866756882874206e-18,
        5.339098475088847e-18,
        -0.02404516190290451,
        0.0,
        -3.866756882874206e-18,
        0.02404516190290451,
        5.339098475088846e-18,
        0.0,
        5.828670879282072e-15,
        6.162975822039155e-33,
        -2.7755575615628914e-17,
        1.0
      ],
      "name": "Sketchfab_model"
    },
    {
      "children": [
        2,
        3,
        4,
        5,
        6,
        7,
        8,
        9,
        10
      ],
      "name": "VITALYA.obj.cleaner.materialmerger.gles"
    },
    {
      "mesh": 0,
      "name": "Object_2"
    },
    {
      "mesh": 1,
      "name": "Object_3"
    },
    {
      "mesh": 2,
      "name": "Object_4"
    },
    {
      "mesh": 3,
      "name": "Object_5"
    },
    {
      "mesh": 4,
      "name": "Object_6"
    },
    {
      "mesh": 5,
      "name": "Object_7"
    },
    {
      "mesh": 6,
      "name": "Object_8"
    },
    {
      "mesh": 7,
      "name": "Object_9"
    },
    {
      "mesh": 8,
      "name": "Object_10"
    }
  ],
  "samplers": [
    {
      "magFilter": 9729,
      "minFilter": 9987,
      "wrapS": 10497,
      "wrapT": 10497
    }
  ],
  "scene": 0,
  "scenes": [
    {
      "name": "Sketchfab_Scene",
      "nodes": [
        0
      ]
    }
  ],
  "textures": [
    {
      "sampler": 0,
      "source": 0
    },
    {
      "sampler": 0,
      "source": 1
    },
    {
      "sampler": 0,
      "source": 2
    },
    {
      "sampler": 0,
      "source": 3
    },
    {
      "sampler": 0,
      "source": 4
    },
    {
      "sampler": 0,
      "source": 5
    },
    {
      "sampler": 0,
      "source": 6
    },
    {
      "sampler": 0,
      "source": 7
    },
    {
      "sampler": 0,
      "source": 8
    }
  ]
}
