{
  "accessors": [
    {
      "bufferView": 2,
      "componentType": 5126,
      "count": 24,
      "max": [
        3.8106071949005127,
        2.700000047683716,
        -0.019999882206320763
      ],
      "min": [
        -3.810608148574829,
        -2.700000286102295,
        -0.05288708955049515
      ],
      "type": "VEC3"
    },
    {
      "bufferView": 2,
      "byteOffset": 288,
      "componentType": 5126,
      "count": 24,
      "max": [
        1.0,
        1.0,
        1.0
      ],
      "min": [
        -1.0,
        -1.0,
        -1.0
      ],
      "type": "VEC3"
    },
    {
      "bufferView": 0,
      "componentType": 5125,
      "count": 36,
      "type": "SCALAR"
    },
    {
      "bufferView": 2,
      "byteOffset": 576,
      "componentType": 5126,
      "count": 96,
      "max": [
        1.002791404724121,
        1.0,
        1.0
      ],
      "min": [
        -1.0027916431427002,
        -1.0,
        -17.0
      ],
      "type": "VEC3"
    },
    {
      "bufferView": 2,
      "byteOffset": 1728,
      "componentType": 5126,
      "count": 96,
      "max": [
        1.0,
        1.0,
        1.0
      ],
      "min": [
        -1.0,
        -1.0,
        -1.0
      ],
      "type": "VEC3"
    },
    {
      "bufferView": 0,
      "byteOffset": 144,
      "componentType": 5125,
      "count": 144,
      "type": "SCALAR"
    },
    {
      "bufferView": 2,
      "byteOffset": 2880,
      "componentType": 5126,
      "count": 4,
      "max": [
        3.200000047683716,
        2.4000000953674316,
        6.119594786468951e-08
      ],
      "min": [
        -3.200000047683716,
        -2.4000000953674316,
        -6.119594786468951e-08
      ],
      "type": "VEC3"
    },
    {
      "bufferView": 2,
      "byteOffset": 2928,
      "componentType": 5126,
      "count": 4,
      "max": [
        0.0,
        2.549831101816835e-08,
        1.0
      ],
      "min": [
        0.0,
        2.549831101816835e-08,
        1.0
      ],
      "type": "VEC3"
    },
    {
      "bufferView": 1,
      "componentType": 5126,
      "count": 4,
      "max": [
        0.9996035099029541,
        0.40595173835754395
      ],
      "min": [
        0.7510701417922974,
        0.21998417377471924
      ],
      "type": "VEC2"
    },
    {
      "bufferView": 0,
      "byteOffset": 720,
      "componentType": 5125,
      "count": 6,
      "type": "SCALAR"
    },
    {
      "bufferView": 2,
      "byteOffset": 2976,
      "componentType": 5126,
      "count": 4,
      "max": [
        3.200000047683716,
        2.4000000953674316,
        6.119594786468951e-08
      ],
      "min": [
        -3.200000047683716,
        -2.4000000953674316,
        -6.119594786468951e-08
      ],
      "type": "VEC3"
    },
    {
      "bufferView": 2,
      "byteOffset": 3024,
      "componentType": 5126,
      "count": 4,
      "max": [
        0.0,
        2.549831101816835e-08,
        1.0
      ],
      "min": [
        0.0,
        2.549831101816835e-08,
        1.0
      ],
      "type": "VEC3"
    },
    {
      "bufferView": 1,
      "byteOffset": 32,
      "componentType": 5126,
      "count": 4,
      "max": [
        0.7490916848182678,
        0.4059518277645111
      ],
      "min": [
        0.5005583167076111,
        0.2199842631816864
      ],
      "type": "VEC2"
    },
    {
      "bufferView": 0,
      "byteOffset": 744,
      "componentType": 5125,
      "count": 6,
      "type": "SCALAR"
    },
    {
      "bufferView": 2,
      "byteOffset": 3072,
      "componentType": 5126,
      "count": 4,
      "max": [
        3.200000047683716,
        2.4000000953674316,
        6.119594786468951e-08
      ],
      "min": [
        -3.200000047683716,
        -2.4000000953674316,
        -6.119594786468951e-08
      ],
      "type": "VEC3"
    },
    {
      "bufferView": 2,
      "byteOffset": 3120,
      "componentType": 5126,
      "count": 4,
      "max": [
        0.0,
        2.549831101816835e-08,
        1.0
      ],
      "min": [
        0.0,
        2.549831101816835e-08,
        1.0
      ],
      "type": "VEC3"
    },
    {
      "bufferView": 1,
      "byteOffset": 64,
      "componentType": 5126,
      "count": 4,
      "max": [
        0.4998202323913574,
        0.4059518277645111
      ],
      "min": [
        0.2512868344783783,
        0.2199842631816864
      ],
      "type": "VEC2"
    },
    {
      "bufferView": 0,
      "byteOffset": 768,
      "componentType": 5125,
      "count": 6,
      "type": "SCALAR"
    },
    {
      "bufferView": 2,
      "byteOffset": 3168,
      "componentType": 5126,
      "count": 4,
      "max": [
        3.200000047683716,
        2.4000000953674316,
        6.119594786468951e-08
      ],
      "min": [
        -3.200000047683716,
        -2.4000000953674316,
        -6.119594786468951e-08
      ],
      "type": "VEC3"
    },
    {
      "bufferView": 2,
      "byteOffset": 3216,
      "componentType": 5126,
      "count": 4,
      "max": [
        0.0,
        2.549831101816835e-08,
        1.0
      ],
      "min": [
        0.0,
        2.549831101816835e-08,
        1.0
      ],
      "type": "VEC3"
    },
    {
      "bufferView": 1,
      "byteOffset": 96,
      "componentType": 5126,
      "count": 4,
      "max": [
        0.2493085116147995,
        0.4059518277645111
      ],
      "min": [
        0.000775141001213342,
        0.2199842631816864
      ],
      "type": "VEC2"
    },
    {
      "bufferView": 0,
      "byteOffset": 792,
      "componentType": 5125,
      "count": 6,
      "type": "SCALAR"
    },
    {
      "bufferView": 2,
      "byteOffset": 3264,
      "componentType": 5126,
      "count": 4,
      "max": [
        3.200000047683716,
        2.4000000953674316,
        6.119594786468951e-08
      ],
      "min": [
        -3.200000047683716,
        -2.4000000953674316,
        -6.119594786468951e-08
      ],
      "type": "VEC3"
    },
    {
      "bufferView": 2,
      "byteOffset": 3312,
      "componentType": 5126,
      "count": 4,
      "max": [
        0.0,
        2.549831101816835e-08,
        1.0
      ],
      "min": [
        0.0,
        2.549831101816835e-08,
        1.0
      ],
      "type": "VEC3"
    },
    {
      "bufferView": 1,
      "byteOffset": 128,
      "componentType": 5126,
      "count": 4,
      "max": [
        0.9996035099029541,
        0.5932154655456543
      ],
      "min": [
        0.7510701417922974,
        0.407247930765152
      ],
      "type": "VEC2"
    },
    {
      "bufferView": 0,
      "byteOffset": 816,
      "componentType": 5125,
      "count": 6,
      "type": "SCALAR"
    },
    {
      "bufferView": 2,
      "byteOffset": 3360,
      "componentType": 5126,
      "count": 4,
      "max": [
        3.200000047683716,
        2.4000000953674316,
        6.119594786468951e-08
      ],
      "min": [
        -3.200000047683716,
        -2.4000000953674316,
        -6.119594786468951e-08
      ],
      "type": "VEC3"
    },
    {
      "bufferView": 2,
      "byteOffset": 3408,
      "componentType": 5126,
      "count": 4,
      "max": [
        0.0,
        2.549831101816835e-08,
        1.0
      ],
      "min": [
        0.0,
        2.549831101816835e-08,
        1.0
      ],
      "type": "VEC3"
    },
    {
      "bufferView": 1,
      "byteOffset": 160,
      "componentType": 5126,
      "count": 4,
      "max": [
        0.7490916848182678,
        0.5932155251502991
      ],
      "min": [
        0.5005583167076111,
        0.40724796056747437
      ],
      "type": "VEC2"
    },
    {
      "bufferView": 0,
      "byteOffset": 840,
      "componentType": 5125,
      "count": 6,
      "type": "SCALAR"
    },
    {
      "bufferView": 2,
      "byteOffset": 3456,
      "componentType": 5126,
      "count": 4,
      "max": [
        3.200000047683716,
        2.4000000953674316,
        6.119594786468951e-08
      ],
      "min": [
        -3.200000047683716,
        -2.4000000953674316,
        -6.119594786468951e-08
      ],
      "type": "VEC3"
    },
    {
      "bufferView": 2,
      "byteOffset": 3504,
      "componentType": 5126,
      "count": 4,
      "max": [
        0.0,
        2.549831101816835e-08,
        1.0
      ],
      "min": [
        0.0,
        2.549831101816835e-08,
        1.0
      ],
      "type": "VEC3"
    },
    {
      "bufferView": 1,
      "byteOffset": 192,
      "componentType": 5126,
      "count": 4,
      "max": [
        0.49982017278671265,
        0.5932155251502991
      ],
      "min": [
        0.2512868046760559,
        0.40724796056747437
      ],
      "type": "VEC2"
    },
    {
      "bufferView": 0,
      "byteOffset": 864,
      "componentType": 5125,
      "count": 6,
      "type": "SCALAR"
    },
    {
      "bufferView": 2,
      "byteOffset": 3552,
      "componentType": 5126,
      "count": 4,
      "max": [
        3.200000047683716,
        2.4000000953674316,
        6.119594786468951e-08
      ],
      "min": [
        -3.200000047683716,
        -2.4000000953674316,
        -6.119594786468951e-08
      ],
      "type": "VEC3"
    },
    {
      "bufferView": 2,
      "byteOffset": 3600,
      "componentType": 5126,
      "count": 4,
      "max": [
        0.0,
        2.549831101816835e-08,
        1.0
      ],
      "min": [
        0.0,
        2.549831101816835e-08,
        1.0
      ],
      "type": "VEC3"
    },
    {
      "bufferView": 1,
      "byteOffset": 224,
      "componentType": 5126,
      "count": 4,
      "max": [
        0.2493085116147995,
        0.5932155251502991
      ],
      "min": [
        0.000775141001213342,
        0.40724796056747437
      ],
      "type": "VEC2"
    },
    {
      "bufferView": 0,
      "byteOffset": 888,
      "componentType": 5125,
      "count": 6,
      "type": "SCALAR"
    },
    {
      "bufferView": 2,
      "byteOffset": 3648,
      "componentType": 5126,
      "count": 4,
      "max": [
        3.200000047683716,
        2.4000000953674316,
        6.119594786468951e-08
      ],
      "min": [
        -3.200000047683716,
        -2.4000000953674316,
        -6.119594786468951e-08
      ],
      "type": "VEC3"
    },
    {
      "bufferView": 2,
      "byteOffset": 3696,
      "componentType": 5126,
      "count": 4,
      "max": [
        0.0,
        2.549831101816835e-08,
        1.0
      ],
      "min": [
        0.0,
        2.549831101816835e-08,
        1.0
      ],
      "type": "VEC3"
    },
    {
      "bufferView": 1,
      "byteOffset": 256,
      "componentType": 5126,
      "count": 4,
      "max": [
        0.9996033906936646,
        0.7804791927337646
      ],
      "min": [
        0.7510700225830078,
        0.5945116281509399
      ],
      "type": "VEC2"
    },
    {
      "bufferView": 0,
      "byteOffset": 912,
      "componentType": 5125,
      "count": 6,
      "type": "SCALAR"
    },
    {
      "bufferView": 2,
      "byteOffset": 3744,
      "componentType": 5126,
      "count": 4,
      "max": [
        3.200000047683716,
        2.4000000953674316,
        6.119594786468951e-08
      ],
      "min": [
        -3.200000047683716,
        -2.4000000953674316,
        -6.119594786468951e-08
      ],
      "type": "VEC3"
    },
    {
      "bufferView": 2,
      "byteOffset": 3792,
      "componentType": 5126,
      "count": 4,
      "max": [
        0.0,
        2.549831101816835e-08,
        1.0
      ],
      "min": [
        0.0,
        2.549831101816835e-08,
        1.0
      ],
      "type": "VEC3"
    },
    {
      "bufferView": 1,
      "byteOffset": 288,
      "componentType": 5126,
      "count": 4,
      "max": [
        0.7490918040275574,
        0.7804791927337646
      ],
      "min": [
        0.5005584359169006,
        0.5945116281509399
      ],
      "type": "VEC2"
    },
    {
      "bufferView": 0,
      "byteOffset": 936,
      "componentType": 5125,
      "count": 6,
      "type": "SCALAR"
    },
    {
      "bufferView": 2,
      "byteOffset": 3840,
      "componentType": 5126,
      "count": 4,
      "max": [
        3.200000047683716,
        2.4000000953674316,
        6.119594786468951e-08
      ],
      "min": [
        -3.200000047683716,
        -2.4000000953674316,
        -6.119594786468951e-08
      ],
      "type": "VEC3"
    },
    {
      "bufferView": 2,
      "byteOffset": 3888,
      "componentType": 5126,
      "count": 4,
      "max": [
        0.0,
        2.549831101816835e-08,
        1.0
      ],
      "min": [
        0.0,
        2.549831101816835e-08,
        1.0
      ],
      "type": "VEC3"
    },
    {
      "bufferView": 1,
      "byteOffset": 320,
      "componentType": 5126,
      "count": 4,
      "max": [
        0.4993084669113159,
        0.7804791927337646
      ],
      "min": [
        0.2507750988006592,
        0.5945116281509399
      ],
      "type": "VEC2"
    },
    {
      "bufferView": 0,
      "byteOffset": 960,
      "componentType": 5125,
      "count": 6,
      "type": "SCALAR"
    },
    {
      "bufferView": 2,
      "byteOffset": 3936,
      "componentType": 5126,
      "count": 4,
      "max": [
        3.200000047683716,
        2.4000000953674316,
        6.119594786468951e-08
      ],
      "min": [
        -3.200000047683716,
        -2.4000000953674316,
        -6.119594786468951e-08
      ],
      "type": "VEC3"
    },
    {
      "bufferView": 2,
      "byteOffset": 3984,
      "componentType": 5126,
      "count": 4,
      "max": [
        0.0,
        2.549831101816835e-08,
        1.0
      ],
      "min": [
        0.0,
        2.549831101816835e-08,
        1.0
      ],
      "type": "VEC3"
    },
    {
      "bufferView": 1,
      "byteOffset": 352,
      "componentType": 5126,
      "count": 4,
      "max": [
        0.2493085116147995,
        0.7804791927337646
      ],
      "min": [
        0.000775141001213342,
        0.5945116281509399
      ],
      "type": "VEC2"
    },
    {
      "bufferView": 0,
      "byteOffset": 984,
      "componentType": 5125,
      "count": 6,
      "type": "SCALAR"
    },
    {
      "bufferView": 3,
      "componentType": 5126,
      "count": 1,
      "max": [
        0.0
      ],
      "min": [
        0.0
      ],
      "type": "SCALAR"
    },
    {
      "bufferView": 4,
      "componentType": 5126,
      "count": 1,
      "max": [
        0.0,
        0.0,
        0.0
      ],
      "min": [
        0.0,
        0.0,
        0.0
      ],
      "type": "VEC3"
    },
    {
      "bufferView": 3,
      "byteOffset": 4,
      "componentType": 5126,
      "count": 1,
      "max": [
        0.0
      ],
      "min": [
        0.0
      ],
      "type": "SCALAR"
    },
    {
      "bufferView": 4,
      "byteOffset": 12,
      "componentType": 5126,
      "count": 1,
      "max": [
        1.0,
        1.0,
        1.0
      ],
      "min": [
        1.0,
        1.0,
        1.0
      ],
      "type": "VEC3"
    },
    {
      "bufferView": 3,
      "byteOffset": 8,
      "componentType": 5126,
      "count": 1,
      "max": [
        0.0
      ],
      "min": [
        0.0
      ],
      "type": "SCALAR"
    },
    {
      "bufferView": 5,
      "componentType": 5126,
      "count": 1,
      "max": [
        2.1855694143368964e-08,
        0.0,
        0.0,
        1.0
      ],
      "min": [
        2.1855694143368964e-08,
        0.0,
        0.0,
        1.0
      ],
      "type": "VEC4"
    },
    {
      "bufferView": 3,
      "byteOffset": 12,
      "componentType": 5126,
      "count": 1,
      "max": [
        0.0
      ],
      "min": [
        0.0
      ],
      "type": "SCALAR"
    },
    {
      "bufferView": 4,
      "byteOffset": 24,
      "componentType": 5126,
      "count": 1,
      "max": [
        0.0,
        2.4000000953674316,
        0.0
      ],
      "min": [
        0.0,
        2.4000000953674316,
        0.0
      ],
      "type": "VEC3"
    },
    {
      "bufferView": 3,
      "byteOffset": 16,
      "componentType": 5126,
      "count": 1,
      "max": [
        0.0
      ],
      "min": [
        0.0
      ],
      "type": "SCALAR"
    },
    {
      "bufferView": 4,
      "byteOffset": 36,
      "componentType": 5126,
      "count": 1,
      "max": [
        3.799999952316284,
        0.019999999552965164,
        0.30000001192092896
      ],
      "min": [
        3.799999952316284,
        0.019999999552965164,
        0.30000001192092896
      ],
      "type": "VEC3"
    },
    {
      "bufferView": 3,
      "byteOffset": 20,
      "componentType": 5126,
      "count": 1,
      "max": [
        0.0
      ],
      "min": [
        0.0
      ],
      "type": "SCALAR"
    },
    {
      "bufferView": 5,
      "byteOffset": 16,
      "componentType": 5126,
      "count": 1,
      "max": [
        -0.7071068286895752,
        0.0,
        0.0,
        0.7071067094802856
      ],
      "min": [
        -0.7071068286895752,
        0.0,
        0.0,
        0.7071067094802856
      ],
      "type": "VEC4"
    },
    {
      "bufferView": 3,
      "byteOffset": 24,
      "componentType": 5126,
      "count": 3,
      "max": [
        0.46666666865348816
      ],
      "min": [
        0.0
      ],
      "type": "SCALAR"
    },
    {
      "bufferView": 4,
      "byteOffset": 48,
      "componentType": 5126,
      "count": 3,
      "max": [
        0.0,
        0.0,
        0.001999999862164259
      ],
      "min": [
        0.0,
        0.0,
        0.0
      ],
      "type": "VEC3"
    },
    {
      "bufferView": 3,
      "byteOffset": 36,
      "componentType": 5126,
      "count": 2,
      "max": [
        0.46666666865348816
      ],
      "min": [
        0.0
      ],
      "type": "SCALAR"
    },
    {
      "bufferView": 4,
      "byteOffset": 84,
      "componentType": 5126,
      "count": 2,
      "max": [
        1.0,
        1.0,
        1.0
      ],
      "min": [
        1.0,
        1.0,
        1.0
      ],
      "type": "VEC3"
    },
    {
      "bufferView": 3,
      "byteOffset": 44,
      "componentType": 5126,
      "count": 2,
      "max": [
        0.46666666865348816
      ],
      "min": [
        0.0
      ],
      "type": "SCALAR"
    },
    {
      "bufferView": 5,
      "byteOffset": 32,
      "componentType": 5126,
      "count": 2,
      "max": [
        2.1855694143368964e-08,
        0.0,
        0.0,
        1.0
      ],
      "min": [
        2.1855694143368964e-08,
        0.0,
        0.0,
        1.0
      ],
      "type": "VEC4"
    },
    {
      "bufferView": 3,
      "byteOffset": 52,
      "componentType": 5126,
      "count": 4,
      "max": [
        0.46666666865348816
      ],
      "min": [
        0.0
      ],
      "type": "SCALAR"
    },
    {
      "bufferView": 4,
      "byteOffset": 108,
      "componentType": 5126,
      "count": 4,
      "max": [
        0.0,
        0.0,
        0.007999999448657036
      ],
      "min": [
        0.0,
        0.0,
        0.0
      ],
      "type": "VEC3"
    },
    {
      "bufferView": 3,
      "byteOffset": 68,
      "componentType": 5126,
      "count": 2,
      "max": [
        0.46666666865348816
      ],
      "min": [
        0.0
      ],
      "type": "SCALAR"
    },
    {
      "bufferView": 4,
      "byteOffset": 156,
      "componentType": 5126,
      "count": 2,
      "max": [
        1.0,
        1.0,
        1.0
      ],
      "min": [
        1.0,
        1.0,
        1.0
      ],
      "type": "VEC3"
    },
    {
      "bufferView": 3,
      "byteOffset": 76,
      "componentType": 5126,
      "count": 2,
      "max": [
        0.46666666865348816
      ],
      "min": [
        0.0
      ],
      "type": "SCALAR"
    },
    {
      "bufferView": 5,
      "byteOffset": 64,
      "componentType": 5126,
      "count": 2,
      "max": [
        2.1855694143368964e-08,
        0.0,
        0.0,
        1.0
      ],
      "min": [
        2.1855694143368964e-08,
        0.0,
        0.0,
        1.0
      ],
      "type": "VEC4"
    },
    {
      "bufferView": 3,
      "byteOffset": 84,
      "componentType": 5126,
      "count": 5,
      "max": [
        0.46666666865348816
      ],
      "min": [
        0.0
      ],
      "type": "SCALAR"
    },
    {
      "bufferView": 4,
      "byteOffset": 180,
      "componentType": 5126,
      "count": 5,
      "max": [
        0.0,
        0.0,
        0.006000000052154064
      ],
      "min": [
        0.0,
        0.0,
        0.0
      ],
      "type": "VEC3"
    },
    {
      "bufferView": 3,
      "byteOffset": 104,
      "componentType": 5126,
      "count": 2,
      "max": [
        0.46666666865348816
      ],
      "min": [
        0.0
      ],
      "type": "SCALAR"
    },
    {
      "bufferView": 4,
      "byteOffset": 240,
      "componentType": 5126,
      "count": 2,
      "max": [
        1.0,
        1.0,
        1.0
      ],
      "min": [
        1.0,
        1.0,
        1.0
      ],
      "type": "VEC3"
    },
    {
      "bufferView": 3,
      "byteOffset": 112,
      "componentType": 5126,
      "count": 2,
      "max": [
        0.46666666865348816
      ],
      "min": [
        0.0
      ],
      "type": "SCALAR"
    },
    {
      "bufferView": 5,
      "byteOffset": 96,
      "componentType": 5126,
      "count": 2,
      "max": [
        2.1855694143368964e-08,
        0.0,
        0.0,
        1.0
      ],
      "min": [
        2.1855694143368964e-08,
        0.0,
        0.0,
        1.0
      ],
      "type": "VEC4"
    },
    {
      "bufferView": 3,
      "byteOffset": 120,
      "componentType": 5126,
      "count": 6,
      "max": [
        0.46666666865348816
      ],
      "min": [
        0.0
      ],
      "type": "SCALAR"
    },
    {
      "bufferView": 4,
      "byteOffset": 264,
      "componentType": 5126,
      "count": 6,
      "max": [
        0.0,
        0.0,
        0.007999999448657036
      ],
      "min": [
        0.0,
        0.0,
        0.0
      ],
      "type": "VEC3"
    },
    {
      "bufferView": 3,
      "byteOffset": 144,
      "componentType": 5126,
      "count": 2,
      "max": [
        0.46666666865348816
      ],
      "min": [
        0.0
      ],
      "type": "SCALAR"
    },
    {
      "bufferView": 4,
      "byteOffset": 336,
      "componentType": 5126,
      "count": 2,
      "max": [
        1.0,
        1.0,
        1.0
      ],
      "min": [
        1.0,
        1.0,
        1.0
      ],
      "type": "VEC3"
    },
    {
      "bufferView": 3,
      "byteOffset": 152,
      "componentType": 5126,
      "count": 2,
      "max": [
        0.46666666865348816
      ],
      "min": [
        0.0
      ],
      "type": "SCALAR"
    },
    {
      "bufferView": 5,
      "byteOffset": 128,
      "componentType": 5126,
      "count": 2,
      "max": [
        2.1855694143368964e-08,
        0.0,
        0.0,
        1.0
      ],
      "min": [
        2.1855694143368964e-08,
        0.0,
        0.0,
        1.0
      ],
      "type": "VEC4"
    },
    {
      "bufferView": 3,
      "byteOffset": 160,
      "componentType": 5126,
      "count": 7,
      "max": [
        0.46666666865348816
      ],
      "min": [
        0.0
      ],
      "type": "SCALAR"
    },
    {
      "bufferView": 4,
      "byteOffset": 360,
      "componentType": 5126,
      "count": 7,
      "max": [
        0.0,
        0.0,
        0.009999999776482582
      ],
      "min": [
        0.0,
        0.0,
        0.0
      ],
      "type": "VEC3"
    },
    {
      "bufferView": 3,
      "byteOffset": 188,
      "componentType": 5126,
      "count": 2,
      "max": [
        0.46666666865348816
      ],
      "min": [
        0.0
      ],
      "type": "SCALAR"
    },
    {
      "bufferView": 4,
      "byteOffset": 444,
      "componentType": 5126,
      "count": 2,
      "max": [
        1.0,
        1.0,
        1.0
      ],
      "min": [
        1.0,
        1.0,
        1.0
      ],
      "type": "VEC3"
    },
    {
      "bufferView": 3,
      "byteOffset": 196,
      "componentType": 5126,
      "count": 2,
      "max": [
        0.46666666865348816
      ],
      "min": [
        0.0
      ],
      "type": "SCALAR"
    },
    {
      "bufferView": 5,
      "byteOffset": 160,
      "componentType": 5126,
      "count": 2,
      "max": [
        2.1855694143368964e-08,
        0.0,
        0.0,
        1.0
      ],
      "min": [
        2.1855694143368964e-08,
        0.0,
        0.0,
        1.0
      ],
      "type": "VEC4"
    },
    {
      "bufferView": 3,
      "byteOffset": 204,
      "componentType": 5126,
      "count": 6,
      "max": [
        0.46666666865348816
      ],
      "min": [
        0.0
      ],
      "type": "SCALAR"
    },
    {
      "bufferView": 4,
      "byteOffset": 468,
      "componentType": 5126,
      "count": 6,
      "max": [
        0.0,
        0.0,
        0.007999999448657036
      ],
      "min": [
        0.0,
        0.0,
        0.0
      ],
      "type": "VEC3"
    },
    {
      "bufferView": 3,
      "byteOffset": 228,
      "componentType": 5126,
      "count": 2,
      "max": [
        0.46666666865348816
      ],
      "min": [
        0.0
      ],
      "type": "SCALAR"
    },
    {
      "bufferView": 4,
      "byteOffset": 540,
      "componentType": 5126,
      "count": 2,
      "max": [
        1.0,
        1.0,
        1.0
      ],
      "min": [
        1.0,
        1.0,
        1.0
      ],
      "type": "VEC3"
    },
    {
      "bufferView": 3,
      "byteOffset": 236,
      "componentType": 5126,
      "count": 2,
      "max": [
        0.46666666865348816
      ],
      "min": [
        0.0
      ],
      "type": "SCALAR"
    },
    {
      "bufferView": 5,
      "byteOffset": 192,
      "componentType": 5126,
      "count": 2,
      "max": [
        2.1855694143368964e-08,
        0.0,
        0.0,
        1.0
      ],
      "min": [
        2.1855694143368964e-08,
        0.0,
        0.0,
        1.0
      ],
      "type": "VEC4"
    },
    {
      "bufferView": 3,
      "byteOffset": 244,
      "componentType": 5126,
      "count": 6,
      "max": [
        0.46666666865348816
      ],
      "min": [
        0.0
      ],
      "type": "SCALAR"
    },
    {
      "bufferView": 4,
      "byteOffset": 564,
      "componentType": 5126,
      "count": 6,
      "max": [
        0.0,
        0.0,
        0.006000000052154064
      ],
      "min": [
        0.0,
        0.0,
        0.0
      ],
      "type": "VEC3"
    },
    {
      "bufferView": 3,
      "byteOffset": 268,
      "componentType": 5126,
      "count": 2,
      "max": [
        0.46666666865348816
      ],
      "min": [
        0.0
      ],
      "type": "SCALAR"
    },
    {
      "bufferView": 4,
      "byteOffset": 636,
      "componentType": 5126,
      "count": 2,
      "max": [
        1.0,
        1.0,
        1.0
      ],
      "min": [
        1.0,
        1.0,
        1.0
      ],
      "type": "VEC3"
    },
    {
      "bufferView": 3,
      "byteOffset": 276,
      "componentType": 5126,
      "count": 2,
      "max": [
        0.46666666865348816
      ],
      "min": [
        0.0
      ],
      "type": "SCALAR"
    },
    {
      "bufferView": 5,
      "byteOffset": 224,
      "componentType": 5126,
      "count": 2,
      "max": [
        2.1855694143368964e-08,
        0.0,
        0.0,
        1.0
      ],
      "min": [
        2.1855694143368964e-08,
        0.0,
        0.0,
        1.0
      ],
      "type": "VEC4"
    },
    {
      "bufferView": 3,
      "byteOffset": 284,
      "componentType": 5126,
      "count": 6,
      "max": [
        0.46666666865348816
      ],
      "min": [
        0.0
      ],
      "type": "SCALAR"
    },
    {
      "bufferView": 4,
      "byteOffset": 660,
      "componentType": 5126,
      "count": 6,
      "max": [
        0.0,
        0.0,
        0.007999999448657036
      ],
      "min": [
        0.0,
        0.0,
        0.0
      ],
      "type": "VEC3"
    },
    {
      "bufferView": 3,
      "byteOffset": 308,
      "componentType": 5126,
      "count": 2,
      "max": [
        0.46666666865348816
      ],
      "min": [
        0.0
      ],
      "type": "SCALAR"
    },
    {
      "bufferView": 4,
      "byteOffset": 732,
      "componentType": 5126,
      "count": 2,
      "max": [
        1.0,
        1.0,
        1.0
      ],
      "min": [
        1.0,
        1.0,
        1.0
      ],
      "type": "VEC3"
    },
    {
      "bufferView": 3,
      "byteOffset": 316,
      "componentType": 5126,
      "count": 2,
      "max": [
        0.46666666865348816
      ],
      "min": [
        0.0
      ],
      "type": "SCALAR"
    },
    {
      "bufferView": 5,
      "byteOffset": 256,
      "componentType": 5126,
      "count": 2,
      "max": [
        2.1855694143368964e-08,
        0.0,
        0.0,
        1.0
      ],
      "min": [
        2.1855694143368964e-08,
        0.0,
        0.0,
        1.0
      ],
      "type": "VEC4"
    },
    {
      "bufferView": 3,
      "byteOffset": 324,
      "componentType": 5126,
      "count": 7,
      "max": [
        0.46666666865348816
      ],
      "min": [
        0.0
      ],
      "type": "SCALAR"
    },
    {
      "bufferView": 4,
      "byteOffset": 756,
      "componentType": 5126,
      "count": 7,
      "max": [
        0.0,
        0.0,
        0.009999999776482582
      ],
      "min": [
        0.0,
        0.0,
        0.0
      ],
      "type": "VEC3"
    },
    {
      "bufferView": 3,
      "byteOffset": 352,
      "componentType": 5126,
      "count": 2,
      "max": [
        0.46666666865348816
      ],
      "min": [
        0.0
      ],
      "type": "SCALAR"
    },
    {
      "bufferView": 4,
      "byteOffset": 840,
      "componentType": 5126,
      "count": 2,
      "max": [
        1.0,
        1.0,
        1.0
      ],
      "min": [
        1.0,
        1.0,
        1.0
      ],
      "type": "VEC3"
    },
    {
      "bufferView": 3,
      "byteOffset": 360,
      "componentType": 5126,
      "count": 2,
      "max": [
        0.46666666865348816
      ],
      "min": [
        0.0
      ],
      "type": "SCALAR"
    },
    {
      "bufferView": 5,
      "byteOffset": 288,
      "componentType": 5126,
      "count": 2,
      "max": [
        2.1855694143368964e-08,
        0.0,
        0.0,
        1.0
      ],
      "min": [
        2.1855694143368964e-08,
        0.0,
        0.0,
        1.0
      ],
      "type": "VEC4"
    },
    {
      "bufferView": 3,
      "byteOffset": 368,
      "componentType": 5126,
      "count": 6,
      "max": [
        0.46666666865348816
      ],
      "min": [
        0.0
      ],
      "type": "SCALAR"
    },
    {
      "bufferView": 4,
      "byteOffset": 864,
      "componentType": 5126,
      "count": 6,
      "max": [
        0.0,
        0.0,
        0.007999991998076439
      ],
      "min": [
        0.0,
        0.0,
        0.0
      ],
      "type": "VEC3"
    },
    {
      "bufferView": 3,
      "byteOffset": 392,
      "componentType": 5126,
      "count": 2,
      "max": [
        0.46666666865348816
      ],
      "min": [
        0.0
      ],
      "type": "SCALAR"
    },
    {
      "bufferView": 4,
      "byteOffset": 936,
      "componentType": 5126,
      "count": 2,
      "max": [
        1.0,
        1.0,
        1.0
      ],
      "min": [
        1.0,
        1.0,
        1.0
      ],
      "type": "VEC3"
    },
    {
      "bufferView": 3,
      "byteOffset": 400,
      "componentType": 5126,
      "count": 2,
      "max": [
        0.46666666865348816
      ],
      "min": [
        0.0
      ],
      "type": "SCALAR"
    },
    {
      "bufferView": 5,
      "byteOffset": 320,
      "componentType": 5126,
      "count": 2,
      "max": [
        2.1855694143368964e-08,
        0.0,
        0.0,
        1.0
      ],
      "min": [
        2.1855694143368964e-08,
        0.0,
        0.0,
        1.0
      ],
      "type": "VEC4"
    },
    {
      "bufferView": 3,
      "byteOffset": 408,
      "componentType": 5126,
      "count": 6,
      "max": [
        0.46666666865348816
      ],
      "min": [
        0.0
      ],
      "type": "SCALAR"
    },
    {
      "bufferView": 4,
      "byteOffset": 960,
      "componentType": 5126,
      "count": 6,
      "max": [
        0.0,
        0.0,
        0.0059999944642186165
      ],
      "min": [
        0.0,
        0.0,
        0.0
      ],
      "type": "VEC3"
    },
    {
      "bufferView": 3,
      "byteOffset": 432,
      "componentType": 5126,
      "count": 2,
      "max": [
        0.46666666865348816
      ],
      "min": [
        0.0
      ],
      "type": "SCALAR"
    },
    {
      "bufferView": 4,
      "byteOffset": 1032,
      "componentType": 5126,
      "count": 2,
      "max": [
        1.0,
        1.0,
        1.0
      ],
      "min": [
        1.0,
        1.0,
        1.0
      ],
      "type": "VEC3"
    },
    {
      "bufferView": 3,
      "byteOffset": 440,
      "componentType": 5126,
      "count": 2,
      "max": [
        0.46666666865348816
      ],
      "min": [
        0.0
      ],
      "type": "SCALAR"
    },
    {
      "bufferView": 5,
      "byteOffset": 352,
      "componentType": 5126,
      "count": 2,
      "max": [
        2.1855694143368964e-08,
        0.0,
        0.0,
        1.0
      ],
      "min": [
        2.1855694143368964e-08,
        0.0,
        0.0,
        1.0
      ],
      "type": "VEC4"
    },
    {
      "bufferView": 3,
      "byteOffset": 448,
      "componentType": 5126,
      "count": 5,
      "max": [
        0.46666666865348816
      ],
      "min": [
        0.0
      ],
      "type": "SCALAR"
    },
    {
      "bufferView": 4,
      "byteOffset": 1056,
      "componentType": 5126,
      "count": 5,
      "max": [
        0.0,
        0.0,
        0.009999990463256836
      ],
      "min": [
        0.0,
        0.0,
        0.0
      ],
      "type": "VEC3"
    },
    {
      "bufferView": 3,
      "byteOffset": 468,
      "componentType": 5126,
      "count": 2,
      "max": [
        0.46666666865348816
      ],
      "min": [
        0.0
      ],
      "type": "SCALAR"
    },
    {
      "bufferView": 4,
      "byteOffset": 1116,
      "componentType": 5126,
      "count": 2,
      "max": [
        1.0,
        1.0,
        1.0
      ],
      "min": [
        1.0,
        1.0,
        1.0
      ],
      "type": "VEC3"
    },
    {
      "bufferView": 3,
      "byteOffset": 476,
      "componentType": 5126,
      "count": 2,
      "max": [
        0.46666666865348816
      ],
      "min": [
        0.0
      ],
      "type": "SCALAR"
    },
    {
      "bufferView": 5,
      "byteOffset": 384,
      "componentType": 5126,
      "count": 2,
      "max": [
        2.1855694143368964e-08,
        0.0,
        0.0,
        1.0
      ],
      "min": [
        2.1855694143368964e-08,
        0.0,
        0.0,
        1.0
      ],
      "type": "VEC4"
    },
    {
      "bufferView": 3,
      "byteOffset": 484,
      "componentType": 5126,
      "count": 1,
      "max": [
        0.0
      ],
      "min": [
        0.0
      ],
      "type": "SCALAR"
    },
    {
      "bufferView": 4,
      "byteOffset": 1140,
      "componentType": 5126,
      "count": 1,
      "max": [
        0.0,
        0.0,
        0.0
      ],
      "min": [
        0.0,
        0.0,
        0.0
      ],
      "type": "VEC3"
    },
    {
      "bufferView": 3,
      "byteOffset": 488,
      "componentType": 5126,
      "count": 1,
      "max": [
        0.0
      ],
      "min": [
        0.0
      ],
      "type": "SCALAR"
    },
    {
      "bufferView": 4,
      "byteOffset": 1152,
      "componentType": 5126,
      "count": 1,
      "max": [
        1.0,
        1.0,
        1.0
      ],
      "min": [
        1.0,
        1.0,
        1.0
      ],
      "type": "VEC3"
    },
    {
      "bufferView": 3,
      "byteOffset": 492,
      "componentType": 5126,
      "count": 1,
      "max": [
        0.0
      ],
      "min": [
        0.0
      ],
      "type": "SCALAR"
    },
    {
      "bufferView": 5,
      "byteOffset": 416,
      "componentType": 5126,
      "count": 1,
      "max": [
        0.0,
        0.0,
        0.0,
        1.0
      ],
      "min": [
        0.0,
        0.0,
        0.0,
        1.0
      ],
      "type": "VEC4"
    }
  ],
  "animations": [
    {
      "channels": [
        {
          "sampler": 0,
          "target": {
            "node": 4,
            "path": "translation"
          }
        },
        {
          "sampler": 1,
          "target": {
            "node": 4,
            "path": "scale"
          }
        },
        {
          "sampler": 2,
          "target": {
            "node": 4,
            "path": "rotation"
          }
        },
        {
          "sampler": 3,
          "target": {
            "node": 6,
            "path": "translation"
          }
        },
        {
          "sampler": 4,
          "target": {
            "node": 6,
            "path": "scale"
          }
        },
        {
          "sampler": 5,
          "target": {
            "node": 6,
            "path": "rotation"
          }
        },
        {
          "sampler": 6,
          "target": {
            "node": 8,
            "path": "translation"
          }
        },
        {
          "sampler": 7,
          "target": {
            "node": 8,
            "path": "scale"
          }
        },
        {
          "sampler": 8,
          "target": {
            "node": 8,
            "path": "rotation"
          }
        },
        {
          "sampler": 9,
          "target": {
            "node": 10,
            "path": "translation"
          }
        },
        {
          "sampler": 10,
          "target": {
            "node": 10,
            "path": "scale"
          }
        },
        {
          "sampler": 11,
          "target": {
            "node": 10,
            "path": "rotation"
          }
        },
        {
          "sampler": 12,
          "target": {
            "node": 12,
            "path": "translation"
          }
        },
        {
          "sampler": 13,
          "target": {
            "node": 12,
            "path": "scale"
          }
        },
        {
          "sampler": 14,
          "target": {
            "node": 12,
            "path": "rotation"
          }
        },
        {
          "sampler": 15,
          "target": {
            "node": 14,
            "path": "translation"
          }
        },
        {
          "sampler": 16,
          "target": {
            "node": 14,
            "path": "scale"
          }
        },
        {
          "sampler": 17,
          "target": {
            "node": 14,
            "path": "rotation"
          }
        },
        {
          "sampler": 18,
          "target": {
            "node": 16,
            "path": "translation"
          }
        },
        {
          "sampler": 19,
          "target": {
            "node": 16,
            "path": "scale"
          }
        },
        {
          "sampler": 20,
          "target": {
            "node": 16,
            "path": "rotation"
          }
        },
        {
          "sampler": 21,
          "target": {
            "node": 18,
            "path": "translation"
          }
        },
        {
          "sampler": 22,
          "target": {
            "node": 18,
            "path": "scale"
          }
        },
        {
          "sampler": 23,
          "target": {
            "node": 18,
            "path": "rotation"
          }
        },
        {
          "sampler": 24,
          "target": {
            "node": 20,
            "path": "translation"
          }
        },
        {
          "sampler": 25,
          "target": {
            "node": 20,
            "path": "scale"
          }
        },
        {
          "sampler": 26,
          "target": {
            "node": 20,
            "path": "rotation"
          }
        },
        {
          "sampler": 27,
          "target": {
            "node": 22,
            "path": "translation"
          }
        },
        {
          "sampler": 28,
          "target": {
            "node": 22,
            "path": "scale"
          }
        },
        {
          "sampler": 29,
          "target": {
            "node": 22,
            "path": "rotation"
          }
        },
        {
          "sampler": 30,
          "target": {
            "node": 24,
            "path": "translation"
          }
        },
        {
          "sampler": 31,
          "target": {
            "node": 24,
            "path": "scale"
          }
        },
        {
          "sampler": 32,
          "target": {
            "node": 24,
            "path": "rotation"
          }
        },
        {
          "sampler": 33,
          "target": {
            "node": 26,
            "path": "translation"
          }
        },
        {
          "sampler": 34,
          "target": {
            "node": 26,
            "path": "scale"
          }
        },
        {
          "sampler": 35,
          "target": {
            "node": 26,
            "path": "rotation"
          }
        },
        {
          "sampler": 36,
          "target": {
            "node": 28,
            "path": "translation"
          }
        },
        {
          "sampler": 37,
          "target": {
            "node": 28,
            "path": "scale"
          }
        },
        {
          "sampler": 38,
          "target": {
            "node": 28,
            "path": "rotation"
          }
        },
        {
          "sampler": 39,
          "target": {
            "node": 30,
            "path": "translation"
          }
        },
        {
          "sampler": 40,
          "target": {
            "node": 30,
            "path": "scale"
          }
        },
        {
          "sampler": 41,
          "target": {
            "node": 30,
            "path": "rotation"
          }
        },
        {
          "sampler": 42,
          "target": {
            "node": 3,
            "path": "translation"
          }
        },
        {
          "sampler": 43,
          "target": {
            "node": 3,
            "path": "scale"
          }
        },
        {
          "sampler": 44,
          "target": {
            "node": 3,
            "path": "rotation"
          }
        }
      ],
      "name": "Scene",
      "samplers": [
        {
          "input": 54,
          "interpolation": "LINEAR",
          "output": 55
        },
        {
          "input": 56,
          "interpolation": "LINEAR",
          "output": 57
        },
        {
          "input": 58,
          "interpolation": "LINEAR",
          "output": 59
        },
        {
          "input": 60,
          "interpolation": "LINEAR",
          "output": 61
        },
        {
          "input": 62,
          "interpolation": "LINEAR",
          "output": 63
        },
        {
          "input": 64,
          "interpolation": "LINEAR",
          "output": 65
        },
        {
          "input": 66,
          "interpolation": "LINEAR",
          "output": 67
        },
        {
          "input": 68,
          "interpolation": "LINEAR",
          "output": 69
        },
        {
          "input": 70,
          "interpolation": "LINEAR",
          "output": 71
        },
        {
          "input": 72,
          "interpolation": "LINEAR",
          "output": 73
        },
        {
          "input": 74,
          "interpolation": "LINEAR",
          "output": 75
        },
        {
          "input": 76,
          "interpolation": "LINEAR",
          "output": 77
        },
        {
          "input": 78,
          "interpolation": "LINEAR",
          "output": 79
        },
        {
          "input": 80,
          "interpolation": "LINEAR",
          "output": 81
        },
        {
          "input": 82,
          "interpolation": "LINEAR",
          "output": 83
        },
        {
          "input": 84,
          "interpolation": "LINEAR",
          "output": 85
        },
        {
          "input": 86,
          "interpolation": "LINEAR",
          "output": 87
        },
        {
          "input": 88,
          "interpolation": "LINEAR",
          "output": 89
        },
        {
          "input": 90,
          "interpolation": "LINEAR",
          "output": 91
        },
        {
          "input": 92,
          "interpolation": "LINEAR",
          "output": 93
        },
        {
          "input": 94,
          "interpolation": "LINEAR",
          "output": 95
        },
        {
          "input": 96,
          "interpolation": "LINEAR",
          "output": 97
        },
        {
          "input": 98,
          "interpolation": "LINEAR",
          "output": 99
        },
        {
          "input": 100,
          "interpolation": "LINEAR",
          "output": 101
        },
        {
          "input": 102,
          "interpolation": "LINEAR",
          "output": 103
        },
        {
          "input": 104,
          "interpolation": "LINEAR",
          "output": 105
        },
        {
          "input": 106,
          "interpolation": "LINEAR",
          "output": 107
        },
        {
          "input": 108,
          "interpolation": "LINEAR",
          "output": 109
        },
        {
          "input": 110,
          "interpolation": "LINEAR",
          "output": 111
        },
        {
          "input": 112,
          "interpolation": "LINEAR",
          "output": 113
        },
        {
          "input": 114,
          "interpolation": "LINEAR",
          "output": 115
        },
        {
          "input": 116,
          "interpolation": "LINEAR",
          "output": 117
        },
        {
          "input": 118,
          "interpolation": "LINEAR",
          "output": 119
        },
        {
          "input": 120,
          "interpolation": "LINEAR",
          "output": 121
        },
        {
          "input": 122,
          "interpolation": "LINEAR",
          "output": 123
        },
        {
          "input": 124,
          "interpolation": "LINEAR",
          "output": 125
        },
        {
          "input": 126,
          "interpolation": "LINEAR",
          "output": 127
        },
        {
          "input": 128,
          "interpolation": "LINEAR",
          "output": 129
        },
        {
          "input": 130,
          "interpolation": "LINEAR",
          "output": 131
        },
        {
          "input": 132,
          "interpolation": "LINEAR",
          "output": 133
        },
        {
          "input": 134,
          "interpolation": "LINEAR",
          "output": 135
        },
        {
          "input": 136,
          "interpolation": "LINEAR",
          "output": 137
        },
        {
          "input": 138,
          "interpolation": "LINEAR",
          "output": 139
        },
        {
          "input": 140,
          "interpolation": "LINEAR",
          "output": 141
        },
        {
          "input": 142,
          "interpolation": "LINEAR",
          "output": 143
        }
      ]
    }
  ],
  "asset": {
    "extras": {
      "author": "Maurice Svay (https://sketchfab.com/mauricesvay)",
      "license": "CC-BY-4.0 (http://creativecommons.org/licenses/by/4.0/)",
      "source": "https://sketchfab.com/3d-models/animated-nyan-cat-7841f5567aa34453b596e81e12a76e45",
      "title": "Animated Nyan Cat"
    },
    "generator": "Sketchfab-12.66.0",
    "version": "2.0"
  },
  "bufferViews": [
    {
      "buffer": 0,
      "byteLength": 1008,
      "name": "floatBufferViews",
      "target": 34963
    },
    {
      "buffer": 0,
      "byteLength": 384,
      "byteOffset": 1008,
      "byteStride": 8,
      "name": "floatBufferViews",
      "target": 34962
    },
    {
      "buffer": 0,
      "byteLength": 4032,
      "byteOffset": 1392,
      "byteStride": 12,
      "name": "floatBufferViews",
      "target": 34962
    },
    {
      "buffer": 0,
      "byteLength": 496,
      "byteOffset": 5424,
      "name": "floatBufferViews"
    },
    {
      "buffer": 0,
      "byteLength": 1164,
      "byteOffset": 5920,
      "byteStride": 12,
      "name": "floatBufferViews"
    },
    {
      "buffer": 0,
      "byteLength": 432,
      "byteOffset": 7084,
      "byteStride": 16,
      "name": "floatBufferViews"
    }
  ],
  "buffers": [
    {
      "byteLength": 7516,
      "uri": "scene.bin"
    }
  ],
  "images": [
    {
      "uri": "textures/sprite_baseColor.png"
    }
  ],
  "materials": [
    {
      "doubleSided": true,
      "name": "Material",
      "pbrMetallicRoughness": {
        "baseColorFactor": [
          0.472307320362618,
          0.472307320362618,
          0.472307320362618,
          1.0
        ],
        "metallicFactor": 0.0
      }
    },
    {
      "doubleSided": true,
      "name": "sprite",
      "pbrMetallicRoughness": {
        "baseColorTexture": {
          "index": 0
        },
        "metallicFactor": 0.0,
        "roughnessFactor": 0.2
      }
    }
  ],
  "meshes": [
    {
      "name": "Plane_Material_0",
      "primitives": [
        {
          "attributes": {
            "NORMAL": 1,
            "POSITION": 0
          },
          "indices": 2,
          "material": 0,
          "mode": 4
        }
      ]
    },
    {
      "name": "Cube_Material_0",
      "primitives": [
        {
          "attributes": {
            "NORMAL": 4,
            "POSITION": 3
          },
          "indices": 5,
          "material": 0,
          "mode": 4
        }
      ]
    },
    {
      "name": "frame.011_sprite_0",
      "primitives": [
        {
          "attributes": {
            "NORMAL": 7,
            "POSITION": 6,
            "TEXCOORD_0": 8
          },
          "indices": 9,
          "material": 1,
          "mode": 4
        }
      ]
    },
    {
      "name": "frame.010_sprite_0",
      "primitives": [
        {
          "attributes": {
            "NORMAL": 11,
            "POSITION": 10,
            "TEXCOORD_0": 12
          },
          "indices": 13,
          "material": 1,
          "mode": 4
        }
      ]
    },
    {
      "name": "frame.009_sprite_0",
      "primitives": [
        {
          "attributes": {
            "NORMAL": 15,
            "POSITION": 14,
            "TEXCOORD_0": 16
          },
          "indices": 17,
          "material": 1,
          "mode": 4
        }
      ]
    },
    {
      "name": "frame.008_sprite_0",
      "primitives": [
        {
          "attributes": {
            "NORMAL": 19,
            "POSITION": 18,
            "TEXCOORD_0": 20
          },
          "indices": 21,
          "material": 1,
          "mode": 4
        }
      ]
    },
    {
      "name": "frame.007_sprite_0",
      "primitives": [
        {
          "attributes": {
            "NORMAL": 23,
            "POSITION": 22,
            "TEXCOORD_0": 24
          },
          "indices": 25,
          "material": 1,
          "mode": 4
        }
      ]
    },
    {
      "name": "frame.006_sprite_0",
      "primitives": [
        {
          "attributes": {
            "NORMAL": 27,
            "POSITION": 26,
            "TEXCOORD_0": 28
          },
          "indices": 29,
          "material": 1,
          "mode": 4
        }
      ]
    },
    {
      "name": "frame.005_sprite_0",
      "primitives": [
        {
          "attributes": {
            "NORMAL": 31,
            "POSITION": 30,
            "TEXCOORD_0": 32
          },
          "indices": 33,
          "material": 1,
          "mode": 4
        }
      ]
    },
    {
      "name": "frame.004_sprite_0",
      "primitives": [
        {
          "attributes": {
            "NORMAL": 35,
            "POSITION": 34,
            "TEXCOORD_0": 36
          },
          "indices": 37,
          "material": 1,
          "mode": 4
        }
      ]
    },
    {
      "name": "frame.003_sprite_0",
      "primitives": [
        {
          "attributes": {
            "NORMAL": 39,
            "POSITION": 38,
            "TEXCOORD_0": 40
          },
          "indices": 41,
          "material": 1,
          "mode": 4
        }
      ]
    },
    {
      "name": "frame.002_sprite_0",
      "primitives": [
        {
          "attributes": {
            "NORMAL": 43,
            "POSITION": 42,
            "TEXCOORD_0": 44
          },
          "indices": 45,
          "material": 1,
          "mode": 4
        }
      ]
    },
    {
      "name": "frame.001_sprite_0",
      "primitives": [
        {
          "attributes": {
            "NORMAL": 47,
            "POSITION": 46,
            "TEXCOORD_0": 48
          },
          "indices": 49,
          "material": 1,
          "mode": 4
        }
      ]
    },
    {
      "name": "frame_sprite_0",
      "primitives": [
        {
          "attributes": {
            "NORMAL": 51,
            "POSITION": 50,
            "TEXCOORD_0": 52
          },
          "indices": 53,
          "material": 1,
          "mode": 4
        }
      ]
    }
  ],
  "nodes": [
    {
      "children": [
        1
      ],
      "matrix": [
        1.0,
        0.0,
        0.0,
        0.0,
        0.0,
        2.220446049250313e-16,
        -1.0,
        0.0,
        0.0,
        1.0,
        2.220446049250313e-16,
        0.0,
        0.0,
        0.0,
        0.0,
        1.0
      ],
      "name": "Sketchfab_model"
    },
    {
      "children": [
        2
      ],
      "matrix": [
        1.0,
        0.0,
        0.0,
        0.0,
        0.0,
        0.0,
        1.0,
        0.0,
        0.0,
        -1.0,
        0.0,
        0.0,
        0.0,
        0.0,
        0.0,
        1.0
      ],
      "name": "nyancat.fbx"
    },
    {
      "children": [
        3
      ],
      "name": "Object_2"
    },
    {
      "children": [
        4,
        6,
        8,
        10,
        12,
        14,
        16,
        18,
        20,
        22,
        24,
        26,
        28,
        30
      ],
      "name": "RootNode"
    },
    {
      "children": [
        5
      ],
      "name": "Plane",
      "rotation": [
        2.1855694143368964e-08,
        0.0,
        0.0,
        1.0
      ]
    },
    {
      "mesh": 0,
      "name": "Plane_Material_0"
    },
    {
      "children": [
        7
      ],
      "name": "Cube",
      "rotation": [
        -0.7071068286895752,
        0.0,
        0.0,
        0.7071067094802856
      ],
      "scale": [
        3.799999952316284,
        0.019999999552965164,
        0.30000001192092896
      ],
      "translation": [
        0.0,
        2.4000000953674316,
        0.0
      ]
    },
    {
      "mesh": 1,
      "name": "Cube_Material_0"
    },
    {
      "children": [
        9
      ],
      "name": "frame.011",
      "rotation": [
        2.1855694143368964e-08,
        0.0,
        0.0,
        1.0
      ],
      "translation": [
        0.0,
        0.0,
        0.009999999776482582
      ]
    },
    {
      "mesh": 2,
      "name": "frame.011_sprite_0"
    },
    {
      "children": [
        11
      ],
      "name": "frame.010",
      "rotation": [
        2.1855694143368964e-08,
        0.0,
        0.0,
        1.0
      ]
    },
    {
      "mesh": 3,
      "name": "frame.010_sprite_0"
    },
    {
      "children": [
        13
      ],
      "name": "frame.009",
      "rotation": [
        2.1855694143368964e-08,
        0.0,
        0.0,
        1.0
      ]
    },
    {
      "mesh": 4,
      "name": "frame.009_sprite_0"
    },
    {
      "children": [
        15
      ],
      "name": "frame.008",
      "rotation": [
        2.1855694143368964e-08,
        0.0,
        0.0,
        1.0
      ]
    },
    {
      "mesh": 5,
      "name": "frame.008_sprite_0"
    },
    {
      "children": [
        17
      ],
      "name": "frame.007",
      "rotation": [
        2.1855694143368964e-08,
        0.0,
        0.0,
        1.0
      ]
    },
    {
      "mesh": 6,
      "name": "frame.007_sprite_0"
    },
    {
      "children": [
        19
      ],
      "name": "frame.006",
      "rotation": [
        2.1855694143368964e-08,
        0.0,
        0.0,
        1.0
      ]
    },
    {
      "mesh": 7,
      "name": "frame.006_sprite_0"
    },
    {
      "children": [
        21
      ],
      "name": "frame.005",
      "rotation": [
        2.1855694143368964e-08,
        0.0,
        0.0,
        1.0
      ]
    },
    {
      "mesh": 8,
      "name": "frame.005_sprite_0"
    },
    {
      "children": [
        23
      ],
      "name": "frame.004",
      "rotation": [
        2.1855694143368964e-08,
        0.0,
        0.0,
        1.0
      ]
    },
    {
      "mesh": 9,
      "name": "frame.004_sprite_0"
    },
    {
      "children": [
        25
      ],
      "name": "frame.003",
      "rotation": [
        2.1855694143368964e-08,
        0.0,
        0.0,
        1.0
      ]
    },
    {
      "mesh": 10,
      "name": "frame.003_sprite_0"
    },
    {
      "children": [
        27
      ],
      "name": "frame.002",
      "rotation": [
        2.1855694143368964e-08,
        0.0,
        0.0,
        1.0
      ]
    },
    {
      "mesh": 11,
      "name": "frame.002_sprite_0"
    },
    {
      "children": [
        29
      ],
      "name": "frame.001",
      "rotation": [
        2.1855694143368964e-08,
        0.0,
        0.0,
        1.0
      ]
    },
    {
      "mesh": 12,
      "name": "frame.001_sprite_0"
    },
    {
      "children": [
        31
      ],
      "name": "frame",
      "rotation": [
        2.1855694143368964e-08,
        0.0,
        0.0,
        1.0
      ]
    },
    {
      "mesh": 13,
      "name": "frame_sprite_0"
    }
  ],
  "samplers": [
    {
      "magFilter": 9729,
      "minFilter": 9987,
      "wrapS": 10497,
      "wrapT": 10497
    }
  ],
  "scene": 0,
  "scenes": [
    {
      "name": "Sketchfab_Scene",
      "nodes": [
        0
      ]
    }
  ],
  "textures": [
    {
      "sampler": 0,
      "source": 0
    }
  ]
}
